{
.appVersion = "3151";
.formatVersion = 3;
DisplayStrings = (
C
);
classes = (
{
automatic = 1;
code = "A Aacute Abreve Acircumflex Adieresis Agrave Amacron Aogonek Aring Aringacute Atilde AE AEacute B C Cacute Ccaron Ccedilla Ccircumflex Cdotaccent D Eth Dcaron Dcroat E Eacute Ebreve Ecaron Ecircumflex Edieresis Edotaccent Egrave Emacron Eogonek F G Gbreve Gcircumflex Gcommaaccent Gdotaccent H Hbar Hcircumflex I IJ Iacute Ibreve Icircumflex Idieresis Idotaccent Igrave Imacron Iogonek Itilde J Jcircumflex K Kcommaaccent L Lacute Lcaron Lcommaaccent Ldot Lslash M N Nacute Ncaron Ncommaaccent Ntilde Eng O Oacute Obreve Ocircumflex Odieresis Ograve Ohungarumlaut Omacron Oslash Oslashacute Otilde OE P Thorn Q R Racute Rcaron Rcommaaccent S Sacute Scaron Scedilla Scircumflex Scommaaccent T Tbar Tcaron Tcedilla Tcommaaccent U Uacute Ubreve Ucircumflex Udieresis Ugrave Uhungarumlaut Umacron Uogonek Uring Utilde V W Wacute Wcircumflex Wdieresis Wgrave X Y Yacute Ycircumflex Ydieresis Ygrave Z Zacute Zcaron Zdotaccent Delta Omega";
name = Uppercase;
}
);
customParameters = (
{
name = fsType;
value = (
);
},
{
name = "Use Typo Metrics";
value = 1;
}
);
date = "2023-02-22 16:13:45 +0000";
familyName = "Mate SC";
featurePrefixes = (
{
automatic = 1;
code = "languagesystem DFLT dflt;

languagesystem latn dflt;
languagesystem latn AZE;
languagesystem latn CRT;
languagesystem latn KAZ;
languagesystem latn TAT;
languagesystem latn TRK;
languagesystem latn ROM;
languagesystem latn MOL;
languagesystem latn CAT;
";
name = Languagesystems;
}
);
features = (
{
automatic = 1;
code = "feature locl;
feature subs;
feature sinf;
feature sups;
feature frac;
feature ordn;
feature c2sc;
feature smcp;
feature case;
feature salt;
";
tag = aalt;
},
{
automatic = 1;
code = "lookup ccmp_Other_1 {
	@CombiningTopAccents = [acutecomb brevecomb caroncomb circumflexcomb commaturnedabovecomb dieresiscomb dotaccentcomb gravecomb hungarumlautcomb macroncomb ringcomb tildecomb];

glyphs = (
{
glyphname = A;
kernLeft = A;
kernRight = A;
lastChange = "2023-02-24 13:30:35 +0000";
layers = (
{
anchors = (
{
name = bottom;
pos = (330,0);
},
{
name = ogonek;
pos = (642,4);
},
{
name = top;
pos = (334,700);
}
);
background = {
shapes = (
{
closed = 1;
nodes = (
(179,215,l),
(454,229,l),
(517,52,l),
(427,30,l),
(427,22,o),
(427,0,o),
(442,0,cs),
(442,0,o),
(453,0,o),
(561,4,c),
(648,0,o),
(660,0,o),
(660,0,c),
(675,0,o),
(675,23,o),
(675,30,c),
(600,52,l),
(368,700,l),
(292,700,l),
(62,52,l),
(-13,30,l),
(-13,23,o),
(-13,0,o),
(2,0,cs),
(2,0,o),
(6,0,o),
(93,4,c),
(201,0,o),
(204,0,o),
(204,0,c),
(219,0,o),
(219,22,o),
(219,30,c),
(124,52,l,{
name = hr00;
})
);
},
{
closed = 1;
nodes = (
(439,273,l),
(199,273,l),
(317,619,l)
);
}
);
};
layerId = master01;
shapes = (
{
closed = 1;
nodes = (
(179,215,l),
(454,229,l),
(517,52,l),
(427,30,l),
(427,22,o),
(427,0,o),
(442,0,cs),
(442,0,o),
(453,0,o),
(561,4,c),
(648,0,o),
(660,0,o),
(660,0,c),
(675,0,o),
(675,23,o),
(675,30,c),
(600,52,l),
(368,700,l),
(292,700,l),
(62,52,l),
(-13,30,l),
(-13,23,o),
(-13,0,o),
(2,0,cs),
(2,0,o),
(6,0,o),
(93,4,c),
(201,0,o),
(204,0,o),
(204,0,c),
(219,0,o),
(219,22,o),
(219,30,c),
(124,52,l,{
name = hr00;
})
);
},
{
closed = 1;
nodes = (
(439,273,l),
(199,273,l),
(317,619,l)
);
}
);
width = 660;
}
);
unicode = 65;
},
{
glyphname = Aacute;
kernLeft = A;
kernRight = A;
lastChange = "2023-02-24 13:30:35 +0000";
layers = (
{
background = {
shapes = (
{
closed = 1;
nodes = (
(179,215,l),
(454,229,l),
(517,52,l),
(427,30,l),
(427,22,o),
(427,0,o),
(442,0,cs),
(442,0,o),
(453,0,o),
(561,4,c),
(648,0,o),
(660,0,o),
(660,0,c),
(675,0,o),
(675,23,o),
(675,30,c),
(600,52,l),
(368,700,l),
(292,700,l),
(62,52,l),
(-13,30,l),
(-13,23,o),
(-13,0,o),
(2,0,cs),
(2,0,o),
(6,0,o),
(93,4,c),
(201,0,o),
(204,0,o),
(204,0,c),
(219,0,o),
(219,22,o),
(219,30,c),
(124,52,l,{
name = hr00;
})
);
},
{
closed = 1;
nodes = (
(439,273,l),
(199,273,l),
(317,619,l)
);
},
{
closed = 1;
nodes = (
(288,772,o),
(386,802,o),
(453,845,cs),
(457,847,o),
(458,852,o),
(458,857,cs),
(458,877,o),
(438,918,o),
(433,924,c),
(338,847,o),
(241,781,o),
(241,781,c),
(252,762,l,{
name = hr00;
})
);
}
);
};
layerId = master01;
shapes = (
{
ref = A;
},
{
pos = (175,0);
ref = acutecomb.case;
}
);
width = 660;
}
);
unicode = 193;
},
{
glyphname = Abreve;
kernLeft = A;
kernRight = A;
lastChange = "2023-02-24 13:30:35 +0000";
layers = (
{
background = {
shapes = (
{
closed = 1;
nodes = (
(179,215,l),
(454,229,l),
(517,52,l),
(427,30,l),
(427,22,o),
(427,0,o),
(442,0,cs),
(442,0,o),
(453,0,o),
(561,4,c),
(648,0,o),
(660,0,o),
(660,0,c),
(675,0,o),
(675,23,o),
(675,30,c),
(600,52,l),
(368,700,l),
(292,700,l),
(62,52,l),
(-13,30,l),
(-13,23,o),
(-13,0,o),
(2,0,cs),
(2,0,o),
(6,0,o),
(93,4,c),
(201,0,o),
(204,0,o),
(204,0,c),
(219,0,o),
(219,22,o),
(219,30,c),
(124,52,l,{
name = hr00;
})
);
},
{
closed = 1;
nodes = (
(439,273,l),
(199,273,l),
(317,619,l)
);
},
{
closed = 1;
nodes = (
(292,821,o),
(263,857,o),
(241,913,c),
(207,905,l),
(239,808,o),
(270,754,o),
(330,754,cs),
(390,754,o),
(421,808,o),
(453,905,c),
(419,913,l),
(397,857,o),
(368,821,o),
(330,821,cs,{
name = hr00;
})
);
}
);
};
layerId = master01;
shapes = (
{
ref = A;
},
{
pos = (168,0);
ref = brevecomb.case;
}
);
width = 660;
}
);
unicode = 258;
},
{
glyphname = Acircumflex;
kernLeft = A;
kernRight = A;
lastChange = "2023-02-24 13:30:35 +0000";
layers = (
{
background = {
shapes = (
{
closed = 1;
nodes = (
(179,215,l),
(454,229,l),
(517,52,l),
(427,30,l),
(427,22,o),
(427,0,o),
(442,0,cs),
(442,0,o),
(453,0,o),
(561,4,c),
(648,0,o),
(660,0,o),
(660,0,c),
(675,0,o),
(675,23,o),
(675,30,c),
(600,52,l),
(368,700,l),
(292,700,l),
(62,52,l),
(-13,30,l),
(-13,23,o),
(-13,0,o),
(2,0,cs),
(2,0,o),
(6,0,o),
(93,4,c),
(201,0,o),
(204,0,o),
(204,0,c),
(219,0,o),
(219,22,o),
(219,30,c),
(124,52,l,{
name = hr00;
})
);
},
{
closed = 1;
nodes = (
(439,273,l),
(199,273,l),
(317,619,l)
);
},
{
closed = 1;
nodes = (
(446,753,l),
(472,770,l),
(428,833,o),
(395,886,o),
(372,929,c),
(327,929,l),
(304,886,o),
(271,833,o),
(227,770,c),
(253,753,l),
(350,855,l,{
name = hr00;
})
);
}
);
};
layerId = master01;
shapes = (
{
ref = A;
},
{
pos = (166,0);
ref = circumflexcomb.case;
}
);
width = 660;
}
);
unicode = 194;
},
{
glyphname = Adieresis;
kernLeft = A;
kernRight = A;
lastChange = "2023-02-24 13:30:35 +0000";
layers = (
{
background = {
shapes = (
{
closed = 1;
nodes = (
(179,215,l),
(454,229,l),
(517,52,l),
(427,30,l),
(427,22,o),
(427,0,o),
(442,0,cs),
(442,0,o),
(453,0,o),
(561,4,c),
(648,0,o),
(660,0,o),
(660,0,c),
(675,0,o),
(675,23,o),
(675,30,c),
(600,52,l),
(368,700,l),
(292,700,l),
(62,52,l),
(-13,30,l),
(-13,23,o),
(-13,0,o),
(2,0,cs),
(2,0,o),
(6,0,o),
(93,4,c),
(201,0,o),
(204,0,o),
(204,0,c),
(219,0,o),
(219,22,o),
(219,30,c),
(124,52,l,{
name = hr00;
})
);
},
{
closed = 1;
nodes = (
(439,273,l),
(199,273,l),
(317,619,l)
);
},
{
closed = 1;
nodes = (
(312,903,o),
(320,877,o),
(320,850,cs),
(320,825,o),
(315,800,o),
(314,797,c),
(314,797,o),
(282,788,o),
(265,788,cs),
(239,788,o),
(233,814,o),
(233,840,cs),
(233,867,o),
(239,893,o),
(240,896,c),
(240,896,o),
(273,903,o),
(289,903,cs,{
name = hr00;
})
);
},
{
closed = 1;
nodes = (
(460,903,o),
(468,877,o),
(468,850,cs),
(468,825,o),
(463,800,o),
(462,797,c),
(462,797,o),
(430,788,o),
(413,788,cs),
(387,788,o),
(381,814,o),
(381,840,cs),
(381,867,o),
(387,893,o),
(388,896,c),
(388,896,o),
(421,903,o),
(437,903,cs)
);
}
);
};
layerId = master01;
shapes = (
{
ref = A;
},
{
pos = (144,0);
ref = dieresiscomb.case;
}
);
width = 660;
}
);
unicode = 196;
},
{
glyphname = Agrave;
kernLeft = A;
kernRight = A;
lastChange = "2023-02-24 13:30:35 +0000";
layers = (
{
background = {
shapes = (
{
closed = 1;
nodes = (
(179,215,l),
(454,229,l),
(517,52,l),
(427,30,l),
(427,22,o),
(427,0,o),
(442,0,cs),
(442,0,o),
(453,0,o),
(561,4,c),
(648,0,o),
(660,0,o),
(660,0,c),
(675,0,o),
(675,23,o),
(675,30,c),
(600,52,l),
(368,700,l),
(292,700,l),
(62,52,l),
(-13,30,l),
(-13,23,o),
(-13,0,o),
(2,0,cs),
(2,0,o),
(6,0,o),
(93,4,c),
(201,0,o),
(204,0,o),
(204,0,c),
(219,0,o),
(219,22,o),
(219,30,c),
(124,52,l,{
name = hr00;
})
);
},
{
closed = 1;
nodes = (
(439,273,l),
(199,273,l),
(317,619,l)
);
},
{
closed = 1;
nodes = (
(458,781,o),
(361,847,o),
(266,924,c),
(261,918,o),
(241,877,o),
(241,857,cs),
(241,852,o),
(242,847,o),
(246,845,cs),
(313,802,o),
(411,772,o),
(447,762,c),
(458,781,l,{
name = hr00;
})
);
}
);
};
layerId = master01;
shapes = (
{
ref = A;
},
{
pos = (175,0);
ref = gravecomb.case;
}
);
width = 660;
}
);
unicode = 192;
},
{
glyphname = Amacron;
kernLeft = A;
kernRight = A;
lastChange = "2023-02-24 13:30:35 +0000";
layers = (
{
background = {
shapes = (
{
closed = 1;
nodes = (
(179,215,l),
(454,229,l),
(517,52,l),
(427,30,l),
(427,22,o),
(427,0,o),
(442,0,cs),
(442,0,o),
(453,0,o),
(561,4,c),
(648,0,o),
(660,0,o),
(660,0,c),
(675,0,o),
(675,23,o),
(675,30,c),
(600,52,l),
(368,700,l),
(292,700,l),
(62,52,l),
(-13,30,l),
(-13,23,o),
(-13,0,o),
(2,0,cs),
(2,0,o),
(6,0,o),
(93,4,c),
(201,0,o),
(204,0,o),
(204,0,c),
(219,0,o),
(219,22,o),
(219,30,c),
(124,52,l,{
name = hr00;
})
);
},
{
closed = 1;
nodes = (
(439,273,l),
(199,273,l),
(317,619,l)
);
},
{
closed = 1;
nodes = (
(470,814,l),
(470,877,l),
(189,877,l),
(189,814,l,{
name = hr00;
})
);
}
);
};
layerId = master01;
shapes = (
{
ref = A;
},
{
pos = (123,0);
ref = macroncomb.case;
}
);
width = 660;
}
);
unicode = 256;
},
{
glyphname = Aogonek;
kernLeft = A;
kernRight = A;
lastChange = "2023-02-24 13:30:35 +0000";
layers = (
{
background = {
shapes = (
{
closed = 1;
nodes = (
(179,215,l),
(454,229,l),
(517,52,l),
(427,30,l),
(427,22,o),
(427,0,o),
(442,0,cs),
(442,0,o),
(453,0,o),
(561,4,c),
(648,0,o),
(660,0,o),
(660,0,c),
(675,0,o),
(675,23,o),
(675,30,c),
(600,52,l),
(368,700,l),
(292,700,l),
(62,52,l),
(-13,30,l),
(-13,23,o),
(-13,0,o),
(2,0,cs),
(2,0,o),
(6,0,o),
(93,4,c),
(201,0,o),
(204,0,o),
(204,0,c),
(219,0,o),
(219,22,o),
(219,30,c),
(124,52,l,{
name = hr00;
})
);
},
{
closed = 1;
nodes = (
(439,273,l),
(199,273,l),
(317,619,l)
);
},
{
closed = 1;
nodes = (
(579,15,l),
(491,-23,o),
(451,-87,o),
(451,-141,cs),
(451,-191,o),
(487,-233,o),
(554,-233,cs),
(593,-233,o),
(622,-218,o),
(640,-202,c),
(637,-188,o),
(632,-180,o),
(623,-172,c),
(607,-183,o),
(587,-189,o),
(568,-189,cs),
(538,-189,o),
(511,-173,o),
(511,-134,cs),
(511,-86,o),
(549,-22,o),
(637,9,c),
(637,15,l,{
name = hr00;
})
);
}
);
};
layerId = master01;
shapes = (
{
ref = A;
},
{
pos = (316,4);
ref = ogonekcomb;
}
);
width = 660;
}
);
unicode = 260;
},
{
glyphname = Aring;
kernLeft = A;
kernRight = A;
lastChange = "2023-02-24 13:30:35 +0000";
layers = (
{
background = {
shapes = (
{
closed = 1;
nodes = (
(179,215,l),
(454,229,l),
(517,52,l),
(427,30,l),
(427,22,o),
(427,0,o),
(442,0,cs),
(442,0,o),
(453,0,o),
(561,4,c),
(648,0,o),
(660,0,o),
(660,0,c),
(675,0,o),
(675,23,o),
(675,30,c),
(600,52,l),
(368,700,l),
(292,700,l),
(62,52,l),
(-13,30,l),
(-13,23,o),
(-13,0,o),
(2,0,cs),
(2,0,o),
(6,0,o),
(93,4,c),
(201,0,o),
(204,0,o),
(204,0,c),
(219,0,o),
(219,22,o),
(219,30,c),
(124,52,l,{
name = hr00;
})
);
},
{
closed = 1;
nodes = (
(439,273,l),
(199,273,l),
(317,619,l)
);
},
{
closed = 1;
nodes = (
(423,907,o),
(382,935,o),
(332,935,cs),
(281,935,o),
(238,904,o),
(238,848,cs),
(238,788,o),
(277,759,o),
(328,759,cs),
(384,759,o),
(423,788,o),
(423,850,cs,{
name = hr00;
})
);
},
{
closed = 1;
nodes = (
(284,870,o),
(291,891,o),
(304,897,c),
(310,900,o),
(321,902,o),
(331,902,cs),
(357,902,o),
(377,883,o),
(377,848,cs),
(377,809,o),
(357,792,o),
(331,792,cs),
(306,792,o),
(284,809,o),
(284,848,cs)
);
}
);
};
layerId = master01;
shapes = (
{
ref = A;
},
{
pos = (191,0);
ref = ringcomb.case;
}
);
width = 660;
}
);
unicode = 197;
},
{
glyphname = Aringacute;
kernLeft = A;
kernRight = A;
lastChange = "2023-02-24 13:30:35 +0000";
layers = (
{
background = {
shapes = (
{
closed = 1;
nodes = (
(179,215,l),
(454,229,l),
(517,52,l),
(427,30,l),
(427,22,o),
(427,0,o),
(442,0,cs),
(442,0,o),
(453,0,o),
(561,4,c),
(648,0,o),
(660,0,o),
(660,0,c),
(675,0,o),
(675,23,o),
(675,30,c),
(600,52,l),
(368,700,l),
(292,700,l),
(62,52,l),
(-13,30,l),
(-13,23,o),
(-13,0,o),
(2,0,cs),
(2,0,o),
(6,0,o),
(93,4,c),
(201,0,o),
(204,0,o),
(204,0,c),
(219,0,o),
(219,22,o),
(219,30,c),
(124,52,l,{
name = hr00;
})
);
},
{
closed = 1;
nodes = (
(439,273,l),
(199,273,l),
(317,619,l)
);
},
{
closed = 1;
nodes = (
(423,907,o),
(382,935,o),
(332,935,cs),
(281,935,o),
(238,904,o),
(238,848,cs),
(238,788,o),
(277,759,o),
(328,759,cs),
(384,759,o),
(423,788,o),
(423,850,cs,{
name = hr00;
})
);
},
{
closed = 1;
nodes = (
(284,870,o),
(291,891,o),
(304,897,c),
(310,900,o),
(321,902,o),
(331,902,cs),
(357,902,o),
(377,883,o),
(377,848,cs),
(377,809,o),
(357,792,o),
(331,792,cs),
(306,792,o),
(284,809,o),
(284,848,cs)
);
},
{
closed = 1;
nodes = (
(336,910,o),
(420,936,o),
(477,972,cs),
(480,974,o),
(481,978,o),
(481,982,cs),
(481,999,o),
(464,1034,o),
(460,1039,c),
(379,974,o),
(297,918,o),
(297,918,c),
(306,902,l,{
name = hr00;
})
);
}
);
};
layerId = master01;
shapes = (
{
closed = 1;
nodes = (
(384,759,o),
(423,788,o),
(423,850,cs,{
name = hr00;
}),
(423,907,o),
(382,935,o),
(332,935,cs),
(281,935,o),
(238,904,o),
(238,848,cs),
(238,788,o),
(277,759,o),
(328,759,cs)
);
},
{
ref = A;
},
{
closed = 1;
nodes = (
(306,792,o),
(284,809,o),
(284,848,cs),
(284,870,o),
(291,891,o),
(304,897,c),
(310,900,o),
(321,902,o),
(331,902,cs),
(357,902,o),
(377,883,o),
(377,848,cs),
(377,809,o),
(357,792,o),
(331,792,cs)
);
},
{
closed = 1;
nodes = (
(336,910,o),
(420,936,o),
(477,972,cs),
(480,974,o),
(481,978,o),
(481,982,cs),
(481,999,o),
(464,1034,o),
(460,1039,c),
(379,974,o),
(297,918,o),
(297,918,c),
(306,902,l,{
name = hr00;
})
);
}
);
width = 660;
}
);
unicode = 506;
},
{
glyphname = Atilde;
kernLeft = A;
kernRight = A;
lastChange = "2023-02-24 13:30:35 +0000";
layers = (
{
background = {
shapes = (
{
closed = 1;
nodes = (
(179,215,l),
(454,229,l),
(517,52,l),
(427,30,l),
(427,22,o),
(427,0,o),
(442,0,cs),
(442,0,o),
(453,0,o),
(561,4,c),
(648,0,o),
(660,0,o),
(660,0,c),
(675,0,o),
(675,23,o),
(675,30,c),
(600,52,l),
(368,700,l),
(292,700,l),
(62,52,l),
(-13,30,l),
(-13,23,o),
(-13,0,o),
(2,0,cs),
(2,0,o),
(6,0,o),
(93,4,c),
(201,0,o),
(204,0,o),
(204,0,c),
(219,0,o),
(219,22,o),
(219,30,c),
(124,52,l,{
name = hr00;
})
);
},
{
closed = 1;
nodes = (
(439,273,l),
(199,273,l),
(317,619,l)
);
},
{
closed = 1;
nodes = (
(471,876,o),
(451,865,o),
(429,865,cs),
(382,865,o),
(341,892,o),
(293,892,cs,{
name = hr01;
}),
(260,892,o),
(226,876,o),
(192,817,c),
(209,798,l),
(229,817,o),
(249,828,o),
(271,828,cs),
(318,828,o),
(359,801,o),
(407,801,cs,{
name = hr02;
}),
(440,801,o),
(474,817,o),
(508,876,c),
(491,895,l)
);
}
);
};
layerId = master01;
shapes = (
{
ref = A;
},
{
pos = (126,0);
ref = tildecomb.case;
}
);
width = 660;
}
);
unicode = 195;
},
{
glyphname = AE;
kernLeft = A;
lastChange = "2023-02-24 13:30:39 +0000";
layers = (
{
anchors = (
{
name = bottom;
pos = (433,0);
},
{
name = top;
pos = (557,700);
}
);
background = {
shapes = (
{
closed = 1;
nodes = (
(725,541,o),
(760,541,o),
(768,541,c),
(792,690,l),
(791,700,o),
(778,700,o),
(760,700,cs,{
name = hr01;
}),
(421,696,l),
(338,700,l),
(62,52,l),
(-13,30,l),
(-13,23,o),
(-13,0,o),
(2,0,cs),
(2,0,o),
(6,0,o),
(93,4,c,{
name = hr02;
}),
(201,0,o),
(204,0,o),
(204,0,c,{
name = hr03;
}),
(219,0,o),
(219,22,o),
(219,30,c),
(124,52,l),
(192,217,l),
(443,229,l),
(481,52,l),
(391,30,l),
(391,22,o),
(391,0,o),
(406,0,c),
(525,8,l),
(816,0,o),
(819,0,o),
(821,0,cs),
(835,0,o),
(841,3,o),
(842,12,cs),
(850,163,l),
(843,163,o),
(808,163,o),
(808,149,c),
(782,55,l,{
name = hr04;
}),
(561,55,l),
(502,325,l),
(772,339,l),
(772,382,l),
(490,382,l),
(432,646,l),
(725,649,l),
(725,555,ls)
);
},
{
closed = 1;
nodes = (
(434,273,l),
(215,273,l),
(359,622,l)
);
}
);
};
layerId = master01;
shapes = (
{
closed = 1;
nodes = (
(725,541,o),
(760,541,o),
(768,541,c),
(792,690,l),
(791,700,o),
(778,700,o),
(760,700,cs,{
name = hr01;
}),
(421,696,l),
(338,700,l),
(62,52,l),
(-13,30,l),
(-13,23,o),
(-13,0,o),
(2,0,cs),
(2,0,o),
(6,0,o),
(93,4,c,{
name = hr02;
}),
(201,0,o),
(204,0,o),
(204,0,c,{
name = hr03;
}),
(219,0,o),
(219,22,o),
(219,30,c),
(124,52,l),
(192,217,l),
(443,229,l),
(481,52,l),
(391,30,l),
(391,22,o),
(391,0,o),
(406,0,c),
(525,8,l),
(816,0,o),
(819,0,o),
(821,0,cs),
(835,0,o),
(842,3,o),
(842,12,cs),
(850,163,l),
(843,163,o),
(808,163,o),
(808,149,c),
(782,55,l,{
name = hr04;
}),
(561,55,l),
(502,325,l),
(772,339,l),
(772,382,l),
(490,382,l),
(432,646,l),
(725,649,l),
(725,555,ls)
);
},
{
closed = 1;
nodes = (
(434,273,l),
(215,273,l),
(359,622,l)
);
}
);
width = 865;
}
);
unicode = 198;
},
{
glyphname = AEacute;
kernLeft = A;
lastChange = "2023-02-24 13:30:39 +0000";
layers = (
{
background = {
shapes = (
{
closed = 1;
nodes = (
(725,541,o),
(760,541,o),
(768,541,c),
(792,690,l),
(791,700,o),
(778,700,o),
(760,700,cs,{
name = hr01;
}),
(421,696,l),
(338,700,l),
(62,52,l),
(-13,30,l),
(-13,23,o),
(-13,0,o),
(2,0,cs),
(2,0,o),
(6,0,o),
(93,4,c,{
name = hr02;
}),
(201,0,o),
(204,0,o),
(204,0,c,{
name = hr03;
}),
(219,0,o),
(219,22,o),
(219,30,c),
(124,52,l),
(192,217,l),
(443,229,l),
(481,52,l),
(391,30,l),
(391,22,o),
(391,0,o),
(406,0,c),
(525,8,l),
(816,0,o),
(819,0,o),
(821,0,cs),
(835,0,o),
(841,3,o),
(842,12,cs),
(850,163,l),
(843,163,o),
(808,163,o),
(808,149,c),
(782,55,l,{
name = hr04;
}),
(561,55,l),
(502,325,l),
(772,339,l),
(772,382,l),
(490,382,l),
(432,646,l),
(725,649,l),
(725,555,ls)
);
},
{
closed = 1;
nodes = (
(434,273,l),
(215,273,l),
(359,622,l)
);
},
{
closed = 1;
nodes = (
(496,772,o),
(594,802,o),
(661,845,cs),
(665,847,o),
(666,852,o),
(666,857,cs),
(666,877,o),
(646,918,o),
(641,924,c),
(546,847,o),
(449,781,o),
(449,781,c),
(460,762,l,{
name = hr00;
})
);
}
);
};
layerId = master01;
shapes = (
{
ref = AE;
},
{
pos = (398,0);
ref = acutecomb.case;
}
);
width = 865;
}
);
unicode = 508;
},
{
glyphname = B;
lastChange = "2023-02-24 11:13:39 +0000";
layers = (
{
anchors = (
{
name = bottom;
pos = (306,0);
},
{
name = center;
pos = (306,350);
},
{
name = top;
pos = (306,700);
}
);
background = {
shapes = (
{
closed = 1;
nodes = (
(511,615,o),
(439,700,o),
(298,700,cs),
(294,700,o),
(290,700,o),
(168,696,c),
(74,700,o),
(65,700,o),
(65,700,c),
(50,700,o),
(50,677,o),
(50,670,c),
(134,648,l),
(134,52,l),
(50,30,l),
(50,23,o),
(50,0,o),
(65,0,c),
(176,8,l,{
name = hr01;
}),
(353,0,o),
(356,0,o),
(360,0,cs,{
name = hr02;
}),
(490,0,o),
(567,87,o),
(567,192,cs),
(567,270,o),
(513,347,o),
(402,374,c),
(474,404,o),
(511,466,o),
(511,529,cs)
);
},
{
closed = 1;
nodes = (
(310,44,o),
(258,48,o),
(205,58,c),
(214,336,l),
(316,348,l),
(432,348,o),
(487,268,o),
(487,191,cs,{
name = hr04;
}),
(487,117,o),
(440,44,o),
(334,44,cs)
);
},
{
closed = 1;
nodes = (
(385,662,o),
(436,595,o),
(436,526,cs,{
name = hr05;
}),
(436,460,o),
(389,393,o),
(296,384,c),
(214,384,l),
(205,648,l),
(285,662,l)
);
}
);
};
layerId = master01;
shapes = (
{
closed = 1;
nodes = (
(511,615,o),
(439,700,o),
(298,700,cs),
(294,700,o),
(290,700,o),
(168,696,c),
(74,700,o),
(65,700,o),
(65,700,c),
(50,700,o),
(50,677,o),
(50,670,c),
(134,648,l),
(134,52,l),
(50,30,l),
(50,23,o),
(50,0,o),
(65,0,c),
(176,8,l,{
name = hr01;
}),
(353,0,o),
(356,0,o),
(360,0,cs,{
name = hr02;
}),
(490,0,o),
(567,87,o),
(567,192,cs),
(567,270,o),
(513,347,o),
(402,374,c),
(474,404,o),
(511,466,o),
(511,529,cs)
);
},
{
closed = 1;
nodes = (
(310,44,o),
(258,48,o),
(205,58,c),
(214,336,l),
(316,348,l),
(432,348,o),
(487,268,o),
(487,191,cs,{
name = hr04;
}),
(487,117,o),
(440,44,o),
(334,44,cs)
);
},
{
closed = 1;
nodes = (
(385,662,o),
(436,595,o),
(436,526,cs,{
name = hr05;
}),
(436,460,o),
(389,393,o),
(296,384,c),
(214,384,l),
(205,648,l),
(285,662,l)
);
}
);
width = 612;
}
);
unicode = 66;
},
{
glyphname = C;
kernLeft = C;
lastChange = "2023-02-24 14:01:16 +0000";
layers = (
{
anchors = (
{
name = bottom;
pos = (317,0);
},
{
name = top;
pos = (372,700);
}
);
background = {
shapes = (
{
closed = 1;
nodes = (
(585,194,o),
(551,193,o),
(547,180,c),
(524,78,l),
(481,52,o),
(434,41,o),
(373,41,cs),
(234,41,o),
(128,143,o),
(128,352,cs),
(128,478,o),
(167,583,o),
(229,629,c),
(268,642,o),
(324,653,o),
(373,653,cs),
(421,653,o),
(481,641,o),
(514,628,c),
(514,517,ls),
(514,503,o),
(551,503,o),
(559,503,c),
(585,652,l),
(527,691,o),
(457,712,o),
(379,712,cs),
(192,712,o),
(40,588,o),
(40,354,cs),
(40,109,o),
(178,-12,o),
(363,-12,cs),
(450,-12,o),
(528,9,o),
(584,51,cs),
(592,194,l,{
name = hr00;
})
);
}
);
};
layerId = master01;
shapes = (
{
closed = 1;
nodes = (
(585,194,o),
(551,193,o),
(547,180,c),
(524,78,l),
(481,52,o),
(434,41,o),
(373,41,cs),
(234,41,o),
(128,143,o),
(128,352,cs),
(128,478,o),
(167,583,o),
(229,629,c),
(268,642,o),
(324,653,o),
(373,653,cs),
(421,653,o),
(481,641,o),
(514,628,c),
(514,517,ls),
(514,503,o),
(551,503,o),
(559,503,c),
(585,652,l),
(527,691,o),
(457,712,o),
(379,712,cs),
(192,712,o),
(40,588,o),
(40,354,cs),
(40,109,o),
(178,-12,o),
(363,-12,cs),
(450,-12,o),
(541,13,o),
(584,51,c),
(592,194,l,{
name = hr00;
})
);
}
);
width = 642;
}
);
unicode = 67;
},
{
glyphname = Cacute;
kernLeft = C;
lastChange = "2023-02-24 13:30:51 +0000";
layers = (
{
background = {
shapes = (
{
closed = 1;
nodes = (
(585,194,o),
(551,193,o),
(547,180,c),
(524,78,l),
(481,52,o),
(434,41,o),
(373,41,cs),
(234,41,o),
(128,143,o),
(128,352,cs),
(128,478,o),
(167,583,o),
(229,629,c),
(268,642,o),
(324,653,o),
(373,653,cs),
(421,653,o),
(481,641,o),
(514,628,c),
(514,517,ls),
(514,503,o),
(551,503,o),
(559,503,c),
(585,652,l),
(527,691,o),
(457,712,o),
(379,712,cs),
(192,712,o),
(40,588,o),
(40,354,cs),
(40,109,o),
(178,-12,o),
(363,-12,cs),
(450,-12,o),
(528,9,o),
(584,51,cs),
(592,194,l,{
name = hr00;
})
);
},
{
closed = 1;
nodes = (
(309,772,o),
(407,802,o),
(474,845,cs),
(478,847,o),
(479,852,o),
(479,857,cs),
(479,877,o),
(459,918,o),
(454,924,c),
(359,847,o),
(262,781,o),
(262,781,c),
(273,762,l,{
name = hr00;
})
);
}
);
};
layerId = master01;
shapes = (
{
ref = C;
},
{
pos = (213,0);
ref = acutecomb.case;
}
);
width = 642;
}
);
unicode = 262;
},
{
glyphname = Ccaron;
kernLeft = C;
lastChange = "2023-02-24 13:30:51 +0000";
layers = (
{
background = {
shapes = (
{
closed = 1;
nodes = (
(585,194,o),
(551,193,o),
(547,180,c),
(524,78,l),
(481,52,o),
(434,41,o),
(373,41,cs),
(234,41,o),
(128,143,o),
(128,352,cs),
(128,478,o),
(167,583,o),
(229,629,c),
(268,642,o),
(324,653,o),
(373,653,cs),
(421,653,o),
(481,641,o),
(514,628,c),
(514,517,ls),
(514,503,o),
(551,503,o),
(559,503,c),
(585,652,l),
(527,691,o),
(457,712,o),
(379,712,cs),
(192,712,o),
(40,588,o),
(40,354,cs),
(40,109,o),
(178,-12,o),
(363,-12,cs),
(450,-12,o),
(528,9,o),
(584,51,cs),
(592,194,l,{
name = hr00;
})
);
},
{
closed = 1;
nodes = (
(275,929,l),
(248,912,l),
(288,849,o),
(318,796,o),
(337,753,c),
(382,753,l),
(408,796,o),
(445,849,o),
(493,912,c),
(468,929,l),
(365,827,l,{
name = hr00;
})
);
}
);
};
layerId = master01;
shapes = (
{
ref = C;
},
{
pos = (200,0);
ref = caroncomb.case;
}
);
width = 642;
}
);
unicode = 268;
},
{
glyphname = Ccedilla;
kernLeft = C;
lastChange = "2023-02-24 13:30:51 +0000";
layers = (
{
background = {
shapes = (
{
closed = 1;
nodes = (
(575,194,o),
(541,193,o),
(537,180,c),
(514,78,l),
(471,52,o),
(424,41,o),
(363,41,cs),
(224,41,o),
(118,143,o),
(118,352,cs),
(118,478,o),
(157,583,o),
(219,629,c),
(258,642,o),
(314,653,o),
(363,653,cs),
(411,653,o),
(471,641,o),
(504,628,c),
(504,517,ls),
(504,503,o),
(541,503,o),
(549,503,c),
(575,652,l),
(517,691,o),
(447,712,o),
(369,712,cs),
(182,712,o),
(30,588,o),
(30,354,cs),
(30,109,o),
(168,-12,o),
(353,-12,cs),
(440,-12,o),
(518,9,o),
(574,51,cs),
(582,194,l,{
name = hr00;
})
);
},
{
closed = 1;
nodes = (
(319,-85,o),
(342,-114,o),
(342,-142,cs),
(342,-167,o),
(323,-191,o),
(290,-191,cs),
(271,-191,o),
(250,-184,o),
(235,-172,c),
(216,-202,l),
(234,-218,o),
(263,-233,o),
(302,-233,cs),
(365,-233,o),
(405,-186,o),
(405,-141,cs),
(405,-102,o),
(378,-64,o),
(315,-56,c),
(337,15,l),
(305,15,l),
(266,-83,l,{
name = hr00;
})
);
}
);
};
layerId = master01;
shapes = (
{
ref = C;
},
{
pos = (112,0);
ref = cedillacomb;
}
);
width = 642;
}
);
unicode = 199;
},
{
glyphname = Ccircumflex;
kernLeft = C;
lastChange = "2023-02-24 13:30:51 +0000";
layers = (
{
background = {
shapes = (
{
closed = 1;
nodes = (
(585,194,o),
(551,193,o),
(547,180,c),
(524,78,l),
(481,52,o),
(434,41,o),
(373,41,cs),
(234,41,o),
(128,143,o),
(128,352,cs),
(128,478,o),
(167,583,o),
(229,629,c),
(268,642,o),
(324,653,o),
(373,653,cs),
(421,653,o),
(481,641,o),
(514,628,c),
(514,517,ls),
(514,503,o),
(551,503,o),
(559,503,c),
(585,652,l),
(527,691,o),
(457,712,o),
(379,712,cs),
(192,712,o),
(40,588,o),
(40,354,cs),
(40,109,o),
(178,-12,o),
(363,-12,cs),
(450,-12,o),
(528,9,o),
(584,51,cs),
(592,194,l,{
name = hr00;
})
);
},
{
closed = 1;
nodes = (
(467,753,l),
(493,770,l),
(449,833,o),
(416,886,o),
(393,929,c),
(348,929,l),
(325,886,o),
(292,833,o),
(248,770,c),
(274,753,l),
(371,855,l,{
name = hr00;
})
);
}
);
};
layerId = master01;
shapes = (
{
ref = C;
},
{
pos = (204,0);
ref = circumflexcomb.case;
}
);
width = 642;
}
);
unicode = 264;
},
{
glyphname = Cdotaccent;
kernLeft = C;
lastChange = "2023-02-24 13:30:51 +0000";
layers = (
{
background = {
shapes = (
{
closed = 1;
nodes = (
(585,194,o),
(551,193,o),
(547,180,c),
(524,78,l),
(481,52,o),
(434,41,o),
(373,41,cs),
(234,41,o),
(128,143,o),
(128,352,cs),
(128,478,o),
(167,583,o),
(229,629,c),
(268,642,o),
(324,653,o),
(373,653,cs),
(421,653,o),
(481,641,o),
(514,628,c),
(514,517,ls),
(514,503,o),
(551,503,o),
(559,503,c),
(585,652,l),
(527,691,o),
(457,712,o),
(379,712,cs),
(192,712,o),
(40,588,o),
(40,354,cs),
(40,109,o),
(178,-12,o),
(363,-12,cs),
(450,-12,o),
(528,9,o),
(584,51,cs),
(592,194,l,{
name = hr00;
})
);
},
{
closed = 1;
nodes = (
(364,906,o),
(332,899,o),
(332,899,c),
(332,899,o),
(324,869,o),
(324,840,cs),
(324,813,o),
(331,785,o),
(359,785,cs),
(379,785,o),
(410,794,o),
(410,794,c),
(410,794,o),
(417,823,o),
(417,850,cs),
(417,879,o),
(408,906,o),
(383,906,cs,{
name = hr00;
})
);
}
);
};
layerId = master01;
shapes = (
{
ref = C;
},
{
pos = (263,0);
ref = dotaccentcomb.case;
}
);
width = 642;
}
);
unicode = 266;
},
{
glyphname = D;
kernRight = D;
lastChange = "2023-02-24 13:31:00 +0000";
layers = (
{
anchors = (
{
name = bottom;
pos = (374,0);
},
{
name = center;
pos = (374,350);
},
{
name = top;
pos = (374,700);
}
);
background = {
shapes = (
{
closed = 1;
nodes = (
(134,52,l),
(50,30,l),
(50,23,o),
(50,0,o),
(65,0,c),
(176,8,l),
(364,-6,l,{
name = hr01;
}),
(564,-6,o),
(708,110,o),
(708,363,cs),
(708,597,o),
(561,712,o),
(380,712,c),
(176,696,l),
(82,700,o),
(65,700,o),
(65,700,c,{
name = hr02;
}),
(50,700,o),
(50,677,o),
(50,670,c),
(134,648,l)
);
},
{
closed = 1;
nodes = (
(319,41,o),
(262,49,o),
(208,61,c),
(218,350,l),
(208,639,l),
(271,654,o),
(331,658,o),
(374,658,cs,{
name = hr03;
}),
(514,658,o),
(620,557,o),
(620,352,cs),
(620,140,o),
(514,41,o),
(374,41,cs)
);
}
);
};
layerId = master01;
shapes = (
{
closed = 1;
nodes = (
(134,52,l),
(50,30,l),
(50,23,o),
(50,0,o),
(65,0,c),
(176,8,l),
(364,-6,l,{
name = hr01;
}),
(564,-6,o),
(708,110,o),
(708,363,cs),
(708,597,o),
(561,712,o),
(380,712,c),
(176,696,l),
(82,700,o),
(65,700,o),
(65,700,c,{
name = hr02;
}),
(50,700,o),
(50,677,o),
(50,670,c),
(134,648,l)
);
},
{
closed = 1;
nodes = (
(319,41,o),
(262,49,o),
(208,61,c),
(218,350,l),
(208,639,l),
(271,654,o),
(331,658,o),
(374,658,cs,{
name = hr03;
}),
(514,658,o),
(620,557,o),
(620,352,cs),
(620,140,o),
(514,41,o),
(374,41,cs)
);
}
);
width = 748;
}
);
unicode = 68;
},
{
glyphname = Eth;
kernRight = D;
lastChange = "2023-02-24 13:31:00 +0000";
layers = (
{
background = {
shapes = (
{
closed = 1;
nodes = (
(134,52,l),
(50,30,l),
(50,23,o),
(50,0,o),
(65,0,c),
(176,8,l),
(364,-6,l,{
name = hr01;
}),
(564,-6,o),
(708,110,o),
(708,363,cs),
(708,597,o),
(561,712,o),
(380,712,c),
(176,696,l),
(82,700,o),
(65,700,o),
(65,700,c,{
name = hr02;
}),
(50,700,o),
(50,677,o),
(50,670,c),
(134,648,l)
);
},
{
closed = 1;
nodes = (
(319,41,o),
(262,49,o),
(208,61,c),
(218,350,l),
(208,639,l),
(271,654,o),
(331,658,o),
(374,658,cs,{
name = hr03;
}),
(514,658,o),
(620,557,o),
(620,352,cs),
(620,140,o),
(514,41,o),
(374,41,cs)
);
},
{
closed = 1;
nodes = (
(19,371,l),
(19,338,l),
(397,338,l),
(397,371,l,{
name = hr00;
})
);
}
);
};
layerId = master01;
shapes = (
{
alignment = -1;
ref = D;
},
{
closed = 1;
nodes = (
(19,371,l),
(19,338,l),
(397,338,l),
(397,371,l,{
name = hr00;
})
);
}
);
width = 748;
}
);
unicode = 208;
},
{
glyphname = Dcaron;
kernRight = D;
lastChange = "2023-02-24 13:31:00 +0000";
layers = (
{
background = {
shapes = (
{
closed = 1;
nodes = (
(134,52,l),
(50,30,l),
(50,23,o),
(50,0,o),
(65,0,c),
(176,8,l),
(364,-6,l,{
name = hr01;
}),
(564,-6,o),
(708,110,o),
(708,363,cs),
(708,597,o),
(561,712,o),
(380,712,c),
(176,696,l),
(82,700,o),
(65,700,o),
(65,700,c,{
name = hr02;
}),
(50,700,o),
(50,677,o),
(50,670,c),
(134,648,l)
);
},
{
closed = 1;
nodes = (
(319,41,o),
(262,49,o),
(208,61,c),
(218,350,l),
(208,639,l),
(271,654,o),
(331,658,o),
(374,658,cs,{
name = hr03;
}),
(514,658,o),
(620,557,o),
(620,352,cs),
(620,140,o),
(514,41,o),
(374,41,cs)
);
},
{
closed = 1;
nodes = (
(278,929,l),
(251,912,l),
(291,849,o),
(321,796,o),
(340,753,c),
(385,753,l),
(411,796,o),
(448,849,o),
(496,912,c),
(471,929,l),
(368,827,l,{
name = hr00;
})
);
}
);
};
layerId = master01;
shapes = (
{
ref = D;
},
{
pos = (202,0);
ref = caroncomb.case;
}
);
width = 748;
}
);
unicode = 270;
},
{
glyphname = Dcroat;
kernRight = D;
lastChange = "2023-02-24 13:31:00 +0000";
layers = (
{
background = {
shapes = (
{
closed = 1;
nodes = (
(134,52,l),
(50,30,l),
(50,23,o),
(50,0,o),
(65,0,c),
(176,8,l),
(364,-6,l,{
name = hr01;
}),
(564,-6,o),
(708,110,o),
(708,363,cs),
(708,597,o),
(561,712,o),
(380,712,c),
(176,696,l),
(82,700,o),
(65,700,o),
(65,700,c,{
name = hr02;
}),
(50,700,o),
(50,677,o),
(50,670,c),
(134,648,l)
);
},
{
closed = 1;
nodes = (
(319,41,o),
(262,49,o),
(208,61,c),
(218,350,l),
(208,639,l),
(271,654,o),
(331,658,o),
(374,658,cs,{
name = hr03;
}),
(514,658,o),
(620,557,o),
(620,352,cs),
(620,140,o),
(514,41,o),
(374,41,cs)
);
},
{
closed = 1;
nodes = (
(19,371,l),
(19,338,l),
(397,338,l),
(397,371,l,{
name = hr00;
})
);
}
);
};
layerId = master01;
shapes = (
{
ref = Eth;
}
);
width = 748;
}
);
unicode = 272;
},
{
glyphname = E;
lastChange = "2023-02-24 11:13:39 +0000";
layers = (
{
anchors = (
{
name = bottom;
pos = (301,0);
},
{
name = ogonek;
pos = (525,4);
},
{
name = top;
pos = (320,700);
},
{
name = topleft;
pos = (20,700);
}
);
background = {
shapes = (
{
closed = 1;
nodes = (
(473,541,o),
(508,541,o),
(516,541,c),
(540,690,l),
(539,700,o),
(526,700,o),
(508,700,cs,{
name = hr01;
}),
(168,696,l),
(74,700,o),
(65,700,o),
(65,700,c),
(50,700,o),
(50,677,o),
(50,670,c),
(134,648,l),
(134,52,l),
(50,30,l),
(50,23,o),
(50,0,o),
(65,0,c),
(170,8,l),
(514,0,ls),
(534,0,o),
(542,1,o),
(543,12,cs),
(551,163,l),
(544,163,o),
(509,163,o),
(509,149,c),
(483,55,l,{
name = hr02;
}),
(208,55,l),
(217,326,l),
(473,339,l),
(473,382,l),
(217,382,l),
(208,646,l),
(473,649,l),
(473,555,ls)
);
}
);
};
layerId = master01;
shapes = (
{
closed = 1;
nodes = (
(473,541,o),
(508,541,o),
(516,541,c),
(540,690,l),
(539,700,o),
(526,700,o),
(508,700,cs,{
name = hr01;
}),
(168,696,l),
(74,700,o),
(65,700,o),
(65,700,c),
(50,700,o),
(50,677,o),
(50,670,c),
(134,648,l),
(134,52,l),
(50,30,l),
(50,23,o),
(50,0,o),
(65,0,c),
(170,8,l),
(514,0,ls),
(534,0,o),
(542,1,o),
(543,12,cs),
(551,163,l),
(544,163,o),
(509,163,o),
(509,149,c),
(483,55,l,{
name = hr02;
}),
(208,55,l),
(217,326,l),
(473,339,l),
(473,382,l),
(217,382,l),
(208,646,l),
(473,649,l),
(473,555,ls)
);
}
);
width = 601;
}
);
unicode = 69;
},
{
glyphname = Eacute;
lastChange = "2023-02-24 11:13:39 +0000";
layers = (
{
background = {
shapes = (
{
closed = 1;
nodes = (
(463,541,o),
(498,541,o),
(506,541,c),
(530,690,l),
(529,700,o),
(516,700,o),
(498,700,cs,{
name = hr01;
}),
(158,696,l),
(64,700,o),
(55,700,o),
(55,700,c),
(40,700,o),
(40,677,o),
(40,670,c),
(124,648,l),
(124,52,l),
(40,30,l),
(40,23,o),
(40,0,o),
(55,0,c),
(160,8,l),
(504,0,ls),
(524,0,o),
(532,1,o),
(533,12,cs),
(541,163,l),
(534,163,o),
(499,163,o),
(499,149,c),
(473,55,l,{
name = hr02;
}),
(198,55,l),
(207,326,l),
(463,339,l),
(463,382,l),
(207,382,l),
(198,646,l),
(463,649,l),
(463,555,ls)
);
},
{
closed = 1;
nodes = (
(229,772,o),
(327,802,o),
(394,845,cs),
(398,847,o),
(399,852,o),
(399,857,cs),
(399,877,o),
(379,918,o),
(374,924,c),
(279,847,o),
(182,781,o),
(182,781,c),
(193,762,l,{
name = hr00;
})
);
}
);
};
layerId = master01;
shapes = (
{
ref = E;
},
{
pos = (161,0);
ref = acutecomb.case;
}
);
width = 601;
}
);
unicode = 201;
},
{
glyphname = Ebreve;
lastChange = "2023-02-24 10:54:42 +0000";
layers = (
{
background = {
shapes = (
{
closed = 1;
nodes = (
(473,541,o),
(508,541,o),
(516,541,c),
(540,690,l),
(539,700,o),
(526,700,o),
(508,700,cs,{
name = hr01;
}),
(168,696,l),
(74,700,o),
(65,700,o),
(65,700,c),
(50,700,o),
(50,677,o),
(50,670,c),
(134,648,l),
(134,52,l),
(50,30,l),
(50,23,o),
(50,0,o),
(65,0,c),
(170,8,l),
(514,0,ls),
(534,0,o),
(542,1,o),
(543,12,cs),
(551,163,l),
(544,163,o),
(509,163,o),
(509,149,c),
(483,55,l,{
name = hr02;
}),
(208,55,l),
(217,326,l),
(473,339,l),
(473,382,l),
(217,382,l),
(208,646,l),
(473,649,l),
(473,555,ls)
);
},
{
closed = 1;
nodes = (
(292,821,o),
(263,857,o),
(241,913,c),
(207,905,l),
(239,808,o),
(270,754,o),
(330,754,cs),
(390,754,o),
(421,808,o),
(453,905,c),
(419,913,l),
(397,857,o),
(368,821,o),
(330,821,cs,{
name = hr00;
})
);
}
);
};
layerId = master01;
shapes = (
{
ref = E;
},
{
pos = (154,0);
ref = brevecomb.case;
}
);
width = 601;
}
);
unicode = 276;
},
{
glyphname = Ecaron;
lastChange = "2023-02-24 11:13:39 +0000";
layers = (
{
background = {
shapes = (
{
closed = 1;
nodes = (
(473,541,o),
(508,541,o),
(516,541,c),
(540,690,l),
(539,700,o),
(526,700,o),
(508,700,cs,{
name = hr01;
}),
(168,696,l),
(74,700,o),
(65,700,o),
(65,700,c),
(50,700,o),
(50,677,o),
(50,670,c),
(134,648,l),
(134,52,l),
(50,30,l),
(50,23,o),
(50,0,o),
(65,0,c),
(170,8,l),
(514,0,ls),
(534,0,o),
(542,1,o),
(543,12,cs),
(551,163,l),
(544,163,o),
(509,163,o),
(509,149,c),
(483,55,l,{
name = hr02;
}),
(208,55,l),
(217,326,l),
(473,339,l),
(473,382,l),
(217,382,l),
(208,646,l),
(473,649,l),
(473,555,ls)
);
},
{
closed = 1;
nodes = (
(235,929,l),
(208,912,l),
(248,849,o),
(278,796,o),
(297,753,c),
(342,753,l),
(368,796,o),
(405,849,o),
(453,912,c),
(428,929,l),
(325,827,l,{
name = hr00;
})
);
}
);
};
layerId = master01;
shapes = (
{
ref = E;
},
{
pos = (148,0);
ref = caroncomb.case;
}
);
width = 601;
}
);
unicode = 282;
},
{
glyphname = Ecircumflex;
lastChange = "2023-02-24 11:13:39 +0000";
layers = (
{
background = {
shapes = (
{
closed = 1;
nodes = (
(463,541,o),
(498,541,o),
(506,541,c),
(530,690,l),
(529,700,o),
(516,700,o),
(498,700,cs,{
name = hr01;
}),
(158,696,l),
(64,700,o),
(55,700,o),
(55,700,c),
(40,700,o),
(40,677,o),
(40,670,c),
(124,648,l),
(124,52,l),
(40,30,l),
(40,23,o),
(40,0,o),
(55,0,c),
(160,8,l),
(504,0,ls),
(524,0,o),
(532,1,o),
(533,12,cs),
(541,163,l),
(534,163,o),
(499,163,o),
(499,149,c),
(473,55,l,{
name = hr02;
}),
(198,55,l),
(207,326,l),
(463,339,l),
(463,382,l),
(207,382,l),
(198,646,l),
(463,649,l),
(463,555,ls)
);
},
{
closed = 1;
nodes = (
(387,753,l),
(413,770,l),
(369,833,o),
(336,886,o),
(313,929,c),
(268,929,l),
(245,886,o),
(212,833,o),
(168,770,c),
(194,753,l),
(291,855,l,{
name = hr00;
})
);
}
);
};
layerId = master01;
shapes = (
{
ref = E;
},
{
pos = (152,0);
ref = circumflexcomb.case;
}
);
width = 601;
}
);
unicode = 202;
},
{
glyphname = Edieresis;
lastChange = "2023-02-24 11:13:39 +0000";
layers = (
{
background = {
shapes = (
{
closed = 1;
nodes = (
(463,541,o),
(498,541,o),
(506,541,c),
(530,690,l),
(529,700,o),
(516,700,o),
(498,700,cs,{
name = hr01;
}),
(158,696,l),
(64,700,o),
(55,700,o),
(55,700,c),
(40,700,o),
(40,677,o),
(40,670,c),
(124,648,l),
(124,52,l),
(40,30,l),
(40,23,o),
(40,0,o),
(55,0,c),
(160,8,l),
(504,0,ls),
(524,0,o),
(532,1,o),
(533,12,cs),
(541,163,l),
(534,163,o),
(499,163,o),
(499,149,c),
(473,55,l,{
name = hr02;
}),
(198,55,l),
(207,326,l),
(463,339,l),
(463,382,l),
(207,382,l),
(198,646,l),
(463,649,l),
(463,555,ls)
);
},
{
closed = 1;
nodes = (
(252,903,o),
(260,877,o),
(260,850,cs),
(260,825,o),
(255,800,o),
(254,797,c),
(254,797,o),
(222,788,o),
(205,788,cs),
(179,788,o),
(173,814,o),
(173,840,cs),
(173,867,o),
(179,893,o),
(180,896,c),
(180,896,o),
(213,903,o),
(229,903,cs,{
name = hr00;
})
);
},
{
closed = 1;
nodes = (
(400,903,o),
(408,877,o),
(408,850,cs),
(408,825,o),
(403,800,o),
(402,797,c),
(402,797,o),
(370,788,o),
(353,788,cs),
(327,788,o),
(321,814,o),
(321,840,cs),
(321,867,o),
(327,893,o),
(328,896,c),
(328,896,o),
(361,903,o),
(377,903,cs)
);
}
);
};
layerId = master01;
shapes = (
{
ref = E;
},
{
pos = (130,0);
ref = dieresiscomb.case;
}
);
width = 601;
}
);
unicode = 203;
},
{
glyphname = Edotaccent;
lastChange = "2023-02-24 11:13:39 +0000";
layers = (
{
background = {
shapes = (
{
closed = 1;
nodes = (
(473,541,o),
(508,541,o),
(516,541,c),
(540,690,l),
(539,700,o),
(526,700,o),
(508,700,cs,{
name = hr01;
}),
(168,696,l),
(74,700,o),
(65,700,o),
(65,700,c),
(50,700,o),
(50,677,o),
(50,670,c),
(134,648,l),
(134,52,l),
(50,30,l),
(50,23,o),
(50,0,o),
(65,0,c),
(170,8,l),
(514,0,ls),
(534,0,o),
(542,1,o),
(543,12,cs),
(551,163,l),
(544,163,o),
(509,163,o),
(509,149,c),
(483,55,l,{
name = hr02;
}),
(208,55,l),
(217,326,l),
(473,339,l),
(473,382,l),
(217,382,l),
(208,646,l),
(473,649,l),
(473,555,ls)
);
},
{
closed = 1;
nodes = (
(324,906,o),
(292,899,o),
(292,899,c),
(292,899,o),
(284,869,o),
(284,840,cs),
(284,813,o),
(291,785,o),
(319,785,cs),
(339,785,o),
(370,794,o),
(370,794,c),
(370,794,o),
(377,823,o),
(377,850,cs),
(377,879,o),
(368,906,o),
(343,906,cs,{
name = hr00;
})
);
}
);
};
layerId = master01;
shapes = (
{
ref = E;
},
{
pos = (211,0);
ref = dotaccentcomb.case;
}
);
width = 601;
}
);
unicode = 278;
},
{
glyphname = Egrave;
lastChange = "2023-02-24 11:13:39 +0000";
layers = (
{
background = {
shapes = (
{
closed = 1;
nodes = (
(463,541,o),
(498,541,o),
(506,541,c),
(530,690,l),
(529,700,o),
(516,700,o),
(498,700,cs,{
name = hr01;
}),
(158,696,l),
(64,700,o),
(55,700,o),
(55,700,c),
(40,700,o),
(40,677,o),
(40,670,c),
(124,648,l),
(124,52,l),
(40,30,l),
(40,23,o),
(40,0,o),
(55,0,c),
(160,8,l),
(504,0,ls),
(524,0,o),
(532,1,o),
(533,12,cs),
(541,163,l),
(534,163,o),
(499,163,o),
(499,149,c),
(473,55,l,{
name = hr02;
}),
(198,55,l),
(207,326,l),
(463,339,l),
(463,382,l),
(207,382,l),
(198,646,l),
(463,649,l),
(463,555,ls)
);
},
{
closed = 1;
nodes = (
(399,781,o),
(302,847,o),
(207,924,c),
(202,918,o),
(182,877,o),
(182,857,cs),
(182,852,o),
(183,847,o),
(187,845,cs),
(254,802,o),
(352,772,o),
(388,762,c),
(399,781,l,{
name = hr00;
})
);
}
);
};
layerId = master01;
shapes = (
{
ref = E;
},
{
pos = (161,0);
ref = gravecomb.case;
}
);
width = 601;
}
);
unicode = 200;
},
{
glyphname = Emacron;
lastChange = "2023-02-24 11:13:39 +0000";
layers = (
{
background = {
shapes = (
{
closed = 1;
nodes = (
(473,541,o),
(508,541,o),
(516,541,c),
(540,690,l),
(539,700,o),
(526,700,o),
(508,700,cs,{
name = hr01;
}),
(168,696,l),
(74,700,o),
(65,700,o),
(65,700,c),
(50,700,o),
(50,677,o),
(50,670,c),
(134,648,l),
(134,52,l),
(50,30,l),
(50,23,o),
(50,0,o),
(65,0,c),
(170,8,l),
(514,0,ls),
(534,0,o),
(542,1,o),
(543,12,cs),
(551,163,l),
(544,163,o),
(509,163,o),
(509,149,c),
(483,55,l,{
name = hr02;
}),
(208,55,l),
(217,326,l),
(473,339,l),
(473,382,l),
(217,382,l),
(208,646,l),
(473,649,l),
(473,555,ls)
);
},
{
closed = 1;
nodes = (
(471,814,l),
(471,877,l),
(190,877,l),
(190,814,l,{
name = hr00;
})
);
}
);
};
layerId = master01;
shapes = (
{
ref = E;
},
{
pos = (109,0);
ref = macroncomb.case;
}
);
width = 601;
}
);
unicode = 274;
},
{
glyphname = Eogonek;
lastChange = "2023-02-24 11:13:39 +0000";
layers = (
{
anchors = (
{
name = top;
pos = (301,700);
}
);
background = {
shapes = (
{
closed = 1;
nodes = (
(473,541,o),
(508,541,o),
(516,541,c),
(540,690,l),
(539,700,o),
(526,700,o),
(508,700,cs,{
name = hr01;
}),
(168,696,l),
(74,700,o),
(65,700,o),
(65,700,c),
(50,700,o),
(50,677,o),
(50,670,c),
(134,648,l),
(134,52,l),
(50,30,l),
(50,23,o),
(50,0,o),
(65,0,c),
(170,8,l),
(514,0,ls),
(534,0,o),
(542,1,o),
(543,12,cs),
(551,163,l),
(544,163,o),
(509,163,o),
(509,149,c),
(483,55,l,{
name = hr02;
}),
(208,55,l),
(217,326,l),
(473,339,l),
(473,382,l),
(217,382,l),
(208,646,l),
(473,649,l),
(473,555,ls)
);
},
{
closed = 1;
nodes = (
(459,15,l),
(371,-23,o),
(331,-87,o),
(331,-141,cs),
(331,-191,o),
(367,-233,o),
(434,-233,cs),
(473,-233,o),
(502,-218,o),
(520,-202,c),
(517,-188,o),
(512,-180,o),
(503,-172,c),
(487,-183,o),
(467,-189,o),
(448,-189,cs),
(418,-189,o),
(391,-173,o),
(391,-134,cs),
(391,-86,o),
(429,-22,o),
(517,9,c),
(517,15,l,{
name = hr00;
})
);
}
);
};
layerId = master01;
shapes = (
{
ref = E;
},
{
pos = (199,4);
ref = ogonekcomb;
}
);
width = 601;
}
);
unicode = 280;
},
{
glyphname = F;
kernRight = F;
lastChange = "2023-02-24 13:31:09 +0000";
layers = (
{
anchors = (
{
name = bottom;
pos = (275,0);
},
{
name = top;
pos = (275,700);
}
);
background = {
shapes = (
{
closed = 1;
nodes = (
(443,541,o),
(478,541,o),
(486,541,c),
(510,690,l),
(509,700,o),
(496,700,o),
(478,700,cs,{
name = hr01;
}),
(168,696,l),
(74,700,o),
(65,700,o),
(65,700,c),
(50,700,o),
(50,677,o),
(50,670,c),
(134,648,l),
(134,52,l),
(50,30,l),
(50,23,o),
(50,0,o),
(65,0,cs),
(65,0,o),
(74,0,o),
(168,4,c),
(261,0,o),
(304,0,o),
(304,0,c),
(319,0,o),
(319,23,o),
(319,30,c),
(208,52,l),
(216,310,l),
(463,323,l),
(463,366,l),
(217,367,l),
(208,646,l),
(443,649,l),
(443,555,ls)
);
}
);
};
layerId = master01;
shapes = (
{
closed = 1;
nodes = (
(443,541,o),
(478,541,o),
(486,541,c),
(510,690,l),
(509,700,o),
(496,700,o),
(478,700,cs,{
name = hr01;
}),
(168,696,l),
(74,700,o),
(65,700,o),
(65,700,c),
(50,700,o),
(50,677,o),
(50,670,c),
(134,648,l),
(134,52,l),
(50,30,l),
(50,23,o),
(50,0,o),
(65,0,cs),
(65,0,o),
(74,0,o),
(168,4,c),
(261,0,o),
(304,0,o),
(304,0,c),
(319,0,o),
(319,23,o),
(319,30,c),
(208,52,l),
(216,310,l),
(463,323,l),
(463,366,l),
(217,367,l),
(208,646,l),
(443,649,l),
(443,555,ls)
);
}
);
width = 550;
}
);
unicode = 70;
},
{
glyphname = G;
kernLeft = C;
lastChange = "2023-02-24 13:30:51 +0000";
layers = (
{
anchors = (
{
name = bottom;
pos = (333,0);
},
{
name = top;
pos = (373,700);
}
);
background = {
shapes = (
{
closed = 1;
nodes = (
(596,360,l),
(334,360,l),
(334,317,l),
(519,306,l),
(536,97,l),
(492,64,o),
(423,41,o),
(363,41,cs),
(230,41,o),
(128,143,o),
(128,352,cs),
(128,478,o),
(167,583,o),
(229,629,c),
(268,642,o),
(324,653,o),
(373,653,cs),
(426,653,o),
(492,641,o),
(529,628,c),
(529,517,ls),
(529,503,o),
(566,503,o),
(574,503,c),
(600,652,l),
(538,691,o),
(463,712,o),
(379,712,cs),
(192,712,o),
(40,588,o),
(40,354,cs),
(40,109,o),
(174,-12,o),
(353,-12,cs),
(440,-12,o),
(523,13,o),
(605,72,c),
(596,111,l,{
name = hr00;
})
);
}
);
};
layerId = master01;
shapes = (
{
closed = 1;
nodes = (
(596,360,l),
(334,360,l),
(334,317,l),
(519,306,l),
(536,97,l),
(492,64,o),
(423,41,o),
(363,41,cs),
(230,41,o),
(128,143,o),
(128,352,cs),
(128,478,o),
(167,583,o),
(229,629,c),
(268,642,o),
(324,653,o),
(373,653,cs),
(426,653,o),
(492,641,o),
(529,628,c),
(529,517,ls),
(529,503,o),
(566,503,o),
(574,503,c),
(600,652,l),
(538,691,o),
(463,712,o),
(379,712,cs),
(192,712,o),
(40,588,o),
(40,354,cs),
(40,109,o),
(174,-12,o),
(353,-12,cs),
(440,-12,o),
(523,13,o),
(605,72,c),
(596,111,l,{
name = hr00;
})
);
}
);
width = 665;
}
);
unicode = 71;
},
{
glyphname = Gbreve;
kernLeft = C;
lastChange = "2023-02-24 13:30:51 +0000";
layers = (
{
background = {
shapes = (
{
closed = 1;
nodes = (
(596,360,l),
(334,360,l),
(334,317,l),
(519,306,l),
(536,97,l),
(492,64,o),
(423,41,o),
(363,41,cs),
(230,41,o),
(128,143,o),
(128,352,cs),
(128,478,o),
(167,583,o),
(229,629,c),
(268,642,o),
(324,653,o),
(373,653,cs),
(426,653,o),
(492,641,o),
(529,628,c),
(529,517,ls),
(529,503,o),
(566,503,o),
(574,503,c),
(600,652,l),
(538,691,o),
(463,712,o),
(379,712,cs),
(192,712,o),
(40,588,o),
(40,354,cs),
(40,109,o),
(174,-12,o),
(353,-12,cs),
(440,-12,o),
(523,13,o),
(605,72,c),
(596,111,l,{
name = hr00;
})
);
},
{
closed = 1;
nodes = (
(334,821,o),
(305,857,o),
(283,913,c),
(249,905,l),
(281,808,o),
(312,754,o),
(372,754,cs),
(432,754,o),
(463,808,o),
(495,905,c),
(461,913,l),
(439,857,o),
(410,821,o),
(372,821,cs,{
name = hr00;
})
);
}
);
};
layerId = master01;
shapes = (
{
ref = G;
},
{
pos = (207,0);
ref = brevecomb.case;
}
);
width = 665;
}
);
unicode = 286;
},
{
glyphname = Gcircumflex;
kernLeft = C;
lastChange = "2023-02-24 13:30:51 +0000";
layers = (
{
background = {
shapes = (
{
closed = 1;
nodes = (
(596,360,l),
(334,360,l),
(334,317,l),
(519,306,l),
(536,97,l),
(492,64,o),
(423,41,o),
(363,41,cs),
(230,41,o),
(128,143,o),
(128,352,cs),
(128,478,o),
(167,583,o),
(229,629,c),
(268,642,o),
(324,653,o),
(373,653,cs),
(426,653,o),
(492,641,o),
(529,628,c),
(529,517,ls),
(529,503,o),
(566,503,o),
(574,503,c),
(600,652,l),
(538,691,o),
(463,712,o),
(379,712,cs),
(192,712,o),
(40,588,o),
(40,354,cs),
(40,109,o),
(174,-12,o),
(353,-12,cs),
(440,-12,o),
(523,13,o),
(605,72,c),
(596,111,l,{
name = hr00;
})
);
},
{
closed = 1;
nodes = (
(469,753,l),
(495,770,l),
(451,833,o),
(418,886,o),
(395,929,c),
(350,929,l),
(327,886,o),
(294,833,o),
(250,770,c),
(276,753,l),
(373,855,l,{
name = hr00;
})
);
}
);
};
layerId = master01;
shapes = (
{
ref = G;
},
{
pos = (205,0);
ref = circumflexcomb.case;
}
);
width = 665;
}
);
unicode = 284;
},
{
glyphname = Gcommaaccent;
kernLeft = C;
lastChange = "2023-02-24 13:30:51 +0000";
layers = (
{
background = {
shapes = (
{
closed = 1;
nodes = (
(596,360,l),
(334,360,l),
(334,317,l),
(519,306,l),
(536,97,l),
(492,64,o),
(423,41,o),
(363,41,cs),
(230,41,o),
(128,143,o),
(128,352,cs),
(128,478,o),
(167,583,o),
(229,629,c),
(268,642,o),
(324,653,o),
(373,653,cs),
(426,653,o),
(492,641,o),
(529,628,c),
(529,517,ls),
(529,503,o),
(566,503,o),
(574,503,c),
(600,652,l),
(538,691,o),
(463,712,o),
(379,712,cs),
(192,712,o),
(40,588,o),
(40,354,cs),
(40,109,o),
(174,-12,o),
(353,-12,cs),
(440,-12,o),
(523,13,o),
(605,72,c),
(596,111,l,{
name = hr00;
})
);
},
{
closed = 1;
nodes = (
(364,-285,o),
(411,-226,o),
(411,-159,cs),
(411,-95,o),
(392,-50,o),
(365,-50,cs),
(347,-50,o),
(324,-53,o),
(306,-57,c),
(301,-81,o),
(298,-103,o),
(298,-122,cs),
(298,-162,o),
(310,-182,o),
(335,-182,cs),
(341,-182,o),
(344,-182,o),
(351,-181,c),
(351,-186,ls),
(351,-226,o),
(327,-259,o),
(287,-277,c),
(299,-307,l,{
name = hr00;
})
);
}
);
};
layerId = master01;
shapes = (
{
ref = G;
},
{
pos = (209,0);
ref = commaaccentcomb;
}
);
width = 665;
}
);
unicode = 290;
},
{
glyphname = Gdotaccent;
kernLeft = C;
lastChange = "2023-02-24 13:30:51 +0000";
layers = (
{
background = {
shapes = (
{
closed = 1;
nodes = (
(596,360,l),
(334,360,l),
(334,317,l),
(519,306,l),
(536,97,l),
(492,64,o),
(423,41,o),
(363,41,cs),
(230,41,o),
(128,143,o),
(128,352,cs),
(128,478,o),
(167,583,o),
(229,629,c),
(268,642,o),
(324,653,o),
(373,653,cs),
(426,653,o),
(492,641,o),
(529,628,c),
(529,517,ls),
(529,503,o),
(566,503,o),
(574,503,c),
(600,652,l),
(538,691,o),
(463,712,o),
(379,712,cs),
(192,712,o),
(40,588,o),
(40,354,cs),
(40,109,o),
(174,-12,o),
(353,-12,cs),
(440,-12,o),
(523,13,o),
(605,72,c),
(596,111,l,{
name = hr00;
})
);
},
{
closed = 1;
nodes = (
(366,906,o),
(334,899,o),
(334,899,c),
(334,899,o),
(326,869,o),
(326,840,cs),
(326,813,o),
(333,785,o),
(361,785,cs),
(381,785,o),
(412,794,o),
(412,794,c),
(412,794,o),
(419,823,o),
(419,850,cs),
(419,879,o),
(410,906,o),
(385,906,cs,{
name = hr00;
})
);
}
);
};
layerId = master01;
shapes = (
{
ref = G;
},
{
pos = (264,0);
ref = dotaccentcomb.case;
}
);
width = 665;
}
);
unicode = 288;
},
{
glyphname = H;
lastChange = "2023-02-24 11:13:39 +0000";
layers = (
{
anchors = (
{
name = bottom;
pos = (395,0);
},
{
name = center;
pos = (395,350);
},
{
name = top;
pos = (395,700);
},
{
name = topleft;
pos = (20,700);
}
);
background = {
shapes = (
{
closed = 1;
nodes = (
(739,677,o),
(739,700,o),
(724,700,cs),
(724,700,o),
(715,700,o),
(621,696,c),
(528,700,o),
(516,700,o),
(516,700,c),
(501,700,o),
(501,677,o),
(501,670,c),
(581,648,l),
(572,384,l),
(217,384,l),
(208,648,l),
(288,670,l),
(288,677,o),
(288,700,o),
(273,700,cs),
(273,700,o),
(261,700,o),
(168,696,c),
(74,700,o),
(65,700,o),
(65,700,c),
(50,700,o),
(50,677,o),
(50,670,c),
(134,648,l),
(134,52,l),
(50,30,l),
(50,23,o),
(50,0,o),
(65,0,cs),
(65,0,o),
(74,0,o),
(168,4,c),
(261,0,o),
(273,0,o),
(273,0,c),
(288,0,o),
(288,23,o),
(288,30,c),
(208,52,l),
(217,326,l),
(571,340,l),
(581,52,l),
(501,30,l),
(501,23,o),
(501,0,o),
(516,0,cs),
(516,0,o),
(528,0,o),
(621,4,c),
(715,0,o),
(724,0,o),
(724,0,c),
(739,0,o),
(739,23,o),
(739,30,c),
(655,52,l),
(655,648,l),
(739,670,l,{
name = hr00;
})
);
}
);
};
layerId = master01;
shapes = (
{
closed = 1;
nodes = (
(739,677,o),
(739,700,o),
(724,700,cs),
(724,700,o),
(715,700,o),
(621,696,c),
(528,700,o),
(516,700,o),
(516,700,c),
(501,700,o),
(501,677,o),
(501,670,c),
(581,648,l),
(572,384,l),
(217,384,l),
(208,648,l),
(288,670,l),
(288,677,o),
(288,700,o),
(273,700,cs),
(273,700,o),
(261,700,o),
(168,696,c),
(74,700,o),
(65,700,o),
(65,700,c),
(50,700,o),
(50,677,o),
(50,670,c),
(134,648,l),
(134,52,l),
(50,30,l),
(50,23,o),
(50,0,o),
(65,0,cs),
(65,0,o),
(74,0,o),
(168,4,c),
(261,0,o),
(273,0,o),
(273,0,c),
(288,0,o),
(288,23,o),
(288,30,c),
(208,52,l),
(217,326,l),
(571,340,l),
(581,52,l),
(501,30,l),
(501,23,o),
(501,0,o),
(516,0,cs),
(516,0,o),
(528,0,o),
(621,4,c),
(715,0,o),
(724,0,o),
(724,0,c),
(739,0,o),
(739,23,o),
(739,30,c),
(655,52,l),
(655,648,l),
(739,670,l,{
name = hr00;
})
);
}
);
width = 789;
}
);
unicode = 72;
},
{
glyphname = Hbar;
lastChange = "2023-02-24 11:13:39 +0000";
layers = (
{
background = {
shapes = (
{
closed = 1;
nodes = (
(739,677,o),
(739,700,o),
(724,700,cs),
(724,700,o),
(715,700,o),
(621,696,c),
(528,700,o),
(516,700,o),
(516,700,c),
(501,700,o),
(501,677,o),
(501,670,c),
(581,648,l),
(572,384,l),
(217,384,l),
(208,648,l),
(288,670,l),
(288,677,o),
(288,700,o),
(273,700,cs),
(273,700,o),
(261,700,o),
(168,696,c),
(74,700,o),
(65,700,o),
(65,700,c),
(50,700,o),
(50,677,o),
(50,670,c),
(134,648,l),
(134,52,l),
(50,30,l),
(50,23,o),
(50,0,o),
(65,0,cs),
(65,0,o),
(74,0,o),
(168,4,c),
(261,0,o),
(273,0,o),
(273,0,c),
(288,0,o),
(288,23,o),
(288,30,c),
(208,52,l),
(217,326,l),
(571,340,l),
(581,52,l),
(501,30,l),
(501,23,o),
(501,0,o),
(516,0,cs),
(516,0,o),
(528,0,o),
(621,4,c),
(715,0,o),
(724,0,o),
(724,0,c),
(739,0,o),
(739,23,o),
(739,30,c),
(655,52,l),
(655,648,l),
(739,670,l,{
name = hr00;
})
);
},
{
closed = 1;
nodes = (
(54,531,l),
(54,498,l),
(734,498,l),
(734,531,l,{
name = hr00;
})
);
}
);
};
layerId = master01;
shapes = (
{
alignment = -1;
ref = H;
},
{
closed = 1;
nodes = (
(54,531,l),
(54,498,l),
(734,498,l),
(734,531,l,{
name = hr00;
})
);
}
);
width = 789;
}
);
unicode = 294;
},
{
glyphname = Hcircumflex;
lastChange = "2023-02-24 10:07:55 +0000";
layers = (
{
background = {
shapes = (
{
closed = 1;
nodes = (
(739,677,o),
(739,700,o),
(724,700,cs),
(724,700,o),
(715,700,o),
(621,696,c),
(528,700,o),
(516,700,o),
(516,700,c),
(501,700,o),
(501,677,o),
(501,670,c),
(581,648,l),
(572,384,l),
(217,384,l),
(208,648,l),
(288,670,l),
(288,677,o),
(288,700,o),
(273,700,cs),
(273,700,o),
(261,700,o),
(168,696,c),
(74,700,o),
(65,700,o),
(65,700,c),
(50,700,o),
(50,677,o),
(50,670,c),
(134,648,l),
(134,52,l),
(50,30,l),
(50,23,o),
(50,0,o),
(65,0,cs),
(65,0,o),
(74,0,o),
(168,4,c),
(261,0,o),
(273,0,o),
(273,0,c),
(288,0,o),
(288,23,o),
(288,30,c),
(208,52,l),
(217,326,l),
(571,340,l),
(581,52,l),
(501,30,l),
(501,23,o),
(501,0,o),
(516,0,cs),
(516,0,o),
(528,0,o),
(621,4,c),
(715,0,o),
(724,0,o),
(724,0,c),
(739,0,o),
(739,23,o),
(739,30,c),
(655,52,l),
(655,648,l),
(739,670,l,{
name = hr00;
})
);
},
{
closed = 1;
nodes = (
(491,753,l),
(517,770,l),
(473,833,o),
(440,886,o),
(417,929,c),
(372,929,l),
(349,886,o),
(316,833,o),
(272,770,c),
(298,753,l),
(395,855,l,{
name = hr00;
})
);
}
);
};
layerId = master01;
shapes = (
{
ref = H;
},
{
pos = (227,0);
ref = circumflexcomb.case;
}
);
width = 789;
}
);
unicode = 292;
},
{
glyphname = I;
lastChange = "2023-02-24 11:13:39 +0000";
layers = (
{
anchors = (
{
name = bottom;
pos = (173,0);
},
{
name = ogonek;
pos = (259,4);
},
{
name = top;
pos = (173,700);
},
{
name = topleft;
pos = (20,700);
}
);
background = {
shapes = (
{
closed = 1;
nodes = (
(131,350,l),
(136,52,l),
(50,30,l),
(50,23,o),
(50,0,o),
(65,0,cs),
(65,0,o),
(83,0,o),
(177,4,c),
(270,0,o),
(280,0,o),
(280,0,c),
(295,0,o),
(295,23,o),
(295,30,c),
(209,52,l),
(214,350,l),
(209,648,l),
(295,670,l),
(295,677,o),
(295,700,o),
(280,700,cs),
(280,700,o),
(270,700,o),
(177,696,c),
(83,700,o),
(65,700,o),
(65,700,c),
(50,700,o),
(50,677,o),
(50,670,c),
(136,648,l,{
name = hr00;
})
);
}
);
};
layerId = master01;
shapes = (
{
closed = 1;
nodes = (
(131,350,l),
(136,52,l),
(50,30,l),
(50,23,o),
(50,0,o),
(65,0,cs),
(65,0,o),
(83,0,o),
(177,4,c),
(270,0,o),
(280,0,o),
(280,0,c),
(295,0,o),
(295,23,o),
(295,30,c),
(209,52,l),
(214,350,l),
(209,648,l),
(295,670,l),
(295,677,o),
(295,700,o),
(280,700,cs),
(280,700,o),
(270,700,o),
(177,696,c),
(83,700,o),
(65,700,o),
(65,700,c),
(50,700,o),
(50,677,o),
(50,670,c),
(136,648,l,{
name = hr00;
})
);
}
);
width = 345;
}
);
unicode = 73;
},
{
glyphname = IJ;
lastChange = "2023-02-24 11:13:39 +0000";
layers = (
{
background = {
shapes = (
{
closed = 1;
nodes = (
(131,350,l),
(136,52,l),
(50,30,l),
(50,23,o),
(50,0,o),
(65,0,cs),
(65,0,o),
(83,0,o),
(177,4,c),
(270,0,o),
(280,0,o),
(280,0,c),
(295,0,o),
(295,23,o),
(295,30,c),
(209,52,l),
(214,350,l),
(209,648,l),
(295,670,l),
(295,677,o),
(295,700,o),
(280,700,cs),
(280,700,o),
(270,700,o),
(177,696,c),
(83,700,o),
(65,700,o),
(65,700,c),
(50,700,o),
(50,677,o),
(50,670,c),
(136,648,l,{
name = hr00;
})
);
},
{
closed = 1;
nodes = (
(478,39,o),
(423,-75,o),
(341,-183,c),
(371,-204,l),
(483,-80,o),
(557,48,o),
(557,186,cs),
(557,648,l),
(641,669,l),
(641,676,o),
(641,700,o),
(626,700,cs),
(626,700,o),
(609,700,o),
(515,696,c),
(422,700,o),
(399,700,o),
(399,700,c),
(383,700,o),
(383,676,o),
(383,670,c),
(478,648,l),
(478,159,ls,{
name = hr00;
})
);
}
);
};
layerId = master01;
shapes = (
{
ref = I;
},
{
pos = (345,0);
ref = J;
}
);
width = 660;
}
);
unicode = 306;
},
{
glyphname = Iacute;
lastChange = "2023-02-24 11:13:39 +0000";
layers = (
{
background = {
shapes = (
{
closed = 1;
nodes = (
(120,350,l),
(125,52,l),
(39,30,l),
(39,23,o),
(39,0,o),
(54,0,cs),
(54,0,o),
(72,0,o),
(166,4,c),
(259,0,o),
(269,0,o),
(269,0,c),
(284,0,o),
(284,23,o),
(284,30,c),
(198,52,l),
(203,350,l),
(198,648,l),
(284,670,l),
(284,677,o),
(284,700,o),
(269,700,cs),
(269,700,o),
(259,700,o),
(166,696,c),
(72,700,o),
(54,700,o),
(54,700,c),
(39,700,o),
(39,677,o),
(39,670,c),
(125,648,l,{
name = hr00;
})
);
},
{
closed = 1;
nodes = (
(102,772,o),
(200,802,o),
(267,845,cs),
(271,847,o),
(272,852,o),
(272,857,cs),
(272,877,o),
(252,918,o),
(247,924,c),
(152,847,o),
(55,781,o),
(55,781,c),
(66,762,l,{
name = hr00;
})
);
}
);
};
layerId = master01;
shapes = (
{
ref = I;
},
{
pos = (14,0);
ref = acutecomb.case;
}
);
width = 345;
}
);
unicode = 205;
},
{
glyphname = Ibreve;
lastChange = "2023-02-24 10:07:55 +0000";
layers = (
{
background = {
shapes = (
{
closed = 1;
nodes = (
(131,350,l),
(136,52,l),
(50,30,l),
(50,23,o),
(50,0,o),
(65,0,cs),
(65,0,o),
(83,0,o),
(177,4,c),
(270,0,o),
(280,0,o),
(280,0,c),
(295,0,o),
(295,23,o),
(295,30,c),
(209,52,l),
(214,350,l),
(209,648,l),
(295,670,l),
(295,677,o),
(295,700,o),
(280,700,cs),
(280,700,o),
(270,700,o),
(177,696,c),
(83,700,o),
(65,700,o),
(65,700,c),
(50,700,o),
(50,677,o),
(50,670,c),
(136,648,l,{
name = hr00;
})
);
},
{
closed = 1;
nodes = (
(134,821,o),
(105,857,o),
(83,913,c),
(49,905,l),
(81,808,o),
(112,754,o),
(172,754,cs),
(232,754,o),
(263,808,o),
(295,905,c),
(261,913,l),
(239,857,o),
(210,821,o),
(172,821,cs,{
name = hr00;
})
);
}
);
};
layerId = master01;
shapes = (
{
ref = I;
},
{
pos = (7,0);
ref = brevecomb.case;
}
);
width = 345;
}
);
unicode = 300;
},
{
glyphname = Icircumflex;
lastChange = "2023-02-24 11:13:39 +0000";
layers = (
{
background = {
shapes = (
{
closed = 1;
nodes = (
(120,350,l),
(125,52,l),
(39,30,l),
(39,23,o),
(39,0,o),
(54,0,cs),
(54,0,o),
(72,0,o),
(166,4,c),
(259,0,o),
(269,0,o),
(269,0,c),
(284,0,o),
(284,23,o),
(284,30,c),
(198,52,l),
(203,350,l),
(198,648,l),
(284,670,l),
(284,677,o),
(284,700,o),
(269,700,cs),
(269,700,o),
(259,700,o),
(166,696,c),
(72,700,o),
(54,700,o),
(54,700,c),
(39,700,o),
(39,677,o),
(39,670,c),
(125,648,l,{
name = hr00;
})
);
},
{
closed = 1;
nodes = (
(260,753,l),
(286,770,l),
(242,833,o),
(209,886,o),
(186,929,c),
(141,929,l),
(118,886,o),
(85,833,o),
(41,770,c),
(67,753,l),
(164,855,l,{
name = hr00;
})
);
}
);
};
layerId = master01;
shapes = (
{
ref = I;
},
{
pos = (5,0);
ref = circumflexcomb.case;
}
);
width = 345;
}
);
unicode = 206;
},
{
glyphname = Idieresis;
lastChange = "2023-02-24 11:13:39 +0000";
layers = (
{
background = {
shapes = (
{
closed = 1;
nodes = (
(120,350,l),
(125,52,l),
(39,30,l),
(39,23,o),
(39,0,o),
(54,0,cs),
(54,0,o),
(72,0,o),
(166,4,c),
(259,0,o),
(269,0,o),
(269,0,c),
(284,0,o),
(284,23,o),
(284,30,c),
(198,52,l),
(203,350,l),
(198,648,l),
(284,670,l),
(284,677,o),
(284,700,o),
(269,700,cs),
(269,700,o),
(259,700,o),
(166,696,c),
(72,700,o),
(54,700,o),
(54,700,c),
(39,700,o),
(39,677,o),
(39,670,c),
(125,648,l,{
name = hr00;
})
);
},
{
closed = 1;
nodes = (
(125,903,o),
(133,877,o),
(133,850,cs),
(133,825,o),
(128,800,o),
(127,797,c),
(127,797,o),
(95,788,o),
(78,788,cs),
(52,788,o),
(46,814,o),
(46,840,cs),
(46,867,o),
(52,893,o),
(53,896,c),
(53,896,o),
(86,903,o),
(102,903,cs,{
name = hr00;
})
);
},
{
closed = 1;
nodes = (
(273,903,o),
(281,877,o),
(281,850,cs),
(281,825,o),
(276,800,o),
(275,797,c),
(275,797,o),
(243,788,o),
(226,788,cs),
(200,788,o),
(194,814,o),
(194,840,cs),
(194,867,o),
(200,893,o),
(201,896,c),
(201,896,o),
(234,903,o),
(250,903,cs)
);
}
);
};
layerId = master01;
shapes = (
{
ref = I;
},
{
pos = (-17,0);
ref = dieresiscomb.case;
}
);
width = 345;
}
);
unicode = 207;
},
{
glyphname = Idotaccent;
lastChange = "2023-02-24 11:13:39 +0000";
layers = (
{
background = {
shapes = (
{
closed = 1;
nodes = (
(131,350,l),
(136,52,l),
(50,30,l),
(50,23,o),
(50,0,o),
(65,0,cs),
(65,0,o),
(83,0,o),
(177,4,c),
(270,0,o),
(280,0,o),
(280,0,c),
(295,0,o),
(295,23,o),
(295,30,c),
(209,52,l),
(214,350,l),
(209,648,l),
(295,670,l),
(295,677,o),
(295,700,o),
(280,700,cs),
(280,700,o),
(270,700,o),
(177,696,c),
(83,700,o),
(65,700,o),
(65,700,c),
(50,700,o),
(50,677,o),
(50,670,c),
(136,648,l,{
name = hr00;
})
);
},
{
closed = 1;
nodes = (
(166,906,o),
(134,899,o),
(134,899,c),
(134,899,o),
(126,869,o),
(126,840,cs),
(126,813,o),
(133,785,o),
(161,785,cs),
(181,785,o),
(212,794,o),
(212,794,c),
(212,794,o),
(219,823,o),
(219,850,cs),
(219,879,o),
(210,906,o),
(185,906,cs,{
name = hr00;
})
);
}
);
};
layerId = master01;
shapes = (
{
ref = I;
},
{
pos = (64,0);
ref = dotaccentcomb.case;
}
);
width = 345;
}
);
unicode = 304;
},
{
glyphname = Igrave;
lastChange = "2023-02-24 11:13:39 +0000";
layers = (
{
background = {
shapes = (
{
closed = 1;
nodes = (
(120,350,l),
(125,52,l),
(39,30,l),
(39,23,o),
(39,0,o),
(54,0,cs),
(54,0,o),
(72,0,o),
(166,4,c),
(259,0,o),
(269,0,o),
(269,0,c),
(284,0,o),
(284,23,o),
(284,30,c),
(198,52,l),
(203,350,l),
(198,648,l),
(284,670,l),
(284,677,o),
(284,700,o),
(269,700,cs),
(269,700,o),
(259,700,o),
(166,696,c),
(72,700,o),
(54,700,o),
(54,700,c),
(39,700,o),
(39,677,o),
(39,670,c),
(125,648,l,{
name = hr00;
})
);
},
{
closed = 1;
nodes = (
(272,781,o),
(175,847,o),
(80,924,c),
(75,918,o),
(55,877,o),
(55,857,cs),
(55,852,o),
(56,847,o),
(60,845,cs),
(127,802,o),
(225,772,o),
(261,762,c),
(272,781,l,{
name = hr00;
})
);
}
);
};
layerId = master01;
shapes = (
{
ref = I;
},
{
pos = (14,0);
ref = gravecomb.case;
}
);
width = 345;
}
);
unicode = 204;
},
{
glyphname = Imacron;
lastChange = "2023-02-24 11:13:39 +0000";
layers = (
{
background = {
shapes = (
{
closed = 1;
nodes = (
(131,350,l),
(136,52,l),
(50,30,l),
(50,23,o),
(50,0,o),
(65,0,cs),
(65,0,o),
(83,0,o),
(177,4,c),
(270,0,o),
(280,0,o),
(280,0,c),
(295,0,o),
(295,23,o),
(295,30,c),
(209,52,l),
(214,350,l),
(209,648,l),
(295,670,l),
(295,677,o),
(295,700,o),
(280,700,cs),
(280,700,o),
(270,700,o),
(177,696,c),
(83,700,o),
(65,700,o),
(65,700,c),
(50,700,o),
(50,677,o),
(50,670,c),
(136,648,l,{
name = hr00;
})
);
},
{
closed = 1;
nodes = (
(313,770,l),
(313,833,l),
(32,833,l),
(32,770,l,{
name = hr00;
})
);
}
);
};
layerId = master01;
shapes = (
{
ref = I;
},
{
pos = (-38,0);
ref = macroncomb.case;
}
);
width = 345;
}
);
unicode = 298;
},
{
glyphname = Iogonek;
lastChange = "2023-02-24 11:13:39 +0000";
layers = (
{
background = {
shapes = (
{
closed = 1;
nodes = (
(131,350,l),
(136,52,l),
(50,30,l),
(50,23,o),
(50,0,o),
(65,0,cs),
(65,0,o),
(83,0,o),
(177,4,c),
(270,0,o),
(280,0,o),
(280,0,c),
(295,0,o),
(295,23,o),
(295,30,c),
(209,52,l),
(214,350,l),
(209,648,l),
(295,670,l),
(295,677,o),
(295,700,o),
(280,700,cs),
(280,700,o),
(270,700,o),
(177,696,c),
(83,700,o),
(65,700,o),
(65,700,c),
(50,700,o),
(50,677,o),
(50,670,c),
(136,648,l,{
name = hr00;
})
);
},
{
closed = 1;
nodes = (
(195,15,l),
(107,-23,o),
(67,-87,o),
(67,-141,cs),
(67,-191,o),
(103,-233,o),
(170,-233,cs),
(209,-233,o),
(238,-218,o),
(256,-202,c),
(253,-188,o),
(248,-180,o),
(239,-172,c),
(223,-183,o),
(203,-189,o),
(184,-189,cs),
(154,-189,o),
(127,-173,o),
(127,-134,cs),
(127,-86,o),
(165,-22,o),
(253,9,c),
(253,15,l,{
name = hr00;
})
);
}
);
};
layerId = master01;
shapes = (
{
ref = I;
},
{
pos = (-67,4);
ref = ogonekcomb;
}
);
width = 345;
}
);
unicode = 302;
},
{
glyphname = Itilde;
lastChange = "2023-02-24 10:07:55 +0000";
layers = (
{
background = {
shapes = (
{
closed = 1;
nodes = (
(131,350,l),
(136,52,l),
(50,30,l),
(50,23,o),
(50,0,o),
(65,0,cs),
(65,0,o),
(83,0,o),
(177,4,c),
(270,0,o),
(280,0,o),
(280,0,c),
(295,0,o),
(295,23,o),
(295,30,c),
(209,52,l),
(214,350,l),
(209,648,l),
(295,670,l),
(295,677,o),
(295,700,o),
(280,700,cs),
(280,700,o),
(270,700,o),
(177,696,c),
(83,700,o),
(65,700,o),
(65,700,c),
(50,700,o),
(50,677,o),
(50,670,c),
(136,648,l,{
name = hr00;
})
);
},
{
closed = 1;
nodes = (
(294,876,o),
(274,865,o),
(252,865,cs),
(205,865,o),
(164,892,o),
(116,892,cs,{
name = hr01;
}),
(83,892,o),
(49,876,o),
(15,817,c),
(32,798,l),
(52,817,o),
(72,828,o),
(94,828,cs),
(141,828,o),
(182,801,o),
(230,801,cs,{
name = hr02;
}),
(263,801,o),
(297,817,o),
(331,876,c),
(314,895,l)
);
}
);
};
layerId = master01;
shapes = (
{
ref = I;
},
{
pos = (-35,0);
ref = tildecomb.case;
}
);
width = 345;
}
);
unicode = 296;
},
{
glyphname = J;
lastChange = "2023-02-24 11:13:39 +0000";
layers = (
{
anchors = (
{
name = bottom;
pos = (158,0);
},
{
name = top;
pos = (173,700);
}
);
background = {
shapes = (
{
closed = 1;
nodes = (
(133,39,o),
(78,-75,o),
(-4,-183,c),
(26,-204,l),
(138,-80,o),
(212,48,o),
(212,186,cs),
(212,648,l),
(296,669,l),
(296,676,o),
(296,700,o),
(281,700,cs),
(281,700,o),
(264,700,o),
(170,696,c),
(77,700,o),
(54,700,o),
(54,700,c),
(38,700,o),
(38,676,o),
(38,670,c),
(133,648,l),
(133,159,ls,{
name = hr00;
})
);
}
);
};
layerId = master01;
shapes = (
{
closed = 1;
nodes = (
(133,39,o),
(78,-75,o),
(-4,-183,c),
(26,-204,l),
(138,-80,o),
(212,48,o),
(212,186,cs),
(212,648,l),
(296,669,l),
(296,676,o),
(296,700,o),
(281,700,cs),
(281,700,o),
(264,700,o),
(170,696,c),
(77,700,o),
(54,700,o),
(54,700,c),
(38,700,o),
(38,676,o),
(38,670,c),
(133,648,l),
(133,159,ls,{
name = hr00;
})
);
}
);
width = 315;
}
);
unicode = 74;
},
{
glyphname = Jcircumflex;
lastChange = "2023-02-24 10:59:28 +0000";
layers = (
{
background = {
shapes = (
{
closed = 1;
nodes = (
(133,39,o),
(78,-75,o),
(-4,-183,c),
(26,-204,l),
(138,-80,o),
(212,48,o),
(212,186,cs),
(212,648,l),
(296,669,l),
(296,676,o),
(296,700,o),
(281,700,cs),
(281,700,o),
(264,700,o),
(170,696,c),
(77,700,o),
(54,700,o),
(54,700,c),
(38,700,o),
(38,676,o),
(38,670,c),
(133,648,l),
(133,159,ls,{
name = hr00;
})
);
},
{
closed = 1;
nodes = (
(270,753,l),
(296,770,l),
(252,833,o),
(219,886,o),
(196,929,c),
(151,929,l),
(128,886,o),
(95,833,o),
(51,770,c),
(77,753,l),
(174,855,l,{
name = hr00;
})
);
}
);
};
layerId = master01;
shapes = (
{
ref = J;
},
{
pos = (5,0);
ref = circumflexcomb.case;
}
);
width = 315;
}
);
unicode = 308;
},
{
glyphname = K;
kernRight = K;
lastChange = "2023-02-24 13:31:21 +0000";
layers = (
{
anchors = (
{
name = bottom;
pos = (335,0);
},
{
name = top;
pos = (312,700);
}
);
background = {
shapes = (
{
closed = 1;
nodes = (
(399,700,o),
(399,677,o),
(399,670,c),
(471,650,l),
(331,372,l),
(217,372,l),
(208,648,l),
(288,670,l),
(288,677,o),
(288,700,o),
(273,700,cs),
(273,700,o),
(261,700,o),
(168,696,c),
(74,700,o),
(65,700,o),
(65,700,c),
(50,700,o),
(50,677,o),
(50,670,c),
(134,648,l),
(134,52,l),
(50,30,l),
(50,23,o),
(50,0,o),
(65,0,cs),
(65,0,o),
(74,0,o),
(168,4,c),
(261,0,o),
(294,0,o),
(294,0,c),
(309,0,o),
(309,23,o),
(309,30,c),
(208,52,l),
(217,324,l),
(315,336,l),
(325,328,o),
(335,314,o),
(345,295,cs),
(506,0,l),
(637,0,ls),
(652,0,o),
(652,23,o),
(652,30,c),
(572,52,l),
(427,299,ls),
(407,333,o),
(389,349,o),
(371,357,c),
(537,648,l),
(604,670,l),
(604,677,o),
(602,700,o),
(590,700,cs),
(495,696,l),
(414,700,l,{
name = hr00;
})
);
}
);
};
layerId = master01;
shapes = (
{
closed = 1;
nodes = (
(399,700,o),
(399,677,o),
(399,670,c),
(471,650,l),
(331,372,l),
(217,372,l),
(208,648,l),
(288,670,l),
(288,677,o),
(288,700,o),
(273,700,cs),
(273,700,o),
(261,700,o),
(168,696,c),
(74,700,o),
(65,700,o),
(65,700,c),
(50,700,o),
(50,677,o),
(50,670,c),
(134,648,l),
(134,52,l),
(50,30,l),
(50,23,o),
(50,0,o),
(65,0,cs),
(65,0,o),
(74,0,o),
(168,4,c),
(261,0,o),
(294,0,o),
(294,0,c),
(309,0,o),
(309,23,o),
(309,30,c),
(208,52,l),
(217,324,l),
(315,336,l),
(325,328,o),
(335,314,o),
(345,295,cs),
(506,0,l),
(637,0,ls),
(652,0,o),
(652,23,o),
(652,30,c),
(572,52,l),
(427,299,ls),
(407,333,o),
(389,349,o),
(371,357,c),
(537,648,l),
(604,670,l),
(604,677,o),
(602,701,o),
(590,700,cs),
(495,696,l),
(414,700,l,{
name = hr00;
})
);
}
);
width = 623;
}
);
unicode = 75;
},
{
glyphname = Kcommaaccent;
kernRight = K;
lastChange = "2023-02-24 13:31:21 +0000";
layers = (
{
anchors = (
{
name = bottom;
pos = (312,-307);
}
);
background = {
shapes = (
{
closed = 1;
nodes = (
(399,700,o),
(399,677,o),
(399,670,c),
(471,650,l),
(331,372,l),
(217,372,l),
(208,648,l),
(288,670,l),
(288,677,o),
(288,700,o),
(273,700,cs),
(273,700,o),
(261,700,o),
(168,696,c),
(74,700,o),
(65,700,o),
(65,700,c),
(50,700,o),
(50,677,o),
(50,670,c),
(134,648,l),
(134,52,l),
(50,30,l),
(50,23,o),
(50,0,o),
(65,0,cs),
(65,0,o),
(74,0,o),
(168,4,c),
(261,0,o),
(294,0,o),
(294,0,c),
(309,0,o),
(309,23,o),
(309,30,c),
(208,52,l),
(217,324,l),
(315,336,l),
(325,328,o),
(335,314,o),
(345,295,cs),
(506,0,l),
(637,0,ls),
(652,0,o),
(652,23,o),
(652,30,c),
(572,52,l),
(427,299,ls),
(407,333,o),
(389,349,o),
(371,357,c),
(537,648,l),
(604,670,l),
(604,677,o),
(602,700,o),
(590,700,cs),
(495,696,l),
(414,700,l,{
name = hr00;
})
);
},
{
closed = 1;
nodes = (
(366,-285,o),
(413,-226,o),
(413,-159,cs),
(413,-95,o),
(394,-50,o),
(367,-50,cs),
(349,-50,o),
(326,-53,o),
(308,-57,c),
(303,-81,o),
(300,-103,o),
(300,-122,cs),
(300,-162,o),
(312,-182,o),
(337,-182,cs),
(343,-182,o),
(346,-182,o),
(353,-181,c),
(353,-186,ls),
(353,-226,o),
(329,-259,o),
(289,-277,c),
(301,-307,l,{
name = hr00;
})
);
}
);
};
layerId = master01;
shapes = (
{
ref = K;
},
{
pos = (211,0);
ref = commaaccentcomb;
}
);
width = 623;
}
);
unicode = 310;
},
{
glyphname = L;
kernRight = L;
lastChange = "2023-02-24 13:31:27 +0000";
layers = (
{
anchors = (
{
name = bottom;
pos = (279,0);
},
{
name = center;
pos = (261,350);
},
{
name = top;
pos = (191,700);
},
{
name = topright;
pos = (424,712);
}
);
background = {
shapes = (
{
closed = 1;
nodes = (
(130,350,l),
(135,52,l),
(49,30,l),
(49,23,o),
(49,0,o),
(64,0,c),
(176,8,l),
(474,0,ls),
(494,0,o),
(502,1,o),
(503,12,cs),
(511,163,l),
(504,163,o),
(473,162,o),
(469,149,cs),
(443,55,l,{
name = hr01;
}),
(208,55,l),
(213,350,l),
(208,648,l),
(294,670,l),
(294,677,o),
(294,700,o),
(279,700,cs),
(279,700,o),
(269,700,o),
(176,696,c),
(82,700,o),
(64,700,o),
(64,700,c),
(49,700,o),
(49,677,o),
(49,670,c),
(135,648,l)
);
}
);
};
layerId = master01;
shapes = (
{
closed = 1;
nodes = (
(130,350,l),
(135,52,l),
(49,30,l),
(49,23,o),
(49,0,o),
(64,0,c),
(176,8,l),
(474,0,ls),
(494,-1,o),
(502,1,o),
(503,12,cs),
(511,163,l),
(504,163,o),
(473,162,o),
(469,149,cs),
(443,55,l,{
name = hr01;
}),
(208,55,l),
(213,350,l),
(208,648,l),
(294,670,l),
(294,677,o),
(294,700,o),
(279,700,cs),
(279,700,o),
(269,700,o),
(176,696,c),
(82,700,o),
(64,700,o),
(64,700,c),
(49,700,o),
(49,677,o),
(49,670,c),
(135,648,l)
);
}
);
width = 521;
}
);
unicode = 76;
},
{
glyphname = Lacute;
kernRight = L;
lastChange = "2023-02-24 13:31:27 +0000";
layers = (
{
background = {
shapes = (
{
closed = 1;
nodes = (
(130,350,l),
(135,52,l),
(49,30,l),
(49,23,o),
(49,0,o),
(64,0,c),
(176,8,l),
(474,0,ls),
(494,0,o),
(502,1,o),
(503,12,cs),
(511,163,l),
(504,163,o),
(473,162,o),
(469,149,cs),
(443,55,l,{
name = hr01;
}),
(208,55,l),
(213,350,l),
(208,648,l),
(294,670,l),
(294,677,o),
(294,700,o),
(279,700,cs),
(279,700,o),
(269,700,o),
(176,696,c),
(82,700,o),
(64,700,o),
(64,700,c),
(49,700,o),
(49,677,o),
(49,670,c),
(135,648,l)
);
},
{
closed = 1;
nodes = (
(132,772,o),
(230,802,o),
(297,845,cs),
(301,847,o),
(302,852,o),
(302,857,cs),
(302,877,o),
(282,918,o),
(277,924,c),
(182,847,o),
(85,781,o),
(85,781,c),
(96,762,l,{
name = hr00;
})
);
}
);
};
layerId = master01;
shapes = (
{
ref = L;
},
{
pos = (32,0);
ref = acutecomb.case;
}
);
width = 521;
}
);
unicode = 313;
},
{
glyphname = Lcaron;
kernRight = L;
lastChange = "2023-02-24 13:31:27 +0000";
layers = (
{
background = {
shapes = (
{
closed = 1;
nodes = (
(130,350,l),
(135,52,l),
(49,30,l),
(49,23,o),
(49,0,o),
(64,0,c),
(176,8,l),
(474,0,ls),
(494,0,o),
(502,1,o),
(503,12,cs),
(511,163,l),
(504,163,o),
(473,162,o),
(469,149,cs),
(443,55,l,{
name = hr01;
}),
(208,55,l),
(213,350,l),
(208,648,l),
(294,670,l),
(294,677,o),
(294,700,o),
(279,700,cs),
(279,700,o),
(269,700,o),
(176,696,c),
(82,700,o),
(64,700,o),
(64,700,c),
(49,700,o),
(49,677,o),
(49,670,c),
(135,648,l)
);
},
{
closed = 1;
nodes = (
(423,477,o),
(470,536,o),
(470,603,cs),
(470,667,o),
(451,712,o),
(424,712,cs),
(406,712,o),
(383,709,o),
(365,705,c),
(360,681,o),
(357,659,o),
(357,640,cs),
(357,600,o),
(369,580,o),
(394,580,cs),
(400,580,o),
(403,580,o),
(410,581,c),
(410,576,ls),
(410,536,o),
(386,503,o),
(346,485,c),
(358,455,l,{
name = hr00;
})
);
}
);
};
layerId = master01;
shapes = (
{
ref = L;
},
{
pos = (300,0);
ref = caroncomb.alt;
}
);
width = 521;
}
);
unicode = 317;
},
{
glyphname = Lcommaaccent;
kernRight = L;
lastChange = "2023-02-24 13:31:27 +0000";
layers = (
{
anchors = (
{
name = bottom;
pos = (261,-307);
}
);
background = {
shapes = (
{
closed = 1;
nodes = (
(130,350,l),
(135,52,l),
(49,30,l),
(49,23,o),
(49,0,o),
(64,0,c),
(176,8,l),
(474,0,ls),
(494,0,o),
(502,1,o),
(503,12,cs),
(511,163,l),
(504,163,o),
(473,162,o),
(469,149,cs),
(443,55,l,{
name = hr01;
}),
(208,55,l),
(213,350,l),
(208,648,l),
(294,670,l),
(294,677,o),
(294,700,o),
(279,700,cs),
(279,700,o),
(269,700,o),
(176,696,c),
(82,700,o),
(64,700,o),
(64,700,c),
(49,700,o),
(49,677,o),
(49,670,c),
(135,648,l)
);
},
{
closed = 1;
nodes = (
(309,-285,o),
(356,-226,o),
(356,-159,cs),
(356,-95,o),
(337,-50,o),
(310,-50,cs),
(292,-50,o),
(269,-53,o),
(251,-57,c),
(246,-81,o),
(243,-103,o),
(243,-122,cs),
(243,-162,o),
(255,-182,o),
(280,-182,cs),
(286,-182,o),
(289,-182,o),
(296,-181,c),
(296,-186,ls),
(296,-226,o),
(272,-259,o),
(232,-277,c),
(244,-307,l,{
name = hr00;
})
);
}
);
};
layerId = master01;
shapes = (
{
ref = L;
},
{
pos = (155,0);
ref = commaaccentcomb;
}
);
width = 521;
}
);
unicode = 315;
},
{
glyphname = Ldot;
kernRight = L;
lastChange = "2023-02-24 13:31:27 +0000";
layers = (
{
background = {
shapes = (
{
closed = 1;
nodes = (
(130,350,l),
(135,52,l),
(49,30,l),
(49,23,o),
(49,0,o),
(64,0,c),
(176,8,l),
(474,0,ls),
(494,0,o),
(502,1,o),
(503,12,cs),
(511,163,l),
(504,163,o),
(473,162,o),
(469,149,cs),
(443,55,l,{
name = hr01;
}),
(208,55,l),
(213,350,l),
(208,648,l),
(294,670,l),
(294,677,o),
(294,700,o),
(279,700,cs),
(279,700,o),
(269,700,o),
(176,696,c),
(82,700,o),
(64,700,o),
(64,700,c),
(49,700,o),
(49,677,o),
(49,670,c),
(135,648,l)
);
},
{
closed = 1;
nodes = (
(371,456,o),
(335,449,o),
(335,449,c),
(335,449,o),
(327,415,o),
(327,384,cs),
(327,353,o),
(334,323,o),
(364,323,cs),
(386,323,o),
(421,332,o),
(421,332,c),
(421,332,o),
(428,365,o),
(428,394,cs),
(428,427,o),
(419,456,o),
(392,456,cs,{
name = hr00;
})
);
}
);
};
layerId = master01;
shapes = (
{
ref = L;
},
{
pos = (279,150);
ref = periodcentered;
}
);
width = 521;
}
);
unicode = 319;
},
{
glyphname = Lslash;
kernRight = L;
lastChange = "2023-02-24 13:31:27 +0000";
layers = (
{
background = {
shapes = (
{
closed = 1;
nodes = (
(316,431,l),
(297,469,l),
(27,332,l),
(53,280,l,{
name = hr00;
})
);
},
{
ref = L;
}
);
};
layerId = master01;
shapes = (
{
closed = 1;
nodes = (
(316,431,l),
(297,469,l),
(27,332,l),
(53,280,l,{
name = hr00;
})
);
},
{
ref = L;
}
);
width = 521;
}
);
unicode = 321;
},
{
glyphname = M;
lastChange = "2023-02-24 11:13:39 +0000";
layers = (
{
anchors = (
{
name = bottom;
pos = (454,0);
},
{
name = top;
pos = (454,700);
}
);
background = {
shapes = (
{
closed = 1;
nodes = (
(248,0,ls),
(264,0,o),
(264,22,o),
(264,30,c),
(169,52,l),
(192,594,l),
(423,50,l),
(442,50,l),
(695,601,l),
(716,52,l),
(621,30,l),
(621,22,o),
(621,0,o),
(637,0,cs),
(750,4,l),
(837,0,o),
(868,0,o),
(868,0,c),
(883,0,o),
(883,23,o),
(883,30,c),
(798,52,l),
(767,647,l),
(849,669,l),
(849,676,o),
(849,700,o),
(834,700,cs),
(834,700,o),
(799,700,o),
(676,696,c),
(445,184,l),
(236,696,l),
(113,700,o),
(74,700,o),
(74,700,c),
(59,700,o),
(59,676,o),
(59,669,c),
(141,647,l),
(110,52,l),
(25,30,l),
(25,23,o),
(25,0,o),
(40,0,cs),
(40,0,o),
(51,0,o),
(138,4,c,{
name = hr00;
})
);
}
);
};
layerId = master01;
shapes = (
{
closed = 1;
nodes = (
(248,0,ls),
(264,0,o),
(264,22,o),
(264,30,c),
(169,52,l),
(192,594,l),
(423,50,l),
(442,50,l),
(695,601,l),
(716,52,l),
(621,30,l),
(621,22,o),
(621,0,o),
(637,0,cs),
(750,4,l),
(837,0,o),
(868,0,o),
(868,0,c),
(883,0,o),
(883,23,o),
(883,30,c),
(798,52,l),
(767,647,l),
(849,669,l),
(849,676,o),
(849,700,o),
(834,700,cs),
(834,700,o),
(799,700,o),
(676,696,c),
(445,184,l),
(236,696,l),
(113,700,o),
(74,700,o),
(74,700,c),
(59,700,o),
(59,676,o),
(59,669,c),
(141,647,l),
(110,52,l),
(25,30,l),
(25,23,o),
(25,0,o),
(40,0,cs),
(40,0,o),
(51,0,o),
(138,4,c,{
name = hr00;
})
);
}
);
width = 908;
}
);
unicode = 77;
},
{
glyphname = N;
kernRight = N;
lastChange = "2023-02-24 13:31:35 +0000";
layers = (
{
anchors = (
{
name = bottom;
pos = (395,0);
},
{
name = top;
pos = (405,700);
}
);
background = {
shapes = (
{
closed = 1;
nodes = (
(621,126,l),
(200,696,l),
(77,700,o),
(65,700,o),
(65,700,c),
(50,700,o),
(50,676,o),
(50,669,c),
(132,647,l),
(132,52,l),
(50,30,l),
(50,23,o),
(50,0,o),
(65,0,cs),
(65,0,o),
(76,0,o),
(163,4,c),
(284,0,l),
(300,0,o),
(300,22,o),
(300,30,c),
(194,52,l),
(186,583,l),
(616,0,l),
(672,0,l),
(675,648,l),
(750,670,l),
(750,677,o),
(750,700,o),
(735,700,cs),
(735,700,o),
(734,700,o),
(647,696,c),
(526,700,l),
(510,700,o),
(510,678,o),
(510,670,c),
(615,648,l,{
name = hr00;
})
);
}
);
};
layerId = master01;
shapes = (
{
closed = 1;
nodes = (
(621,126,l),
(200,696,l),
(77,700,o),
(65,700,o),
(65,700,c),
(50,700,o),
(50,676,o),
(50,669,c),
(132,647,l),
(132,52,l),
(50,30,l),
(50,23,o),
(50,0,o),
(65,0,cs),
(65,0,o),
(76,0,o),
(163,4,c),
(284,0,l),
(300,0,o),
(300,22,o),
(300,30,c),
(194,52,l),
(186,583,l),
(616,0,l),
(672,0,l),
(675,648,l),
(750,670,l),
(750,677,o),
(750,700,o),
(735,700,cs),
(735,700,o),
(734,700,o),
(647,696,c),
(526,700,l),
(510,700,o),
(510,678,o),
(510,670,c),
(615,648,l,{
name = hr00;
})
);
}
);
width = 790;
}
);
unicode = 78;
},
{
glyphname = Nacute;
kernRight = N;
lastChange = "2023-02-24 13:31:35 +0000";
layers = (
{
background = {
shapes = (
{
closed = 1;
nodes = (
(621,126,l),
(200,696,l),
(77,700,o),
(65,700,o),
(65,700,c),
(50,700,o),
(50,676,o),
(50,669,c),
(132,647,l),
(132,52,l),
(50,30,l),
(50,23,o),
(50,0,o),
(65,0,cs),
(65,0,o),
(76,0,o),
(163,4,c),
(284,0,l),
(300,0,o),
(300,22,o),
(300,30,c),
(194,52,l),
(186,583,l),
(616,0,l),
(672,0,l),
(675,648,l),
(750,670,l),
(750,677,o),
(750,700,o),
(735,700,cs),
(735,700,o),
(734,700,o),
(647,696,c),
(526,700,l),
(510,700,o),
(510,678,o),
(510,670,c),
(615,648,l,{
name = hr00;
})
);
},
{
closed = 1;
nodes = (
(333,772,o),
(431,802,o),
(498,845,cs),
(502,847,o),
(503,852,o),
(503,857,cs),
(503,877,o),
(483,918,o),
(478,924,c),
(383,847,o),
(286,781,o),
(286,781,c),
(297,762,l,{
name = hr00;
})
);
}
);
};
layerId = master01;
shapes = (
{
ref = N;
},
{
pos = (246,0);
ref = acutecomb.case;
}
);
width = 790;
}
);
unicode = 323;
},
{
glyphname = Ncaron;
kernRight = N;
lastChange = "2023-02-24 13:31:35 +0000";
layers = (
{
background = {
shapes = (
{
closed = 1;
nodes = (
(621,126,l),
(200,696,l),
(77,700,o),
(65,700,o),
(65,700,c),
(50,700,o),
(50,676,o),
(50,669,c),
(132,647,l),
(132,52,l),
(50,30,l),
(50,23,o),
(50,0,o),
(65,0,cs),
(65,0,o),
(76,0,o),
(163,4,c),
(284,0,l),
(300,0,o),
(300,22,o),
(300,30,c),
(194,52,l),
(186,583,l),
(616,0,l),
(672,0,l),
(675,648,l),
(750,670,l),
(750,677,o),
(750,700,o),
(735,700,cs),
(735,700,o),
(734,700,o),
(647,696,c),
(526,700,l),
(510,700,o),
(510,678,o),
(510,670,c),
(615,648,l,{
name = hr00;
})
);
},
{
closed = 1;
nodes = (
(319,929,l),
(292,912,l),
(332,849,o),
(362,796,o),
(381,753,c),
(426,753,l),
(452,796,o),
(489,849,o),
(537,912,c),
(512,929,l),
(409,827,l,{
name = hr00;
})
);
}
);
};
layerId = master01;
shapes = (
{
ref = N;
},
{
pos = (233,0);
ref = caroncomb.case;
}
);
width = 790;
}
);
unicode = 327;
},
{
glyphname = Ncommaaccent;
kernRight = N;
lastChange = "2023-02-24 13:43:40 +0000";
layers = (
{
anchors = (
{
name = bottom;
pos = (395,-307);
}
);
background = {
shapes = (
{
closed = 1;
nodes = (
(621,126,l),
(200,696,l),
(77,700,o),
(65,700,o),
(65,700,c),
(50,700,o),
(50,676,o),
(50,669,c),
(132,647,l),
(132,52,l),
(50,30,l),
(50,23,o),
(50,0,o),
(65,0,cs),
(65,0,o),
(76,0,o),
(163,4,c),
(284,0,l),
(300,0,o),
(300,22,o),
(300,30,c),
(194,52,l),
(186,583,l),
(616,0,l),
(672,0,l),
(675,648,l),
(750,670,l),
(750,677,o),
(750,700,o),
(735,700,cs),
(735,700,o),
(734,700,o),
(647,696,c),
(526,700,l),
(510,700,o),
(510,678,o),
(510,670,c),
(615,648,l,{
name = hr00;
})
);
},
{
closed = 1;
nodes = (
(410,-285,o),
(457,-226,o),
(457,-159,cs),
(457,-95,o),
(438,-50,o),
(411,-50,cs),
(393,-50,o),
(370,-53,o),
(352,-57,c),
(347,-81,o),
(344,-103,o),
(344,-122,cs),
(344,-162,o),
(356,-182,o),
(381,-182,cs),
(387,-182,o),
(390,-182,o),
(397,-181,c),
(397,-186,ls),
(397,-226,o),
(373,-259,o),
(333,-277,c),
(345,-307,l,{
name = hr00;
})
);
}
);
};
layerId = master01;
shapes = (
{
ref = N;
},
{
pos = (271,0);
ref = commaaccentcomb;
}
);
width = 790;
}
);
unicode = 325;
},
{
glyphname = Ntilde;
kernRight = N;
lastChange = "2023-02-24 13:31:35 +0000";
layers = (
{
background = {
shapes = (
{
closed = 1;
nodes = (
(621,126,l),
(200,696,l),
(77,700,o),
(65,700,o),
(65,700,c),
(50,700,o),
(50,676,o),
(50,669,c),
(132,647,l),
(132,52,l),
(50,30,l),
(50,23,o),
(50,0,o),
(65,0,cs),
(65,0,o),
(76,0,o),
(163,4,c),
(284,0,l),
(300,0,o),
(300,22,o),
(300,30,c),
(194,52,l),
(186,583,l),
(616,0,l),
(672,0,l),
(675,648,l),
(750,670,l),
(750,677,o),
(750,700,o),
(735,700,cs),
(735,700,o),
(734,700,o),
(647,696,c),
(526,700,l),
(510,700,o),
(510,678,o),
(510,670,c),
(615,648,l,{
name = hr00;
})
);
},
{
closed = 1;
nodes = (
(521,876,o),
(501,865,o),
(479,865,cs),
(432,865,o),
(391,892,o),
(343,892,cs,{
name = hr01;
}),
(310,892,o),
(276,876,o),
(242,817,c),
(259,798,l),
(279,817,o),
(299,828,o),
(321,828,cs),
(368,828,o),
(409,801,o),
(457,801,cs,{
name = hr02;
}),
(490,801,o),
(524,817,o),
(558,876,c),
(541,895,l)
);
}
);
};
layerId = master01;
shapes = (
{
ref = N;
},
{
pos = (197,0);
ref = tildecomb.case;
}
);
width = 790;
}
);
unicode = 209;
},
{
glyphname = Eng;
kernRight = N;
lastChange = "2023-02-24 13:31:35 +0000";
layers = (
{
anchors = (
{
name = bottom;
pos = (395,0);
},
{
name = top;
pos = (395,700);
}
);
background = {
shapes = (
{
closed = 1;
nodes = (
(621,126,l),
(200,696,l),
(77,700,o),
(65,700,o),
(65,700,c),
(50,700,o),
(50,676,o),
(50,669,c),
(132,647,l),
(132,52,l),
(50,30,l),
(50,23,o),
(50,0,o),
(65,0,cs),
(65,0,o),
(76,0,o),
(163,4,c),
(284,0,ls),
(300,0,o),
(300,22,o),
(300,30,c),
(194,52,l),
(186,583,l),
(587,38,l),
(571,-56,o),
(523,-146,o),
(457,-233,c),
(487,-254,l),
(599,-130,o),
(672,-2,o),
(672,136,c),
(675,648,l),
(750,670,l),
(750,677,o),
(750,700,o),
(735,700,cs),
(735,700,o),
(734,700,o),
(647,696,c),
(526,700,ls),
(510,700,o),
(510,678,o),
(510,670,c),
(615,648,l,{
name = hr00;
})
);
}
);
};
layerId = master01;
shapes = (
{
closed = 1;
nodes = (
(621,126,l),
(200,696,l),
(77,700,o),
(65,700,o),
(65,700,c),
(50,700,o),
(50,676,o),
(50,669,c),
(132,647,l),
(132,52,l),
(50,30,l),
(50,23,o),
(50,0,o),
(65,0,cs),
(65,0,o),
(76,0,o),
(163,4,c),
(284,0,ls),
(300,0,o),
(300,22,o),
(300,30,c),
(194,52,l),
(186,583,l),
(587,38,l),
(571,-56,o),
(523,-146,o),
(457,-233,c),
(487,-254,l),
(599,-130,o),
(672,-2,o),
(672,136,c),
(675,648,l),
(750,670,l),
(750,677,o),
(750,700,o),
(735,700,cs),
(735,700,o),
(734,700,o),
(647,696,c),
(526,700,ls),
(510,700,o),
(510,678,o),
(510,670,c),
(615,648,l,{
name = hr00;
})
);
}
);
width = 790;
}
);
unicode = 330;
},
{
glyphname = O;
kernLeft = C;
kernRight = D;
lastChange = "2023-02-24 13:31:00 +0000";
layers = (
{
anchors = (
{
name = bottom;
pos = (374,0);
},
{
name = center;
pos = (374,350);
},
{
name = ogonek;
pos = (672,10);
},
{
name = top;
pos = (374,700);
},
{
name = topleft;
pos = (20,700);
},
{
name = topright;
pos = (727,700);
}
);
background = {
shapes = (
{
closed = 1;
nodes = (
(707,597,o),
(560,712,o),
(379,712,cs),
(192,712,o),
(40,588,o),
(40,354,cs),
(40,109,o),
(178,-12,o),
(363,-12,cs),
(563,-12,o),
(707,110,o),
(707,363,cs,{
name = hr00;
})
);
},
{
closed = 1;
nodes = (
(128,480,o),
(167,587,o),
(229,634,c),
(268,647,o),
(324,658,o),
(373,658,cs),
(513,658,o),
(619,557,o),
(619,352,cs),
(619,140,o),
(513,36,o),
(373,36,cs),
(234,36,o),
(128,140,o),
(128,352,cs)
);
}
);
};
layerId = master01;
shapes = (
{
closed = 1;
nodes = (
(707,597,o),
(560,712,o),
(379,712,cs),
(192,712,o),
(40,588,o),
(40,354,cs),
(40,109,o),
(178,-12,o),
(363,-12,cs),
(563,-12,o),
(707,110,o),
(707,363,cs,{
name = hr00;
})
);
},
{
closed = 1;
nodes = (
(128,480,o),
(167,587,o),
(229,634,c),
(268,647,o),
(324,658,o),
(373,658,cs),
(513,658,o),
(619,557,o),
(619,352,cs),
(619,140,o),
(513,36,o),
(373,36,cs),
(234,36,o),
(128,140,o),
(128,352,cs)
);
}
);
width = 747;
}
);
unicode = 79;
},
{
glyphname = Oacute;
kernLeft = C;
kernRight = D;
lastChange = "2023-02-24 13:31:00 +0000";
layers = (
{
background = {
shapes = (
{
closed = 1;
nodes = (
(697,597,o),
(550,712,o),
(369,712,cs),
(182,712,o),
(30,588,o),
(30,354,cs),
(30,109,o),
(168,-12,o),
(353,-12,cs),
(553,-12,o),
(697,110,o),
(697,363,cs,{
name = hr00;
})
);
},
{
closed = 1;
nodes = (
(118,480,o),
(157,587,o),
(219,634,c),
(258,647,o),
(314,658,o),
(363,658,cs),
(503,658,o),
(609,557,o),
(609,352,cs),
(609,140,o),
(503,36,o),
(363,36,cs),
(224,36,o),
(118,140,o),
(118,352,cs)
);
},
{
closed = 1;
nodes = (
(302,772,o),
(400,802,o),
(467,845,cs),
(471,847,o),
(472,852,o),
(472,857,cs),
(472,877,o),
(452,918,o),
(447,924,c),
(352,847,o),
(255,781,o),
(255,781,c),
(266,762,l,{
name = hr00;
})
);
}
);
};
layerId = master01;
shapes = (
{
ref = O;
},
{
pos = (215,0);
ref = acutecomb.case;
}
);
width = 747;
}
);
unicode = 211;
},
{
glyphname = Obreve;
kernLeft = C;
kernRight = D;
lastChange = "2023-02-24 13:31:00 +0000";
layers = (
{
background = {
shapes = (
{
closed = 1;
nodes = (
(707,597,o),
(560,712,o),
(379,712,cs),
(192,712,o),
(40,588,o),
(40,354,cs),
(40,109,o),
(178,-12,o),
(363,-12,cs),
(563,-12,o),
(707,110,o),
(707,363,cs,{
name = hr00;
})
);
},
{
closed = 1;
nodes = (
(128,480,o),
(167,587,o),
(229,634,c),
(268,647,o),
(324,658,o),
(373,658,cs),
(513,658,o),
(619,557,o),
(619,352,cs),
(619,140,o),
(513,36,o),
(373,36,cs),
(234,36,o),
(128,140,o),
(128,352,cs)
);
},
{
closed = 1;
nodes = (
(335,821,o),
(306,857,o),
(284,913,c),
(250,905,l),
(282,808,o),
(313,754,o),
(373,754,cs),
(433,754,o),
(464,808,o),
(496,905,c),
(462,913,l),
(440,857,o),
(411,821,o),
(373,821,cs,{
name = hr00;
})
);
}
);
};
layerId = master01;
shapes = (
{
ref = O;
},
{
pos = (208,0);
ref = brevecomb.case;
}
);
width = 747;
}
);
unicode = 334;
},
{
glyphname = Ocircumflex;
kernLeft = C;
kernRight = D;
lastChange = "2023-02-24 13:31:00 +0000";
layers = (
{
background = {
shapes = (
{
closed = 1;
nodes = (
(697,597,o),
(550,712,o),
(369,712,cs),
(182,712,o),
(30,588,o),
(30,354,cs),
(30,109,o),
(168,-12,o),
(353,-12,cs),
(553,-12,o),
(697,110,o),
(697,363,cs,{
name = hr00;
})
);
},
{
closed = 1;
nodes = (
(118,480,o),
(157,587,o),
(219,634,c),
(258,647,o),
(314,658,o),
(363,658,cs),
(503,658,o),
(609,557,o),
(609,352,cs),
(609,140,o),
(503,36,o),
(363,36,cs),
(224,36,o),
(118,140,o),
(118,352,cs)
);
},
{
closed = 1;
nodes = (
(460,753,l),
(486,770,l),
(442,833,o),
(409,886,o),
(386,929,c),
(341,929,l),
(318,886,o),
(285,833,o),
(241,770,c),
(267,753,l),
(364,855,l,{
name = hr00;
})
);
}
);
};
layerId = master01;
shapes = (
{
ref = O;
},
{
pos = (206,0);
ref = circumflexcomb.case;
}
);
width = 747;
}
);
unicode = 212;
},
{
glyphname = Odieresis;
kernLeft = C;
kernRight = D;
lastChange = "2023-02-24 13:31:00 +0000";
layers = (
{
background = {
shapes = (
{
closed = 1;
nodes = (
(697,597,o),
(550,712,o),
(369,712,cs),
(182,712,o),
(30,588,o),
(30,354,cs),
(30,109,o),
(168,-12,o),
(353,-12,cs),
(553,-12,o),
(697,110,o),
(697,363,cs,{
name = hr00;
})
);
},
{
closed = 1;
nodes = (
(118,480,o),
(157,587,o),
(219,634,c),
(258,647,o),
(314,658,o),
(363,658,cs),
(503,658,o),
(609,557,o),
(609,352,cs),
(609,140,o),
(503,36,o),
(363,36,cs),
(224,36,o),
(118,140,o),
(118,352,cs)
);
},
{
closed = 1;
nodes = (
(325,903,o),
(333,877,o),
(333,850,cs),
(333,825,o),
(328,800,o),
(327,797,c),
(327,797,o),
(295,788,o),
(278,788,cs),
(252,788,o),
(246,814,o),
(246,840,cs),
(246,867,o),
(252,893,o),
(253,896,c),
(253,896,o),
(286,903,o),
(302,903,cs,{
name = hr00;
})
);
},
{
closed = 1;
nodes = (
(473,903,o),
(481,877,o),
(481,850,cs),
(481,825,o),
(476,800,o),
(475,797,c),
(475,797,o),
(443,788,o),
(426,788,cs),
(400,788,o),
(394,814,o),
(394,840,cs),
(394,867,o),
(400,893,o),
(401,896,c),
(401,896,o),
(434,903,o),
(450,903,cs)
);
}
);
};
layerId = master01;
shapes = (
{
ref = O;
},
{
pos = (184,0);
ref = dieresiscomb.case;
}
);
width = 747;
}
);
unicode = 214;
},
{
glyphname = Ograve;
kernLeft = C;
kernRight = D;
lastChange = "2023-02-24 13:31:00 +0000";
layers = (
{
background = {
shapes = (
{
closed = 1;
nodes = (
(697,597,o),
(550,712,o),
(369,712,cs),
(182,712,o),
(30,588,o),
(30,354,cs),
(30,109,o),
(168,-12,o),
(353,-12,cs),
(553,-12,o),
(697,110,o),
(697,363,cs,{
name = hr00;
})
);
},
{
closed = 1;
nodes = (
(118,480,o),
(157,587,o),
(219,634,c),
(258,647,o),
(314,658,o),
(363,658,cs),
(503,658,o),
(609,557,o),
(609,352,cs),
(609,140,o),
(503,36,o),
(363,36,cs),
(224,36,o),
(118,140,o),
(118,352,cs)
);
},
{
closed = 1;
nodes = (
(472,781,o),
(375,847,o),
(280,924,c),
(275,918,o),
(255,877,o),
(255,857,cs),
(255,852,o),
(256,847,o),
(260,845,cs),
(327,802,o),
(425,772,o),
(461,762,c),
(472,781,l,{
name = hr00;
})
);
}
);
};
layerId = master01;
shapes = (
{
ref = O;
},
{
pos = (215,0);
ref = gravecomb.case;
}
);
width = 747;
}
);
unicode = 210;
},
{
glyphname = Ohungarumlaut;
kernLeft = C;
kernRight = D;
lastChange = "2023-02-24 13:31:00 +0000";
layers = (
{
background = {
shapes = (
{
closed = 1;
nodes = (
(707,597,o),
(560,712,o),
(379,712,cs),
(192,712,o),
(40,588,o),
(40,354,cs),
(40,109,o),
(178,-12,o),
(363,-12,cs),
(563,-12,o),
(707,110,o),
(707,363,cs,{
name = hr00;
})
);
},
{
closed = 1;
nodes = (
(128,480,o),
(167,587,o),
(229,634,c),
(268,647,o),
(324,658,o),
(373,658,cs),
(513,658,o),
(619,557,o),
(619,352,cs),
(619,140,o),
(513,36,o),
(373,36,cs),
(234,36,o),
(128,140,o),
(128,352,cs)
);
},
{
closed = 1;
nodes = (
(263,772,o),
(351,802,o),
(418,845,cs),
(422,847,o),
(423,852,o),
(423,857,cs),
(423,877,o),
(403,918,o),
(398,924,c),
(303,837,o),
(216,781,o),
(216,781,c),
(227,762,l,{
name = hr00;
})
);
},
{
closed = 1;
nodes = (
(430,772,o),
(518,802,o),
(585,845,cs),
(589,847,o),
(590,852,o),
(590,857,cs),
(590,877,o),
(570,918,o),
(565,924,c),
(470,837,o),
(383,781,o),
(383,781,c),
(394,762,l)
);
}
);
};
layerId = master01;
shapes = (
{
ref = O;
},
{
pos = (167,0);
ref = hungarumlautcomb.case;
}
);
width = 747;
}
);
unicode = 336;
},
{
glyphname = Omacron;
kernLeft = C;
kernRight = D;
lastChange = "2023-02-24 13:31:00 +0000";
layers = (
{
background = {
shapes = (
{
closed = 1;
nodes = (
(707,597,o),
(560,712,o),
(379,712,cs),
(192,712,o),
(40,588,o),
(40,354,cs),
(40,109,o),
(178,-12,o),
(363,-12,cs),
(563,-12,o),
(707,110,o),
(707,363,cs,{
name = hr00;
})
);
},
{
closed = 1;
nodes = (
(128,480,o),
(167,587,o),
(229,634,c),
(268,647,o),
(324,658,o),
(373,658,cs),
(513,658,o),
(619,557,o),
(619,352,cs),
(619,140,o),
(513,36,o),
(373,36,cs),
(234,36,o),
(128,140,o),
(128,352,cs)
);
},
{
closed = 1;
nodes = (
(514,814,l),
(514,877,l),
(233,877,l),
(233,814,l,{
name = hr00;
})
);
}
);
};
layerId = master01;
shapes = (
{
ref = O;
},
{
pos = (163,0);
ref = macroncomb.case;
}
);
width = 747;
}
);
unicode = 332;
},
{
glyphname = Oslash;
kernLeft = C;
kernRight = D;
lastChange = "2023-02-24 13:31:00 +0000";
layers = (
{
background = {
shapes = (
{
closed = 1;
nodes = (
(707,597,o),
(560,712,o),
(379,712,cs),
(192,712,o),
(40,588,o),
(40,354,cs),
(40,109,o),
(178,-12,o),
(363,-12,cs),
(563,-12,o),
(707,110,o),
(707,363,cs,{
name = hr00;
})
);
},
{
closed = 1;
nodes = (
(128,480,o),
(167,587,o),
(229,634,c),
(268,647,o),
(324,658,o),
(373,658,cs),
(513,658,o),
(619,557,o),
(619,352,cs),
(619,140,o),
(513,36,o),
(373,36,cs),
(234,36,o),
(128,140,o),
(128,352,cs)
);
},
{
closed = 1;
nodes = (
(224,-50,l),
(557,750,l),
(503,750,l),
(170,-50,l,{
name = hr00;
})
);
}
);
};
layerId = master01;
shapes = (
{
closed = 1;
nodes = (
(224,-50,l),
(557,750,l),
(503,750,l),
(170,-50,l,{
name = hr00;
})
);
},
{
alignment = -1;
ref = O;
}
);
width = 727;
}
);
unicode = 216;
},
{
glyphname = Oslashacute;
kernLeft = C;
kernRight = D;
lastChange = "2023-02-24 13:31:00 +0000";
layers = (
{
background = {
shapes = (
{
closed = 1;
nodes = (
(302,772,o),
(400,802,o),
(467,845,cs),
(471,847,o),
(472,852,o),
(472,857,cs),
(472,877,o),
(452,918,o),
(447,924,c),
(352,847,o),
(255,781,o),
(255,781,c),
(266,762,l,{
name = hr00;
})
);
},
{
closed = 1;
nodes = (
(697,597,o),
(550,712,o),
(369,712,cs),
(182,712,o),
(30,588,o),
(30,354,cs),
(30,109,o),
(168,-12,o),
(353,-12,cs),
(553,-12,o),
(697,110,o),
(697,363,cs,{
name = hr00;
})
);
},
{
closed = 1;
nodes = (
(118,480,o),
(157,587,o),
(219,634,c),
(258,647,o),
(314,658,o),
(363,658,cs),
(503,658,o),
(609,557,o),
(609,352,cs),
(609,140,o),
(503,36,o),
(363,36,cs),
(224,36,o),
(118,140,o),
(118,352,cs)
);
},
{
closed = 1;
nodes = (
(224,-50,l),
(557,750,l),
(503,750,l),
(170,-50,l,{
name = hr00;
})
);
}
);
};
layerId = master01;
shapes = (
{
ref = Oslash;
},
{
pos = (215,0);
ref = acutecomb.case;
}
);
width = 727;
}
);
unicode = 510;
},
{
glyphname = Otilde;
kernLeft = C;
kernRight = D;
lastChange = "2023-02-24 13:31:00 +0000";
layers = (
{
background = {
shapes = (
{
closed = 1;
nodes = (
(697,597,o),
(550,712,o),
(369,712,cs),
(182,712,o),
(30,588,o),
(30,354,cs),
(30,109,o),
(168,-12,o),
(353,-12,cs),
(553,-12,o),
(697,110,o),
(697,363,cs,{
name = hr00;
})
);
},
{
closed = 1;
nodes = (
(118,480,o),
(157,587,o),
(219,634,c),
(258,647,o),
(314,658,o),
(363,658,cs),
(503,658,o),
(609,557,o),
(609,352,cs),
(609,140,o),
(503,36,o),
(363,36,cs),
(224,36,o),
(118,140,o),
(118,352,cs)
);
},
{
closed = 1;
nodes = (
(484,876,o),
(464,865,o),
(442,865,cs),
(395,865,o),
(354,892,o),
(306,892,cs,{
name = hr01;
}),
(273,892,o),
(239,876,o),
(205,817,c),
(222,798,l),
(242,817,o),
(262,828,o),
(284,828,cs),
(331,828,o),
(372,801,o),
(420,801,cs,{
name = hr02;
}),
(453,801,o),
(487,817,o),
(521,876,c),
(504,895,l)
);
}
);
};
layerId = master01;
shapes = (
{
ref = O;
},
{
pos = (166,0);
ref = tildecomb.case;
}
);
width = 747;
}
);
unicode = 213;
},
{
glyphname = OE;
kernLeft = C;
lastChange = "2023-02-24 13:30:51 +0000";
layers = (
{
background = {
shapes = (
{
closed = 1;
nodes = (
(523,696,l),
(467,705,o),
(412,712,o),
(355,712,cs),
(178,712,o),
(40,594,o),
(40,341,cs),
(40,98,o),
(179,-12,o),
(361,-12,cs),
(411,-12,o),
(472,-5,o),
(525,8,c),
(545,52,l),
(518,68,l),
(464,47,o),
(422,36,o),
(375,36,cs),
(235,36,o),
(128,141,o),
(128,355,cs),
(128,484,o),
(167,591,o),
(230,639,c),
(276,655,o),
(318,661,o),
(360,661,cs),
(409,661,o),
(457,652,o),
(508,638,c,{
name = hr00;
})
);
},
{
closed = 1;
nodes = (
(828,541,o),
(863,541,o),
(871,541,c),
(895,690,l),
(894,700,o),
(881,700,o),
(863,700,cs,{
name = hr01;
}),
(523,696,l),
(429,700,o),
(420,700,o),
(420,700,c),
(405,700,o),
(405,677,o),
(405,670,c),
(489,648,l),
(489,52,l),
(405,30,l),
(405,23,o),
(405,0,o),
(420,0,c),
(525,8,l),
(869,0,ls),
(889,0,o),
(897,1,o),
(898,12,cs),
(906,163,l),
(899,163,o),
(864,163,o),
(864,149,c),
(838,55,l,{
name = hr02;
}),
(563,55,l),
(572,326,l),
(828,339,l),
(828,382,l),
(572,382,l),
(563,646,l),
(828,649,l),
(828,555,ls)
);
}
);
};
layerId = master01;
shapes = (
{
closed = 1;
nodes = (
(523,696,l),
(467,705,o),
(412,712,o),
(355,712,cs),
(178,712,o),
(40,594,o),
(40,341,cs),
(40,98,o),
(179,-12,o),
(361,-12,cs),
(411,-12,o),
(472,-5,o),
(525,8,c),
(545,52,l),
(518,68,l),
(464,47,o),
(422,36,o),
(375,36,cs),
(235,36,o),
(128,141,o),
(128,355,cs),
(128,484,o),
(167,591,o),
(230,639,c),
(276,655,o),
(318,661,o),
(360,661,cs),
(409,661,o),
(457,652,o),
(508,638,c,{
name = hr00;
})
);
},
{
pos = (355,0);
ref = E;
}
);
width = 956;
}
);
unicode = 338;
},
{
glyphname = P;
kernRight = P;
lastChange = "2023-02-24 13:31:13 +0000";
layers = (
{
anchors = (
{
name = bottom;
pos = (282,0);
},
{
name = top;
pos = (282,700);
}
);
background = {
shapes = (
{
closed = 1;
nodes = (
(134,52,l),
(50,30,l),
(50,23,o),
(50,0,o),
(65,0,cs),
(65,0,o),
(74,0,o),
(168,4,c),
(261,0,o),
(304,0,o),
(304,0,c),
(319,0,o),
(319,23,o),
(319,30,c),
(208,52,l),
(215,276,l),
(282,282,ls),
(451,298,o),
(533,394,o),
(533,497,cs),
(533,610,o),
(456,700,o),
(326,700,c),
(168,696,l),
(74,700,o),
(65,700,o),
(65,700,c),
(50,700,o),
(50,677,o),
(50,670,c),
(134,648,l,{
name = hr00;
})
);
},
{
closed = 1;
nodes = (
(414,658,o),
(461,578,o),
(461,498,cs),
(461,416,o),
(411,327,o),
(290,327,c),
(218,331,l),
(208,648,l),
(308,658,l)
);
}
);
};
layerId = master01;
shapes = (
{
closed = 1;
nodes = (
(134,52,l),
(50,30,l),
(50,23,o),
(50,0,o),
(65,0,cs),
(65,0,o),
(74,0,o),
(168,4,c),
(261,0,o),
(304,0,o),
(304,0,c),
(319,0,o),
(319,23,o),
(319,30,c),
(208,52,l),
(215,276,l),
(282,282,ls),
(451,298,o),
(533,394,o),
(533,497,cs),
(533,610,o),
(456,700,o),
(326,700,c),
(168,696,l),
(74,700,o),
(65,700,o),
(65,700,c),
(50,700,o),
(50,677,o),
(50,670,c),
(134,648,l,{
name = hr00;
})
);
},
{
closed = 1;
nodes = (
(414,658,o),
(461,578,o),
(461,498,cs),
(461,416,o),
(411,327,o),
(290,327,c),
(218,331,l),
(208,648,l),
(308,658,l)
);
}
);
width = 563;
}
);
unicode = 80;
},
{
glyphname = Thorn;
kernRight = P;
lastChange = "2023-02-24 13:31:13 +0000";
layers = (
{
background = {
shapes = (
{
closed = 1;
nodes = (
(413,534,o),
(460,454,o),
(460,374,cs),
(460,292,o),
(410,203,o),
(289,203,c),
(212,208,l),
(153,154,l,{
name = hr01;
}),
(281,161,ls,{
name = hr02;
}),
(451,170,o),
(532,270,o),
(532,373,cs),
(532,486,o),
(455,576,o),
(325,576,c),
(167,572,l),
(207,524,l),
(307,534,l)
);
},
{
closed = 1;
nodes = (
(131,350,l),
(136,52,l),
(50,30,l),
(50,23,o),
(50,0,o),
(65,0,cs),
(65,0,o),
(83,0,o),
(177,4,c),
(270,0,o),
(280,0,o),
(280,0,c),
(295,0,o),
(295,23,o),
(295,30,c),
(209,52,l),
(214,350,l),
(209,648,l),
(295,670,l),
(295,677,o),
(295,700,o),
(280,700,cs),
(280,700,o),
(270,700,o),
(177,696,c),
(83,700,o),
(65,700,o),
(65,700,c),
(50,700,o),
(50,677,o),
(50,670,c),
(136,648,l,{
name = hr00;
})
);
}
);
};
layerId = master01;
shapes = (
{
closed = 1;
nodes = (
(413,534,o),
(460,454,o),
(460,374,cs),
(460,292,o),
(410,203,o),
(289,203,c),
(212,208,l),
(153,154,l,{
name = hr01;
}),
(281,161,ls,{
name = hr02;
}),
(451,170,o),
(532,270,o),
(532,373,cs),
(532,486,o),
(455,576,o),
(325,576,c),
(167,572,l),
(207,524,l),
(307,534,l)
);
},
{
ref = I;
}
);
width = 562;
}
);
unicode = 222;
},
{
glyphname = Q;
kernLeft = C;
kernRight = D;
lastChange = "2023-02-24 13:31:00 +0000";
layers = (
{
anchors = (
{
name = bottom;
pos = (374,0);
},
{
name = top;
pos = (374,700);
}
);
background = {
shapes = (
{
closed = 1;
nodes = (
(465,-224,o),
(477,-231,o),
(493,-231,cs),
(509,-231,o),
(529,-225,o),
(553,-210,c),
(426,-8,l),
(592,16,o),
(707,137,o),
(707,363,cs),
(707,597,o),
(560,712,o),
(379,712,cs),
(192,712,o),
(40,588,o),
(40,354,cs),
(40,109,o),
(178,-12,o),
(368,-12,c),
(460,-212,ls,{
name = hr00;
})
);
},
{
closed = 1;
nodes = (
(128,480,o),
(167,587,o),
(229,634,c),
(268,647,o),
(324,658,o),
(373,658,cs),
(513,658,o),
(619,557,o),
(619,352,cs),
(619,140,o),
(513,36,o),
(373,36,cs),
(234,36,o),
(128,140,o),
(128,352,cs)
);
}
);
};
layerId = master01;
shapes = (
{
closed = 1;
nodes = (
(465,-224,o),
(477,-231,o),
(493,-231,cs),
(509,-231,o),
(529,-225,o),
(553,-210,c),
(426,-8,l),
(592,16,o),
(707,137,o),
(707,363,cs),
(707,597,o),
(560,712,o),
(379,712,cs),
(192,712,o),
(40,588,o),
(40,354,cs),
(40,109,o),
(178,-12,o),
(368,-12,c),
(460,-212,ls,{
name = hr00;
})
);
},
{
closed = 1;
nodes = (
(128,480,o),
(167,587,o),
(229,634,c),
(268,647,o),
(324,658,o),
(373,658,cs),
(513,658,o),
(619,557,o),
(619,352,cs),
(619,140,o),
(513,36,o),
(373,36,cs),
(234,36,o),
(128,140,o),
(128,352,cs)
);
}
);
width = 747;
}
);
unicode = 81;
},
{
glyphname = R;
lastChange = "2023-02-24 11:13:39 +0000";
layers = (
{
anchors = (
{
name = bottom;
pos = (332,0);
},
{
name = top;
pos = (318,700);
}
);
background = {
shapes = (
{
closed = 1;
nodes = (
(134,52,l),
(50,30,l),
(50,23,o),
(50,0,o),
(65,0,cs),
(65,0,o),
(74,0,o),
(168,4,c),
(261,0,o),
(294,0,o),
(294,0,c),
(309,0,o),
(309,23,o),
(309,30,c),
(208,52,l),
(216,301,l),
(310,316,l),
(322,308,o),
(333,294,o),
(345,272,cs),
(489,0,l),
(620,0,ls),
(635,0,o),
(635,23,o),
(635,30,c),
(555,52,l),
(427,276,ls),
(410,305,o),
(394,321,o),
(379,330,c),
(474,362,o),
(523,440,o),
(523,508,cs),
(523,611,o),
(449,700,o),
(324,700,cs),
(321,700,o),
(319,700,o),
(168,696,c),
(74,700,o),
(65,700,o),
(65,700,c),
(50,700,o),
(50,677,o),
(50,670,c),
(134,648,l,{
name = hr00;
})
);
},
{
closed = 1;
nodes = (
(404,658,o),
(451,583,o),
(451,510,cs),
(451,434,o),
(401,354,o),
(280,354,c),
(217,358,l),
(208,648,l),
(298,658,l)
);
}
);
};
layerId = master01;
shapes = (
{
closed = 1;
nodes = (
(134,52,l),
(50,30,l),
(50,23,o),
(50,0,o),
(65,0,cs),
(65,0,o),
(74,0,o),
(168,4,c),
(261,0,o),
(294,0,o),
(294,0,c),
(309,0,o),
(309,23,o),
(309,30,c),
(208,52,l),
(216,301,l),
(310,316,l),
(322,308,o),
(333,294,o),
(345,272,cs),
(489,0,l),
(620,0,ls),
(635,0,o),
(635,23,o),
(635,30,c),
(555,52,l),
(427,276,ls),
(410,305,o),
(394,321,o),
(379,330,c),
(474,362,o),
(523,440,o),
(523,508,cs),
(523,611,o),
(449,700,o),
(324,700,cs),
(321,700,o),
(319,700,o),
(168,696,c),
(74,700,o),
(65,700,o),
(65,700,c),
(50,700,o),
(50,677,o),
(50,670,c),
(134,648,l,{
name = hr00;
})
);
},
{
closed = 1;
nodes = (
(404,658,o),
(451,583,o),
(451,510,cs),
(451,434,o),
(401,354,o),
(280,354,c),
(217,358,l),
(208,648,l),
(298,658,l)
);
}
);
width = 596;
}
);
unicode = 82;
},
{
glyphname = Racute;
lastChange = "2023-02-24 11:13:39 +0000";
layers = (
{
background = {
shapes = (
{
closed = 1;
nodes = (
(134,52,l),
(50,30,l),
(50,23,o),
(50,0,o),
(65,0,cs),
(65,0,o),
(74,0,o),
(168,4,c),
(261,0,o),
(294,0,o),
(294,0,c),
(309,0,o),
(309,23,o),
(309,30,c),
(208,52,l),
(216,301,l),
(310,316,l),
(322,308,o),
(333,294,o),
(345,272,cs),
(489,0,l),
(620,0,ls),
(635,0,o),
(635,23,o),
(635,30,c),
(555,52,l),
(427,276,ls),
(410,305,o),
(394,321,o),
(379,330,c),
(474,362,o),
(523,440,o),
(523,508,cs),
(523,611,o),
(449,700,o),
(324,700,cs),
(321,700,o),
(319,700,o),
(168,696,c),
(74,700,o),
(65,700,o),
(65,700,c),
(50,700,o),
(50,677,o),
(50,670,c),
(134,648,l,{
name = hr00;
})
);
},
{
closed = 1;
nodes = (
(404,658,o),
(451,583,o),
(451,510,cs),
(451,434,o),
(401,354,o),
(280,354,c),
(217,358,l),
(208,648,l),
(298,658,l)
);
},
{
closed = 1;
nodes = (
(266,772,o),
(364,802,o),
(431,845,cs),
(435,847,o),
(436,852,o),
(436,857,cs),
(436,877,o),
(416,918,o),
(411,924,c),
(316,847,o),
(219,781,o),
(219,781,c),
(230,762,l,{
name = hr00;
})
);
}
);
};
layerId = master01;
shapes = (
{
ref = R;
},
{
pos = (159,0);
ref = acutecomb.case;
}
);
width = 596;
}
);
unicode = 340;
},
{
glyphname = Rcaron;
lastChange = "2023-02-24 11:13:39 +0000";
layers = (
{
background = {
shapes = (
{
closed = 1;
nodes = (
(134,52,l),
(50,30,l),
(50,23,o),
(50,0,o),
(65,0,cs),
(65,0,o),
(74,0,o),
(168,4,c),
(261,0,o),
(294,0,o),
(294,0,c),
(309,0,o),
(309,23,o),
(309,30,c),
(208,52,l),
(216,301,l),
(310,316,l),
(322,308,o),
(333,294,o),
(345,272,cs),
(489,0,l),
(620,0,ls),
(635,0,o),
(635,23,o),
(635,30,c),
(555,52,l),
(427,276,ls),
(410,305,o),
(394,321,o),
(379,330,c),
(474,362,o),
(523,440,o),
(523,508,cs),
(523,611,o),
(449,700,o),
(324,700,cs),
(321,700,o),
(319,700,o),
(168,696,c),
(74,700,o),
(65,700,o),
(65,700,c),
(50,700,o),
(50,677,o),
(50,670,c),
(134,648,l,{
name = hr00;
})
);
},
{
closed = 1;
nodes = (
(404,658,o),
(451,583,o),
(451,510,cs),
(451,434,o),
(401,354,o),
(280,354,c),
(217,358,l),
(208,648,l),
(298,658,l)
);
},
{
closed = 1;
nodes = (
(222,929,l),
(195,912,l),
(235,849,o),
(265,796,o),
(284,753,c),
(329,753,l),
(355,796,o),
(392,849,o),
(440,912,c),
(415,929,l),
(312,827,l,{
name = hr00;
})
);
}
);
};
layerId = master01;
shapes = (
{
ref = R;
},
{
pos = (146,0);
ref = caroncomb.case;
}
);
width = 596;
}
);
unicode = 344;
},
{
glyphname = Rcommaaccent;
lastChange = "2023-02-24 11:13:39 +0000";
layers = (
{
anchors = (
{
name = bottom;
pos = (298,-307);
}
);
background = {
shapes = (
{
closed = 1;
nodes = (
(134,52,l),
(50,30,l),
(50,23,o),
(50,0,o),
(65,0,cs),
(65,0,o),
(74,0,o),
(168,4,c),
(261,0,o),
(294,0,o),
(294,0,c),
(309,0,o),
(309,23,o),
(309,30,c),
(208,52,l),
(216,301,l),
(310,316,l),
(322,308,o),
(333,294,o),
(345,272,cs),
(489,0,l),
(620,0,ls),
(635,0,o),
(635,23,o),
(635,30,c),
(555,52,l),
(427,276,ls),
(410,305,o),
(394,321,o),
(379,330,c),
(474,362,o),
(523,440,o),
(523,508,cs),
(523,611,o),
(449,700,o),
(324,700,cs),
(321,700,o),
(319,700,o),
(168,696,c),
(74,700,o),
(65,700,o),
(65,700,c),
(50,700,o),
(50,677,o),
(50,670,c),
(134,648,l,{
name = hr00;
})
);
},
{
closed = 1;
nodes = (
(404,658,o),
(451,583,o),
(451,510,cs),
(451,434,o),
(401,354,o),
(280,354,c),
(217,358,l),
(208,648,l),
(298,658,l)
);
},
{
closed = 1;
nodes = (
(363,-285,o),
(410,-226,o),
(410,-159,cs),
(410,-95,o),
(391,-50,o),
(364,-50,cs),
(346,-50,o),
(323,-53,o),
(305,-57,c),
(300,-81,o),
(297,-103,o),
(297,-122,cs),
(297,-162,o),
(309,-182,o),
(334,-182,cs),
(340,-182,o),
(343,-182,o),
(350,-181,c),
(350,-186,ls),
(350,-226,o),
(326,-259,o),
(286,-277,c),
(298,-307,l,{
name = hr00;
})
);
}
);
};
layerId = master01;
shapes = (
{
ref = R;
},
{
pos = (208,0);
ref = commaaccentcomb;
}
);
width = 596;
}
);
unicode = 342;
},
{
glyphname = S;
lastChange = "2023-02-24 11:13:39 +0000";
layers = (
{
anchors = (
{
name = bottom;
pos = (258,0);
},
{
name = top;
pos = (287,700);
}
);
background = {
shapes = (
{
closed = 1;
nodes = (
(504,227,o),
(464,292,o),
(386,337,cs),
(214,435,ls),
(176,457,o),
(139,490,o),
(139,547,cs),
(139,559,o),
(140,573,o),
(144,587,c),
(178,642,o),
(236,662,o),
(292,662,cs),
(334,662,o),
(375,650,o),
(403,637,c),
(403,536,ls),
(403,522,o),
(437,522,o),
(445,522,c),
(471,676,l),
(415,697,o),
(356,712,o),
(298,712,c),
(150,712,o),
(69,622,o),
(69,528,cs),
(69,468,o),
(102,407,o),
(171,368,cs),
(348,267,ls),
(404,235,o),
(419,190,o),
(419,157,cs),
(419,92,o),
(376,36,o),
(276,36,cs),
(225,36,o),
(163,51,o),
(121,78,c),
(121,189,ls),
(121,201,o),
(86,201,o),
(78,201,cs),
(77,201,o),
(60,79,o),
(55,36,c),
(132,3,o),
(201,-12,o),
(268,-12,cs),
(402,-12,o),
(504,51,o),
(504,170,cs,{
name = hr00;
})
);
}
);
};
layerId = master01;
shapes = (
{
closed = 1;
nodes = (
(504,227,o),
(464,292,o),
(386,337,cs),
(214,435,ls),
(176,457,o),
(139,490,o),
(139,547,cs),
(139,559,o),
(140,573,o),
(144,587,c),
(178,642,o),
(236,662,o),
(292,662,cs),
(334,662,o),
(375,650,o),
(403,637,c),
(403,536,ls),
(403,522,o),
(437,522,o),
(445,522,c),
(471,676,l),
(415,697,o),
(356,712,o),
(298,712,c),
(150,712,o),
(69,622,o),
(69,528,cs),
(69,468,o),
(102,407,o),
(171,368,cs),
(348,267,ls),
(404,235,o),
(419,190,o),
(419,157,cs),
(419,92,o),
(376,36,o),
(276,36,cs),
(225,36,o),
(163,51,o),
(121,78,c),
(121,189,ls),
(121,201,o),
(86,201,o),
(78,201,cs),
(77,201,o),
(60,79,o),
(55,36,c),
(132,3,o),
(201,-12,o),
(268,-12,cs),
(402,-12,o),
(504,51,o),
(504,170,cs,{
name = hr00;
})
);
}
);
width = 554;
}
);
unicode = 83;
},
{
glyphname = Sacute;
lastChange = "2023-02-24 11:13:39 +0000";
layers = (
{
background = {
shapes = (
{
closed = 1;
nodes = (
(504,227,o),
(464,292,o),
(386,337,cs),
(214,435,ls),
(176,457,o),
(139,490,o),
(139,547,cs),
(139,559,o),
(140,573,o),
(144,587,c),
(178,642,o),
(236,662,o),
(292,662,cs),
(334,662,o),
(375,650,o),
(403,637,c),
(403,536,ls),
(403,522,o),
(437,522,o),
(445,522,c),
(471,676,l),
(415,697,o),
(356,712,o),
(298,712,c),
(150,712,o),
(69,622,o),
(69,528,cs),
(69,468,o),
(102,407,o),
(171,368,cs),
(348,267,ls),
(404,235,o),
(419,190,o),
(419,157,cs),
(419,92,o),
(376,36,o),
(276,36,cs),
(225,36,o),
(163,51,o),
(121,78,c),
(121,189,ls),
(121,201,o),
(86,201,o),
(78,201,cs),
(77,201,o),
(60,79,o),
(55,36,c),
(132,3,o),
(201,-12,o),
(268,-12,cs),
(402,-12,o),
(504,51,o),
(504,170,cs,{
name = hr00;
})
);
},
{
closed = 1;
nodes = (
(235,772,o),
(333,802,o),
(400,845,cs),
(404,847,o),
(405,852,o),
(405,857,cs),
(405,877,o),
(385,918,o),
(380,924,c),
(285,847,o),
(188,781,o),
(188,781,c),
(199,762,l,{
name = hr00;
})
);
}
);
};
layerId = master01;
shapes = (
{
ref = S;
},
{
pos = (128,0);
ref = acutecomb.case;
}
);
width = 554;
}
);
unicode = 346;
},
{
glyphname = Scaron;
lastChange = "2023-02-24 11:13:39 +0000";
layers = (
{
background = {
shapes = (
{
closed = 1;
nodes = (
(494,227,o),
(454,292,o),
(376,337,cs),
(204,435,ls),
(166,457,o),
(129,490,o),
(129,547,cs),
(129,559,o),
(130,573,o),
(134,587,c),
(168,642,o),
(226,662,o),
(282,662,cs),
(324,662,o),
(365,650,o),
(393,637,c),
(393,536,ls),
(393,522,o),
(427,522,o),
(435,522,c),
(461,676,l),
(405,697,o),
(346,712,o),
(288,712,c),
(140,712,o),
(59,622,o),
(59,528,cs),
(59,468,o),
(92,407,o),
(161,368,cs),
(338,267,ls),
(394,235,o),
(409,190,o),
(409,157,cs),
(409,92,o),
(366,36,o),
(266,36,cs),
(215,36,o),
(153,51,o),
(111,78,c),
(111,189,ls),
(111,201,o),
(76,201,o),
(68,201,cs),
(67,201,o),
(50,79,o),
(45,36,c),
(122,3,o),
(191,-12,o),
(258,-12,cs),
(392,-12,o),
(494,51,o),
(494,170,cs,{
name = hr00;
})
);
},
{
closed = 1;
nodes = (
(195,929,l),
(168,912,l),
(208,849,o),
(238,796,o),
(257,753,c),
(302,753,l),
(328,796,o),
(365,849,o),
(413,912,c),
(388,929,l),
(285,827,l,{
name = hr00;
})
);
}
);
};
layerId = master01;
shapes = (
{
ref = S;
},
{
pos = (115,0);
ref = caroncomb.case;
}
);
width = 554;
}
);
unicode = 352;
},
{
glyphname = Scedilla;
lastChange = "2023-02-24 11:13:39 +0000";
layers = (
{
background = {
shapes = (
{
closed = 1;
nodes = (
(504,227,o),
(464,292,o),
(386,337,cs),
(214,435,ls),
(176,457,o),
(139,490,o),
(139,547,cs),
(139,559,o),
(140,573,o),
(144,587,c),
(178,642,o),
(236,662,o),
(292,662,cs),
(334,662,o),
(375,650,o),
(403,637,c),
(403,536,ls),
(403,522,o),
(437,522,o),
(445,522,c),
(471,676,l),
(415,697,o),
(356,712,o),
(298,712,c),
(150,712,o),
(69,622,o),
(69,528,cs),
(69,468,o),
(102,407,o),
(171,368,cs),
(348,267,ls),
(404,235,o),
(419,190,o),
(419,157,cs),
(419,92,o),
(376,36,o),
(276,36,cs),
(225,36,o),
(163,51,o),
(121,78,c),
(121,189,ls),
(121,201,o),
(86,201,o),
(78,201,cs),
(77,201,o),
(60,79,o),
(55,36,c),
(132,3,o),
(201,-12,o),
(268,-12,cs),
(402,-12,o),
(504,51,o),
(504,170,cs,{
name = hr00;
})
);
},
{
closed = 1;
nodes = (
(265,-85,o),
(288,-114,o),
(288,-142,cs),
(288,-167,o),
(269,-191,o),
(236,-191,cs),
(217,-191,o),
(196,-184,o),
(181,-172,c),
(162,-202,l),
(180,-218,o),
(209,-233,o),
(248,-233,cs),
(311,-233,o),
(351,-186,o),
(351,-141,cs),
(351,-102,o),
(324,-64,o),
(261,-56,c),
(283,15,l),
(251,15,l),
(212,-83,l,{
name = hr00;
})
);
}
);
};
layerId = master01;
shapes = (
{
ref = S;
},
{
pos = (53,0);
ref = cedillacomb;
}
);
width = 554;
}
);
unicode = 350;
},
{
glyphname = Scircumflex;
lastChange = "2023-02-24 11:01:28 +0000";
layers = (
{
background = {
shapes = (
{
closed = 1;
nodes = (
(504,227,o),
(464,292,o),
(386,337,cs),
(214,435,ls),
(176,457,o),
(139,490,o),
(139,547,cs),
(139,559,o),
(140,573,o),
(144,587,c),
(178,642,o),
(236,662,o),
(292,662,cs),
(334,662,o),
(375,650,o),
(403,637,c),
(403,536,ls),
(403,522,o),
(437,522,o),
(445,522,c),
(471,676,l),
(415,697,o),
(356,712,o),
(298,712,c),
(150,712,o),
(69,622,o),
(69,528,cs),
(69,468,o),
(102,407,o),
(171,368,cs),
(348,267,ls),
(404,235,o),
(419,190,o),
(419,157,cs),
(419,92,o),
(376,36,o),
(276,36,cs),
(225,36,o),
(163,51,o),
(121,78,c),
(121,189,ls),
(121,201,o),
(86,201,o),
(78,201,cs),
(77,201,o),
(60,79,o),
(55,36,c),
(132,3,o),
(201,-12,o),
(268,-12,cs),
(402,-12,o),
(504,51,o),
(504,170,cs,{
name = hr00;
})
);
},
{
closed = 1;
nodes = (
(383,753,l),
(409,770,l),
(365,833,o),
(332,886,o),
(309,929,c),
(264,929,l),
(241,886,o),
(208,833,o),
(164,770,c),
(190,753,l),
(287,855,l,{
name = hr00;
})
);
}
);
};
layerId = master01;
shapes = (
{
ref = S;
},
{
pos = (119,0);
ref = circumflexcomb.case;
}
);
width = 554;
}
);
unicode = 348;
},
{
glyphname = Scommaaccent;
lastChange = "2023-02-24 13:43:40 +0000";
layers = (
{
anchors = (
{
name = bottom;
pos = (277,-307);
}
);
background = {
shapes = (
{
closed = 1;
nodes = (
(504,227,o),
(464,292,o),
(386,337,cs),
(214,435,ls),
(176,457,o),
(139,490,o),
(139,547,cs),
(139,559,o),
(140,573,o),
(144,587,c),
(178,642,o),
(236,662,o),
(292,662,cs),
(334,662,o),
(375,650,o),
(403,637,c),
(403,536,ls),
(403,522,o),
(437,522,o),
(445,522,c),
(471,676,l),
(415,697,o),
(356,712,o),
(298,712,c),
(150,712,o),
(69,622,o),
(69,528,cs),
(69,468,o),
(102,407,o),
(171,368,cs),
(348,267,ls),
(404,235,o),
(419,190,o),
(419,157,cs),
(419,92,o),
(376,36,o),
(276,36,cs),
(225,36,o),
(163,51,o),
(121,78,c),
(121,189,ls),
(121,201,o),
(86,201,o),
(78,201,cs),
(77,201,o),
(60,79,o),
(55,36,c),
(132,3,o),
(201,-12,o),
(268,-12,cs),
(402,-12,o),
(504,51,o),
(504,170,cs,{
name = hr00;
})
);
},
{
closed = 1;
nodes = (
(292,-285,o),
(339,-226,o),
(339,-159,cs),
(339,-95,o),
(320,-50,o),
(293,-50,cs),
(275,-50,o),
(252,-53,o),
(234,-57,c),
(229,-81,o),
(226,-103,o),
(226,-122,cs),
(226,-162,o),
(238,-182,o),
(263,-182,cs),
(269,-182,o),
(272,-182,o),
(279,-181,c),
(279,-186,ls),
(279,-226,o),
(255,-259,o),
(215,-277,c),
(227,-307,l,{
name = hr00;
})
);
}
);
};
layerId = master01;
shapes = (
{
ref = S;
},
{
pos = (134,0);
ref = commaaccentcomb;
}
);
width = 554;
}
);
unicode = 536;
},
{
glyphname = T;
kernLeft = T;
kernRight = T;
lastChange = "2023-02-24 13:36:11 +0000";
layers = (
{
anchors = (
{
name = bottom;
pos = (282,4);
},
{
name = center;
pos = (282,350);
},
{
name = top;
pos = (282,700);
}
);
background = {
shapes = (
{
closed = 1;
nodes = (
(37,700,ls,{
name = hr01;
}),
(19,700,o),
(6,700,o),
(5,690,c),
(16,533,l),
(24,533,o),
(58,533,o),
(58,547,cs),
(73,650,l),
(245,646,l),
(240,350,l),
(245,52,l),
(132,30,l),
(132,23,o),
(132,0,o),
(147,0,cs),
(147,0,o),
(190,0,o),
(284,4,c),
(377,0,o),
(416,0,o),
(416,0,c),
(431,0,o),
(431,23,o),
(431,30,c),
(318,52,l),
(323,350,l),
(318,646,l),
(490,650,l),
(505,547,l),
(505,533,o),
(539,533,o),
(547,533,c),
(558,690,l),
(557,700,o),
(544,700,o),
(526,700,cs),
(281,695,l)
);
}
);
};
layerId = master01;
shapes = (
{
closed = 1;
nodes = (
(37,700,ls,{
name = hr01;
}),
(19,700,o),
(6,700,o),
(5,690,c),
(16,533,l),
(24,533,o),
(56,533,o),
(58,547,cs),
(73,650,l),
(245,646,l),
(240,350,l),
(245,52,l),
(132,30,l),
(132,23,o),
(132,0,o),
(147,0,cs),
(147,0,o),
(190,0,o),
(284,4,c),
(377,0,o),
(416,0,o),
(416,0,c),
(431,0,o),
(431,23,o),
(431,30,c),
(318,52,l),
(323,350,l),
(318,646,l),
(490,650,l),
(505,547,l),
(505,533,o),
(539,533,o),
(547,533,c),
(558,690,l),
(557,700,o),
(544,700,o),
(526,700,cs),
(281,695,l)
);
}
);
width = 563;
}
);
unicode = 84;
},
{
glyphname = Tbar;
kernLeft = T;
kernRight = T;
lastChange = "2023-02-24 13:36:11 +0000";
layers = (
{
background = {
shapes = (
{
closed = 1;
nodes = (
(37,700,ls,{
name = hr01;
}),
(19,700,o),
(6,700,o),
(5,690,c),
(16,533,l),
(24,533,o),
(58,533,o),
(58,547,cs),
(73,650,l),
(245,646,l),
(240,350,l),
(245,52,l),
(132,30,l),
(132,23,o),
(132,0,o),
(147,0,cs),
(147,0,o),
(190,0,o),
(284,4,c),
(377,0,o),
(416,0,o),
(416,0,c),
(431,0,o),
(431,23,o),
(431,30,c),
(318,52,l),
(323,350,l),
(318,646,l),
(490,650,l),
(505,547,l),
(505,533,o),
(539,533,o),
(547,533,c),
(558,690,l),
(557,700,o),
(544,700,o),
(526,700,cs),
(281,695,l)
);
},
{
closed = 1;
nodes = (
(54,371,l),
(54,338,l),
(508,338,l),
(508,371,l,{
name = hr00;
})
);
}
);
};
layerId = master01;
shapes = (
{
alignment = -1;
ref = T;
},
{
closed = 1;
nodes = (
(54,371,l),
(54,338,l),
(508,338,l),
(508,371,l,{
name = hr00;
})
);
}
);
width = 563;
}
);
unicode = 358;
},
{
glyphname = Tcaron;
kernLeft = T;
kernRight = T;
lastChange = "2023-02-24 13:36:11 +0000";
layers = (
{
background = {
shapes = (
{
closed = 1;
nodes = (
(37,700,ls,{
name = hr01;
}),
(19,700,o),
(6,700,o),
(5,690,c),
(16,533,l),
(24,533,o),
(58,533,o),
(58,547,cs),
(73,650,l),
(245,646,l),
(240,350,l),
(245,52,l),
(132,30,l),
(132,23,o),
(132,0,o),
(147,0,cs),
(147,0,o),
(190,0,o),
(284,4,c),
(377,0,o),
(416,0,o),
(416,0,c),
(431,0,o),
(431,23,o),
(431,30,c),
(318,52,l),
(323,350,l),
(318,646,l),
(490,650,l),
(505,547,l),
(505,533,o),
(539,533,o),
(547,533,c),
(558,690,l),
(557,700,o),
(544,700,o),
(526,700,cs),
(281,695,l)
);
},
{
closed = 1;
nodes = (
(186,929,l),
(159,912,l),
(199,849,o),
(229,796,o),
(248,753,c),
(293,753,l),
(319,796,o),
(356,849,o),
(404,912,c),
(379,929,l),
(276,827,l,{
name = hr00;
})
);
}
);
};
layerId = master01;
shapes = (
{
ref = T;
},
{
pos = (110,0);
ref = caroncomb.case;
}
);
width = 563;
}
);
unicode = 356;
},
{
glyphname = Tcedilla;
kernLeft = T;
kernRight = T;
lastChange = "2023-02-24 13:36:11 +0000";
layers = (
{
background = {
shapes = (
{
closed = 1;
nodes = (
(37,700,ls,{
name = hr01;
}),
(19,700,o),
(6,700,o),
(5,690,c),
(16,533,l),
(24,533,o),
(58,533,o),
(58,547,cs),
(73,650,l),
(245,646,l),
(240,350,l),
(245,52,l),
(132,30,l),
(132,23,o),
(132,0,o),
(147,0,cs),
(147,0,o),
(190,0,o),
(284,4,c),
(377,0,o),
(416,0,o),
(416,0,c),
(431,0,o),
(431,23,o),
(431,30,c),
(318,52,l),
(323,350,l),
(318,646,l),
(490,650,l),
(505,547,l),
(505,533,o),
(539,533,o),
(547,533,c),
(558,690,l),
(557,700,o),
(544,700,o),
(526,700,cs),
(281,695,l)
);
},
{
closed = 1;
nodes = (
(290,-85,o),
(313,-114,o),
(313,-142,cs),
(313,-167,o),
(294,-191,o),
(261,-191,cs),
(242,-191,o),
(221,-184,o),
(206,-172,c),
(187,-202,l),
(205,-218,o),
(234,-233,o),
(273,-233,cs),
(336,-233,o),
(376,-186,o),
(376,-141,cs),
(376,-102,o),
(349,-64,o),
(286,-56,c),
(308,15,l),
(276,15,l),
(237,-83,l,{
name = hr00;
})
);
}
);
};
layerId = master01;
shapes = (
{
ref = T;
},
{
pos = (77,4);
ref = cedillacomb;
}
);
width = 563;
}
);
unicode = 354;
},
{
glyphname = Tcommaaccent;
kernLeft = T;
kernRight = T;
lastChange = "2023-02-24 13:43:40 +0000";
layers = (
{
anchors = (
{
name = bottom;
pos = (282,-307);
}
);
background = {
shapes = (
{
closed = 1;
nodes = (
(37,700,ls,{
name = hr01;
}),
(19,700,o),
(6,700,o),
(5,690,c),
(16,533,l),
(24,533,o),
(58,533,o),
(58,547,cs),
(73,650,l),
(245,646,l),
(240,350,l),
(245,52,l),
(132,30,l),
(132,23,o),
(132,0,o),
(147,0,cs),
(147,0,o),
(190,0,o),
(284,4,c),
(377,0,o),
(416,0,o),
(416,0,c),
(431,0,o),
(431,23,o),
(431,30,c),
(318,52,l),
(323,350,l),
(318,646,l),
(490,650,l),
(505,547,l),
(505,533,o),
(539,533,o),
(547,533,c),
(558,690,l),
(557,700,o),
(544,700,o),
(526,700,cs),
(281,695,l)
);
},
{
closed = 1;
nodes = (
(296,-285,o),
(343,-226,o),
(343,-159,cs),
(343,-95,o),
(324,-50,o),
(297,-50,cs),
(279,-50,o),
(256,-53,o),
(238,-57,c),
(233,-81,o),
(230,-103,o),
(230,-122,cs),
(230,-162,o),
(242,-182,o),
(267,-182,cs),
(273,-182,o),
(276,-182,o),
(283,-181,c),
(283,-186,ls),
(283,-226,o),
(259,-259,o),
(219,-277,c),
(231,-307,l,{
name = hr00;
})
);
}
);
};
layerId = master01;
shapes = (
{
ref = T;
},
{
pos = (158,4);
ref = commaaccentcomb;
}
);
width = 563;
}
);
unicode = 538;
},
{
glyphname = U;
lastChange = "2023-02-24 11:13:39 +0000";
layers = (
{
anchors = (
{
name = bottom;
pos = (367,0);
},
{
name = ogonek;
pos = (485,4);
},
{
name = top;
pos = (393,700);
},
{
name = topright;
pos = (713,700);
}
);
background = {
shapes = (
{
closed = 1;
nodes = (
(271,700,o),
(249,700,o),
(156,696,c),
(62,700,o),
(55,700,o),
(55,700,c),
(40,700,o),
(40,676,o),
(40,669,c),
(114,648,l),
(114,218,ls),
(114,55,o),
(217,-12,o),
(380,-12,cs),
(539,-12,o),
(633,82,o),
(633,218,cs),
(633,648,l),
(698,670,l),
(698,677,o),
(698,700,o),
(683,700,cs),
(683,700,o),
(677,699,o),
(605,696,c),
(496,700,ls),
(480,700,o),
(480,676,o),
(480,670,c),
(575,648,l),
(575,216,ls),
(575,127,o),
(515,43,o),
(382,43,cs),
(247,43,o),
(192,115,o),
(192,215,cs),
(192,648,l),
(287,670,l),
(287,676,o),
(287,700,o),
(271,700,c,{
name = hr00;
})
);
}
);
};
layerId = master01;
shapes = (
{
closed = 1;
nodes = (
(271,700,o),
(249,700,o),
(156,696,c),
(62,700,o),
(55,700,o),
(55,700,c),
(40,700,o),
(40,676,o),
(40,669,c),
(114,648,l),
(114,218,ls),
(114,55,o),
(217,-12,o),
(380,-12,cs),
(539,-12,o),
(633,82,o),
(633,218,cs),
(633,648,l),
(698,670,l),
(698,677,o),
(698,700,o),
(683,700,cs),
(683,700,o),
(677,699,o),
(605,696,c),
(496,700,ls),
(480,701,o),
(480,676,o),
(480,670,c),
(575,648,l),
(575,216,ls),
(575,127,o),
(515,43,o),
(382,43,cs),
(247,43,o),
(192,115,o),
(192,215,cs),
(192,648,l),
(287,670,l),
(287,676,o),
(287,700,o),
(271,700,c,{
name = hr00;
})
);
}
);
width = 733;
}
);
unicode = 85;
},
{
glyphname = Uacute;
lastChange = "2023-02-24 11:13:39 +0000";
layers = (
{
background = {
shapes = (
{
closed = 1;
nodes = (
(271,700,o),
(249,700,o),
(156,696,c),
(62,700,o),
(55,700,o),
(55,700,c),
(40,700,o),
(40,676,o),
(40,669,c),
(114,648,l),
(114,218,ls),
(114,55,o),
(217,-12,o),
(380,-12,cs),
(539,-12,o),
(633,82,o),
(633,218,cs),
(633,648,l),
(698,670,l),
(698,677,o),
(698,700,o),
(683,700,cs),
(683,700,o),
(677,699,o),
(605,696,c),
(496,700,ls),
(480,700,o),
(480,676,o),
(480,670,c),
(575,648,l),
(575,216,ls),
(575,127,o),
(515,43,o),
(382,43,cs),
(247,43,o),
(192,115,o),
(192,215,cs),
(192,648,l),
(287,670,l),
(287,676,o),
(287,700,o),
(271,700,c,{
name = hr00;
})
);
},
{
closed = 1;
nodes = (
(361,772,o),
(459,802,o),
(526,845,cs),
(530,847,o),
(531,852,o),
(531,857,cs),
(531,877,o),
(511,918,o),
(506,924,c),
(411,847,o),
(314,781,o),
(314,781,c),
(325,762,l,{
name = hr00;
})
);
}
);
};
layerId = master01;
shapes = (
{
ref = U;
},
{
pos = (234,0);
ref = acutecomb.case;
}
);
width = 733;
}
);
unicode = 218;
},
{
glyphname = Ubreve;
lastChange = "2023-02-24 11:13:39 +0000";
layers = (
{
background = {
shapes = (
{
closed = 1;
nodes = (
(271,700,o),
(249,700,o),
(156,696,c),
(62,700,o),
(55,700,o),
(55,700,c),
(40,700,o),
(40,676,o),
(40,669,c),
(114,648,l),
(114,218,ls),
(114,55,o),
(217,-12,o),
(380,-12,cs),
(539,-12,o),
(633,82,o),
(633,218,cs),
(633,648,l),
(698,670,l),
(698,677,o),
(698,700,o),
(683,700,cs),
(683,700,o),
(677,699,o),
(605,696,c),
(496,700,ls),
(480,700,o),
(480,676,o),
(480,670,c),
(575,648,l),
(575,216,ls),
(575,127,o),
(515,43,o),
(382,43,cs),
(247,43,o),
(192,115,o),
(192,215,cs),
(192,648,l),
(287,670,l),
(287,676,o),
(287,700,o),
(271,700,c,{
name = hr00;
})
);
},
{
closed = 1;
nodes = (
(358,821,o),
(329,857,o),
(307,913,c),
(273,905,l),
(305,808,o),
(336,754,o),
(396,754,cs),
(456,754,o),
(487,808,o),
(519,905,c),
(485,913,l),
(463,857,o),
(434,821,o),
(396,821,cs,{
name = hr00;
})
);
}
);
};
layerId = master01;
shapes = (
{
ref = U;
},
{
pos = (227,0);
ref = brevecomb.case;
}
);
width = 733;
}
);
unicode = 364;
},
{
glyphname = Ucircumflex;
lastChange = "2023-02-24 11:13:39 +0000";
layers = (
{
background = {
shapes = (
{
closed = 1;
nodes = (
(271,700,o),
(249,700,o),
(156,696,c),
(62,700,o),
(55,700,o),
(55,700,c),
(40,700,o),
(40,676,o),
(40,669,c),
(114,648,l),
(114,218,ls),
(114,55,o),
(217,-12,o),
(380,-12,cs),
(539,-12,o),
(633,82,o),
(633,218,cs),
(633,648,l),
(698,670,l),
(698,677,o),
(698,700,o),
(683,700,cs),
(683,700,o),
(677,699,o),
(605,696,c),
(496,700,ls),
(480,700,o),
(480,676,o),
(480,670,c),
(575,648,l),
(575,216,ls),
(575,127,o),
(515,43,o),
(382,43,cs),
(247,43,o),
(192,115,o),
(192,215,cs),
(192,648,l),
(287,670,l),
(287,676,o),
(287,700,o),
(271,700,c,{
name = hr00;
})
);
},
{
closed = 1;
nodes = (
(487,753,l),
(513,770,l),
(469,833,o),
(436,886,o),
(413,929,c),
(368,929,l),
(345,886,o),
(312,833,o),
(268,770,c),
(294,753,l),
(391,855,l,{
name = hr00;
})
);
}
);
};
layerId = master01;
shapes = (
{
ref = U;
},
{
pos = (225,0);
ref = circumflexcomb.case;
}
);
width = 733;
}
);
unicode = 219;
},
{
glyphname = Udieresis;
lastChange = "2023-02-24 11:13:39 +0000";
layers = (
{
background = {
shapes = (
{
closed = 1;
nodes = (
(271,700,o),
(249,700,o),
(156,696,c),
(62,700,o),
(55,700,o),
(55,700,c),
(40,700,o),
(40,676,o),
(40,669,c),
(114,648,l),
(114,218,ls),
(114,55,o),
(217,-12,o),
(380,-12,cs),
(539,-12,o),
(633,82,o),
(633,218,cs),
(633,648,l),
(698,670,l),
(698,677,o),
(698,700,o),
(683,700,cs),
(683,700,o),
(677,699,o),
(605,696,c),
(496,700,ls),
(480,700,o),
(480,676,o),
(480,670,c),
(575,648,l),
(575,216,ls),
(575,127,o),
(515,43,o),
(382,43,cs),
(247,43,o),
(192,115,o),
(192,215,cs),
(192,648,l),
(287,670,l),
(287,676,o),
(287,700,o),
(271,700,c,{
name = hr00;
})
);
},
{
closed = 1;
nodes = (
(351,903,o),
(359,877,o),
(359,850,cs),
(359,825,o),
(354,800,o),
(353,797,c),
(353,797,o),
(321,788,o),
(304,788,cs),
(278,788,o),
(272,814,o),
(272,840,cs),
(272,867,o),
(278,893,o),
(279,896,c),
(279,896,o),
(312,903,o),
(328,903,cs,{
name = hr00;
})
);
},
{
closed = 1;
nodes = (
(499,903,o),
(507,877,o),
(507,850,cs),
(507,825,o),
(502,800,o),
(501,797,c),
(501,797,o),
(469,788,o),
(452,788,cs),
(426,788,o),
(420,814,o),
(420,840,cs),
(420,867,o),
(426,893,o),
(427,896,c),
(427,896,o),
(460,903,o),
(476,903,cs)
);
}
);
};
layerId = master01;
shapes = (
{
ref = U;
},
{
pos = (203,0);
ref = dieresiscomb.case;
}
);
width = 733;
}
);
unicode = 220;
},
{
glyphname = Ugrave;
lastChange = "2023-02-24 11:13:39 +0000";
layers = (
{
background = {
shapes = (
{
closed = 1;
nodes = (
(271,700,o),
(249,700,o),
(156,696,c),
(62,700,o),
(55,700,o),
(55,700,c),
(40,700,o),
(40,676,o),
(40,669,c),
(114,648,l),
(114,218,ls),
(114,55,o),
(217,-12,o),
(380,-12,cs),
(539,-12,o),
(633,82,o),
(633,218,cs),
(633,648,l),
(698,670,l),
(698,677,o),
(698,700,o),
(683,700,cs),
(683,700,o),
(677,699,o),
(605,696,c),
(496,700,ls),
(480,700,o),
(480,676,o),
(480,670,c),
(575,648,l),
(575,216,ls),
(575,127,o),
(515,43,o),
(382,43,cs),
(247,43,o),
(192,115,o),
(192,215,cs),
(192,648,l),
(287,670,l),
(287,676,o),
(287,700,o),
(271,700,c,{
name = hr00;
})
);
},
{
closed = 1;
nodes = (
(475,781,o),
(378,847,o),
(283,924,c),
(278,918,o),
(258,877,o),
(258,857,cs),
(258,852,o),
(259,847,o),
(263,845,cs),
(330,802,o),
(428,772,o),
(464,762,c),
(475,781,l,{
name = hr00;
})
);
}
);
};
layerId = master01;
shapes = (
{
ref = U;
},
{
pos = (234,0);
ref = gravecomb.case;
}
);
width = 733;
}
);
unicode = 217;
},
{
glyphname = Uhungarumlaut;
lastChange = "2023-02-24 11:13:39 +0000";
layers = (
{
background = {
shapes = (
{
closed = 1;
nodes = (
(271,700,o),
(249,700,o),
(156,696,c),
(62,700,o),
(55,700,o),
(55,700,c),
(40,700,o),
(40,676,o),
(40,669,c),
(114,648,l),
(114,218,ls),
(114,55,o),
(217,-12,o),
(380,-12,cs),
(539,-12,o),
(633,82,o),
(633,218,cs),
(633,648,l),
(698,670,l),
(698,677,o),
(698,700,o),
(683,700,cs),
(683,700,o),
(677,699,o),
(605,696,c),
(496,700,ls),
(480,700,o),
(480,676,o),
(480,670,c),
(575,648,l),
(575,216,ls),
(575,127,o),
(515,43,o),
(382,43,cs),
(247,43,o),
(192,115,o),
(192,215,cs),
(192,648,l),
(287,670,l),
(287,676,o),
(287,700,o),
(271,700,c,{
name = hr00;
})
);
},
{
closed = 1;
nodes = (
(286,772,o),
(374,802,o),
(441,845,cs),
(445,847,o),
(446,852,o),
(446,857,cs),
(446,877,o),
(426,918,o),
(421,924,c),
(326,837,o),
(239,781,o),
(239,781,c),
(250,762,l,{
name = hr00;
})
);
},
{
closed = 1;
nodes = (
(453,772,o),
(541,802,o),
(608,845,cs),
(612,847,o),
(613,852,o),
(613,857,cs),
(613,877,o),
(593,918,o),
(588,924,c),
(493,837,o),
(406,781,o),
(406,781,c),
(417,762,l)
);
}
);
};
layerId = master01;
shapes = (
{
ref = U;
},
{
pos = (186,0);
ref = hungarumlautcomb.case;
}
);
width = 733;
}
);
unicode = 368;
},
{
glyphname = Umacron;
lastChange = "2023-02-24 11:13:39 +0000";
layers = (
{
background = {
shapes = (
{
closed = 1;
nodes = (
(271,700,o),
(249,700,o),
(156,696,c),
(62,700,o),
(55,700,o),
(55,700,c),
(40,700,o),
(40,676,o),
(40,669,c),
(114,648,l),
(114,218,ls),
(114,55,o),
(217,-12,o),
(380,-12,cs),
(539,-12,o),
(633,82,o),
(633,218,cs),
(633,648,l),
(698,670,l),
(698,677,o),
(698,700,o),
(683,700,cs),
(683,700,o),
(677,699,o),
(605,696,c),
(496,700,ls),
(480,700,o),
(480,676,o),
(480,670,c),
(575,648,l),
(575,216,ls),
(575,127,o),
(515,43,o),
(382,43,cs),
(247,43,o),
(192,115,o),
(192,215,cs),
(192,648,l),
(287,670,l),
(287,676,o),
(287,700,o),
(271,700,c,{
name = hr00;
})
);
},
{
closed = 1;
nodes = (
(537,814,l),
(537,877,l),
(256,877,l),
(256,814,l,{
name = hr00;
})
);
}
);
};
layerId = master01;
shapes = (
{
ref = U;
},
{
pos = (182,0);
ref = macroncomb.case;
}
);
width = 733;
}
);
unicode = 362;
},
{
glyphname = Uogonek;
lastChange = "2023-02-24 11:13:39 +0000";
layers = (
{
background = {
shapes = (
{
closed = 1;
nodes = (
(271,700,o),
(249,700,o),
(156,696,c),
(62,700,o),
(55,700,o),
(55,700,c),
(40,700,o),
(40,676,o),
(40,669,c),
(114,648,l),
(114,218,ls),
(114,55,o),
(217,-12,o),
(380,-12,cs),
(539,-12,o),
(633,82,o),
(633,218,cs),
(633,648,l),
(698,670,l),
(698,677,o),
(698,700,o),
(683,700,cs),
(683,700,o),
(677,699,o),
(605,696,c),
(496,700,ls),
(480,700,o),
(480,676,o),
(480,670,c),
(575,648,l),
(575,216,ls),
(575,127,o),
(515,43,o),
(382,43,cs),
(247,43,o),
(192,115,o),
(192,215,cs),
(192,648,l),
(287,670,l),
(287,676,o),
(287,700,o),
(271,700,c,{
name = hr00;
})
);
},
{
closed = 1;
nodes = (
(426,15,l),
(338,-23,o),
(298,-87,o),
(298,-141,cs),
(298,-191,o),
(334,-233,o),
(401,-233,cs),
(440,-233,o),
(469,-218,o),
(487,-202,c),
(484,-188,o),
(479,-180,o),
(470,-172,c),
(454,-183,o),
(434,-189,o),
(415,-189,cs),
(385,-189,o),
(358,-173,o),
(358,-134,cs),
(358,-86,o),
(396,-22,o),
(484,9,c),
(484,15,l,{
name = hr00;
})
);
}
);
};
layerId = master01;
shapes = (
{
ref = U;
},
{
pos = (159,4);
ref = ogonekcomb;
}
);
width = 733;
}
);
unicode = 370;
},
{
glyphname = Uring;
lastChange = "2023-02-24 11:13:39 +0000";
layers = (
{
background = {
shapes = (
{
closed = 1;
nodes = (
(271,700,o),
(249,700,o),
(156,696,c),
(62,700,o),
(55,700,o),
(55,700,c),
(40,700,o),
(40,676,o),
(40,669,c),
(114,648,l),
(114,218,ls),
(114,55,o),
(217,-12,o),
(380,-12,cs),
(539,-12,o),
(633,82,o),
(633,218,cs),
(633,648,l),
(698,670,l),
(698,677,o),
(698,700,o),
(683,700,cs),
(683,700,o),
(677,699,o),
(605,696,c),
(496,700,ls),
(480,700,o),
(480,676,o),
(480,670,c),
(575,648,l),
(575,216,ls),
(575,127,o),
(515,43,o),
(382,43,cs),
(247,43,o),
(192,115,o),
(192,215,cs),
(192,648,l),
(287,670,l),
(287,676,o),
(287,700,o),
(271,700,c,{
name = hr00;
})
);
},
{
closed = 1;
nodes = (
(489,907,o),
(448,935,o),
(398,935,cs),
(347,935,o),
(304,904,o),
(304,848,cs),
(304,788,o),
(343,759,o),
(394,759,cs),
(450,759,o),
(489,788,o),
(489,850,cs,{
name = hr00;
})
);
},
{
closed = 1;
nodes = (
(350,870,o),
(357,891,o),
(370,897,c),
(376,900,o),
(387,902,o),
(397,902,cs),
(423,902,o),
(443,883,o),
(443,848,cs),
(443,809,o),
(423,792,o),
(397,792,cs),
(372,792,o),
(350,809,o),
(350,848,cs)
);
}
);
};
layerId = master01;
shapes = (
{
ref = U;
},
{
pos = (250,0);
ref = ringcomb.case;
}
);
width = 733;
}
);
unicode = 366;
},
{
glyphname = Utilde;
lastChange = "2023-02-24 11:01:56 +0000";
layers = (
{
background = {
shapes = (
{
closed = 1;
nodes = (
(271,700,o),
(249,700,o),
(156,696,c),
(62,700,o),
(55,700,o),
(55,700,c),
(40,700,o),
(40,676,o),
(40,669,c),
(114,648,l),
(114,218,ls),
(114,55,o),
(217,-12,o),
(380,-12,cs),
(539,-12,o),
(633,82,o),
(633,218,cs),
(633,648,l),
(698,670,l),
(698,677,o),
(698,700,o),
(683,700,cs),
(683,700,o),
(677,699,o),
(605,696,c),
(496,700,ls),
(480,700,o),
(480,676,o),
(480,670,c),
(575,648,l),
(575,216,ls),
(575,127,o),
(515,43,o),
(382,43,cs),
(247,43,o),
(192,115,o),
(192,215,cs),
(192,648,l),
(287,670,l),
(287,676,o),
(287,700,o),
(271,700,c,{
name = hr00;
})
);
},
{
closed = 1;
nodes = (
(517,876,o),
(497,865,o),
(475,865,cs),
(428,865,o),
(387,892,o),
(339,892,cs,{
name = hr01;
}),
(306,892,o),
(272,876,o),
(238,817,c),
(255,798,l),
(275,817,o),
(295,828,o),
(317,828,cs),
(364,828,o),
(405,801,o),
(453,801,cs,{
name = hr02;
}),
(486,801,o),
(520,817,o),
(554,876,c),
(537,895,l)
);
}
);
};
layerId = master01;
shapes = (
{
ref = U;
},
{
pos = (185,0);
ref = tildecomb.case;
}
);
width = 733;
}
);
unicode = 360;
},
{
glyphname = V;
kernLeft = V;
kernRight = V;
lastChange = "2023-02-24 13:31:45 +0000";
layers = (
{
anchors = (
{
name = bottom;
pos = (322,0);
},
{
name = top;
pos = (322,700);
}
);
background = {
shapes = (
{
closed = 1;
nodes = (
(237,678,o),
(237,700,o),
(222,700,cs),
(222,700,o),
(223,700,o),
(115,696,c),
(28,700,o),
(15,700,o),
(15,700,c),
(0,700,o),
(0,677,o),
(0,670,c),
(65,648,l),
(290,0,l),
(360,0,l),
(578,648,l),
(643,670,l),
(643,677,o),
(643,699,o),
(628,700,c),
(629,700,o),
(624,699,o),
(550,696,c),
(442,700,o),
(446,700,o),
(446,700,c),
(431,700,o),
(431,678,o),
(431,670,c),
(516,648,l),
(338,95,l),
(153,648,l),
(237,670,l,{
name = hr00;
})
);
}
);
};
layerId = master01;
shapes = (
{
closed = 1;
nodes = (
(237,678,o),
(237,700,o),
(222,700,cs),
(222,700,o),
(223,700,o),
(115,696,c),
(28,700,o),
(15,700,o),
(15,700,c),
(0,700,o),
(0,677,o),
(0,670,c),
(65,648,l),
(290,0,l),
(360,0,l),
(578,648,l),
(643,670,l),
(643,677,o),
(643,699,o),
(628,700,c),
(629,700,o),
(624,699,o),
(550,696,c),
(442,700,o),
(446,700,o),
(446,700,c),
(431,700,o),
(431,678,o),
(431,670,c),
(516,648,l),
(338,95,l),
(153,648,l),
(237,670,l,{
name = hr00;
})
);
}
);
width = 643;
}
);
unicode = 86;
},
{
glyphname = W;
kernLeft = V;
kernRight = V;
lastChange = "2023-02-24 13:31:45 +0000";
layers = (
{
anchors = (
{
name = bottom;
pos = (460,0);
},
{
name = top;
pos = (480,700);
}
);
background = {
shapes = (
{
closed = 1;
nodes = (
(237,678,o),
(237,700,o),
(222,700,cs),
(222,700,o),
(223,700,o),
(115,696,c),
(28,700,o),
(15,700,o),
(15,700,c),
(0,700,o),
(0,677,o),
(0,670,c),
(65,648,l),
(247,0,l),
(323,0,l),
(460,447,l),
(599,0,l),
(675,0,l),
(855,648,l),
(920,670,l),
(920,677,o),
(920,698,o),
(905,700,c),
(906,700,o),
(901,699,o),
(827,696,c),
(724,700,ls),
(709,700,o),
(709,678,o),
(709,670,c),
(794,648,l),
(645,113,l),
(498,584,l),
(498,651,l),
(463,651,l),
(297,113,l),
(152,648,l),
(237,670,l,{
name = hr00;
})
);
}
);
};
layerId = master01;
shapes = (
{
closed = 1;
nodes = (
(237,678,o),
(237,700,o),
(222,700,cs),
(222,700,o),
(223,700,o),
(115,696,c),
(28,700,o),
(15,700,o),
(15,700,c),
(0,700,o),
(0,677,o),
(0,670,c),
(65,648,l),
(247,0,l),
(323,0,l),
(460,447,l),
(599,0,l),
(675,0,l),
(855,648,l),
(920,670,l),
(920,677,o),
(920,698,o),
(905,700,c),
(906,700,o),
(901,699,o),
(827,696,c),
(724,700,ls),
(709,701,o),
(709,678,o),
(709,670,c),
(794,648,l),
(645,113,l),
(498,584,l),
(498,651,l),
(463,651,l),
(297,113,l),
(152,648,l),
(237,670,l,{
name = hr00;
})
);
}
);
width = 920;
}
);
unicode = 87;
},
{
glyphname = Wacute;
kernLeft = V;
kernRight = V;
lastChange = "2023-02-24 13:31:45 +0000";
layers = (
{
background = {
shapes = (
{
closed = 1;
nodes = (
(237,678,o),
(237,700,o),
(222,700,cs),
(222,700,o),
(223,700,o),
(115,696,c),
(28,700,o),
(15,700,o),
(15,700,c),
(0,700,o),
(0,677,o),
(0,670,c),
(65,648,l),
(247,0,l),
(323,0,l),
(460,447,l),
(599,0,l),
(675,0,l),
(855,648,l),
(920,670,l),
(920,677,o),
(920,698,o),
(905,700,c),
(906,700,o),
(901,699,o),
(827,696,c),
(724,700,ls),
(709,700,o),
(709,678,o),
(709,670,c),
(794,648,l),
(645,113,l),
(498,584,l),
(498,651,l),
(463,651,l),
(297,113,l),
(152,648,l),
(237,670,l,{
name = hr00;
})
);
},
{
closed = 1;
nodes = (
(418,772,o),
(516,802,o),
(583,845,cs),
(587,847,o),
(588,852,o),
(588,857,cs),
(588,877,o),
(568,918,o),
(563,924,c),
(468,847,o),
(371,781,o),
(371,781,c),
(382,762,l,{
name = hr00;
})
);
}
);
};
layerId = master01;
shapes = (
{
ref = W;
},
{
pos = (321,0);
ref = acutecomb.case;
}
);
width = 920;
}
);
unicode = 7810;
},
{
glyphname = Wcircumflex;
kernLeft = V;
kernRight = V;
lastChange = "2023-02-24 13:31:45 +0000";
layers = (
{
background = {
shapes = (
{
closed = 1;
nodes = (
(237,678,o),
(237,700,o),
(222,700,cs),
(222,700,o),
(223,700,o),
(115,696,c),
(28,700,o),
(15,700,o),
(15,700,c),
(0,700,o),
(0,677,o),
(0,670,c),
(65,648,l),
(247,0,l),
(323,0,l),
(460,447,l),
(599,0,l),
(675,0,l),
(855,648,l),
(920,670,l),
(920,677,o),
(920,698,o),
(905,700,c),
(906,700,o),
(901,699,o),
(827,696,c),
(724,700,ls),
(709,700,o),
(709,678,o),
(709,670,c),
(794,648,l),
(645,113,l),
(498,584,l),
(498,651,l),
(463,651,l),
(297,113,l),
(152,648,l),
(237,670,l,{
name = hr00;
})
);
},
{
closed = 1;
nodes = (
(576,753,l),
(602,770,l),
(558,833,o),
(525,886,o),
(502,929,c),
(457,929,l),
(434,886,o),
(401,833,o),
(357,770,c),
(383,753,l),
(480,855,l,{
name = hr00;
})
);
}
);
};
layerId = master01;
shapes = (
{
ref = W;
},
{
pos = (312,0);
ref = circumflexcomb.case;
}
);
width = 920;
}
);
unicode = 372;
},
{
glyphname = Wdieresis;
kernLeft = V;
kernRight = V;
lastChange = "2023-02-24 13:31:45 +0000";
layers = (
{
background = {
shapes = (
{
closed = 1;
nodes = (
(237,678,o),
(237,700,o),
(222,700,cs),
(222,700,o),
(223,700,o),
(115,696,c),
(28,700,o),
(15,700,o),
(15,700,c),
(0,700,o),
(0,677,o),
(0,670,c),
(65,648,l),
(247,0,l),
(323,0,l),
(460,447,l),
(599,0,l),
(675,0,l),
(855,648,l),
(920,670,l),
(920,677,o),
(920,698,o),
(905,700,c),
(906,700,o),
(901,699,o),
(827,696,c),
(724,700,ls),
(709,700,o),
(709,678,o),
(709,670,c),
(794,648,l),
(645,113,l),
(498,584,l),
(498,651,l),
(463,651,l),
(297,113,l),
(152,648,l),
(237,670,l,{
name = hr00;
})
);
},
{
closed = 1;
nodes = (
(390,900,o),
(361,894,o),
(361,894,c),
(361,894,o),
(354,867,o),
(354,841,cs),
(354,816,o),
(360,791,o),
(385,791,cs),
(403,791,o),
(431,799,o),
(431,799,c),
(431,799,o),
(437,825,o),
(437,850,cs),
(437,876,o),
(429,900,o),
(407,900,cs,{
name = hr00;
})
);
},
{
closed = 1;
nodes = (
(558,900,o),
(529,894,o),
(529,894,c),
(529,894,o),
(522,867,o),
(522,841,cs),
(522,816,o),
(528,791,o),
(553,791,cs),
(571,791,o),
(599,799,o),
(599,799,c),
(599,799,o),
(605,825,o),
(605,850,cs),
(605,876,o),
(597,900,o),
(575,900,cs)
);
}
);
};
layerId = master01;
shapes = (
{
ref = W;
},
{
pos = (290,0);
ref = dieresiscomb.case;
}
);
width = 920;
}
);
unicode = 7812;
},
{
glyphname = Wgrave;
kernLeft = V;
kernRight = V;
lastChange = "2023-02-24 13:31:45 +0000";
layers = (
{
background = {
shapes = (
{
closed = 1;
nodes = (
(237,678,o),
(237,700,o),
(222,700,cs),
(222,700,o),
(223,700,o),
(115,696,c),
(28,700,o),
(15,700,o),
(15,700,c),
(0,700,o),
(0,677,o),
(0,670,c),
(65,648,l),
(247,0,l),
(323,0,l),
(460,447,l),
(599,0,l),
(675,0,l),
(855,648,l),
(920,670,l),
(920,677,o),
(920,698,o),
(905,700,c),
(906,700,o),
(901,699,o),
(827,696,c),
(724,700,ls),
(709,700,o),
(709,678,o),
(709,670,c),
(794,648,l),
(645,113,l),
(498,584,l),
(498,651,l),
(463,651,l),
(297,113,l),
(152,648,l),
(237,670,l,{
name = hr00;
})
);
},
{
closed = 1;
nodes = (
(588,781,o),
(491,847,o),
(396,924,c),
(391,918,o),
(371,877,o),
(371,857,cs),
(371,852,o),
(372,847,o),
(376,845,cs),
(443,802,o),
(541,772,o),
(577,762,c),
(588,781,l,{
name = hr00;
})
);
}
);
};
layerId = master01;
shapes = (
{
ref = W;
},
{
pos = (321,0);
ref = gravecomb.case;
}
);
width = 920;
}
);
unicode = 7808;
},
{
glyphname = X;
lastChange = "2023-02-24 11:13:39 +0000";
layers = (
{
anchors = (
{
name = bottom;
pos = (348,0);
},
{
name = top;
pos = (348,700);
}
);
background = {
shapes = (
{
closed = 1;
nodes = (
(416,22,o),
(416,0,o),
(431,0,cs),
(431,0,o),
(451,0,o),
(559,4,c),
(646,0,o),
(666,0,o),
(666,0,c),
(681,0,o),
(681,23,o),
(681,30,c),
(601,52,l),
(392,365,l),
(595,648,l),
(660,670,l),
(660,677,o),
(660,699,o),
(645,700,c),
(646,700,o),
(642,699,o),
(567,696,c),
(456,700,ls),
(441,700,o),
(441,678,o),
(441,670,c),
(523,648,l),
(359,414,l),
(204,648,l),
(281,670,l),
(281,678,o),
(281,700,o),
(266,700,cs),
(266,700,o),
(267,700,o),
(159,696,c),
(72,700,o),
(51,700,o),
(51,700,c),
(36,700,o),
(36,677,o),
(36,670,c),
(111,648,l),
(307,353,l),
(90,52,l),
(15,30,l),
(15,23,o),
(15,0,o),
(29,0,cs),
(29,0,o),
(42,0,o),
(118,4,c),
(239,0,ls),
(254,0,o),
(254,22,o),
(254,30,c),
(162,52,l),
(339,305,l),
(508,52,l),
(416,30,l,{
name = hr00;
})
);
}
);
};
layerId = master01;
shapes = (
{
closed = 1;
nodes = (
(416,22,o),
(416,0,o),
(431,0,cs),
(431,0,o),
(451,0,o),
(559,4,c),
(646,0,o),
(666,0,o),
(666,0,c),
(681,0,o),
(681,23,o),
(681,30,c),
(601,52,l),
(392,365,l),
(595,648,l),
(660,670,l),
(660,677,o),
(660,699,o),
(645,700,c),
(646,700,o),
(642,699,o),
(567,696,c),
(456,700,ls),
(441,700,o),
(441,678,o),
(441,670,c),
(523,648,l),
(359,414,l),
(204,648,l),
(281,670,l),
(281,678,o),
(281,700,o),
(266,700,cs),
(266,700,o),
(267,700,o),
(159,696,c),
(72,700,o),
(51,700,o),
(51,700,c),
(36,700,o),
(36,677,o),
(36,670,c),
(111,648,l),
(307,353,l),
(90,52,l),
(15,30,l),
(15,23,o),
(15,0,o),
(29,0,cs),
(29,0,o),
(42,0,o),
(118,4,c),
(239,0,ls),
(254,0,o),
(254,22,o),
(254,30,c),
(162,52,l),
(339,305,l),
(508,52,l),
(416,30,l,{
name = hr00;
})
);
}
);
width = 696;
}
);
unicode = 88;
},
{
glyphname = Y;
kernLeft = V;
kernRight = V;
lastChange = "2023-02-24 13:31:45 +0000";
layers = (
{
anchors = (
{
name = bottom;
pos = (290,0);
},
{
name = top;
pos = (300,700);
},
{
name = topleft;
pos = (20,700);
}
);
background = {
shapes = (
{
closed = 1;
nodes = (
(232,678,o),
(232,700,o),
(217,700,cs),
(217,700,o),
(220,700,o),
(112,696,c),
(25,700,o),
(15,700,o),
(15,700,c),
(0,700,o),
(0,677,o),
(0,670,c),
(65,648,l),
(259,277,l),
(259,52,l),
(154,30,l),
(154,23,o),
(154,0,o),
(169,0,cs),
(169,0,o),
(207,0,o),
(301,4,c),
(394,0,o),
(427,0,o),
(427,0,c),
(442,0,o),
(442,23,o),
(442,30,c),
(337,52,l),
(337,279,l),
(515,648,l),
(580,670,l),
(580,677,o),
(580,699,o),
(565,700,c),
(566,700,o),
(561,699,o),
(487,696,c),
(379,700,o),
(383,700,o),
(383,700,c),
(368,700,o),
(368,678,o),
(368,670,c),
(450,648,l),
(307,321,l),
(147,648,l),
(232,670,l,{
name = hr00;
})
);
}
);
};
layerId = master01;
shapes = (
{
closed = 1;
nodes = (
(232,678,o),
(232,700,o),
(217,700,cs),
(217,700,o),
(220,700,o),
(112,696,c),
(25,700,o),
(15,700,o),
(15,700,c),
(0,700,o),
(0,677,o),
(0,670,c),
(65,648,l),
(259,277,l),
(259,52,l),
(154,30,l),
(154,23,o),
(154,0,o),
(169,0,cs),
(169,0,o),
(207,0,o),
(301,4,c),
(394,0,o),
(427,0,o),
(427,0,c),
(442,0,o),
(442,23,o),
(442,30,c),
(337,52,l),
(337,279,l),
(515,648,l),
(580,670,l),
(580,677,o),
(580,699,o),
(565,700,c),
(566,700,o),
(561,699,o),
(487,696,c),
(379,700,o),
(383,700,o),
(383,700,c),
(368,700,o),
(368,678,o),
(368,670,c),
(450,648,l),
(307,321,l),
(147,648,l),
(232,670,l,{
name = hr00;
})
);
}
);
width = 580;
}
);
unicode = 89;
},
{
glyphname = Yacute;
kernLeft = V;
kernRight = V;
lastChange = "2023-02-24 13:31:45 +0000";
layers = (
{
background = {
shapes = (
{
closed = 1;
nodes = (
(222,678,o),
(222,700,o),
(207,700,cs),
(207,700,o),
(210,700,o),
(102,696,c),
(15,700,o),
(5,700,o),
(5,700,c),
(-10,700,o),
(-10,677,o),
(-10,670,c),
(55,648,l),
(249,277,l),
(249,52,l),
(144,30,l),
(144,23,o),
(144,0,o),
(159,0,cs),
(159,0,o),
(197,0,o),
(291,4,c),
(384,0,o),
(417,0,o),
(417,0,c),
(432,0,o),
(432,23,o),
(432,30,c),
(327,52,l),
(327,279,l),
(505,648,l),
(570,670,l),
(570,677,o),
(570,699,o),
(555,700,c),
(556,700,o),
(551,699,o),
(477,696,c),
(369,700,o),
(373,700,o),
(373,700,c),
(358,700,o),
(358,678,o),
(358,670,c),
(440,648,l),
(297,321,l),
(137,648,l),
(222,670,l,{
name = hr00;
})
);
},
{
closed = 1;
nodes = (
(218,772,o),
(316,802,o),
(383,845,cs),
(387,847,o),
(388,852,o),
(388,857,cs),
(388,877,o),
(368,918,o),
(363,924,c),
(268,847,o),
(171,781,o),
(171,781,c),
(182,762,l,{
name = hr00;
})
);
}
);
};
layerId = master01;
shapes = (
{
ref = Y;
},
{
pos = (141,0);
ref = acutecomb.case;
}
);
width = 580;
}
);
unicode = 221;
},
{
glyphname = Ycircumflex;
kernLeft = V;
kernRight = V;
lastChange = "2023-02-24 13:31:45 +0000";
layers = (
{
background = {
shapes = (
{
closed = 1;
nodes = (
(232,678,o),
(232,700,o),
(217,700,cs),
(217,700,o),
(220,700,o),
(112,696,c),
(25,700,o),
(15,700,o),
(15,700,c),
(0,700,o),
(0,677,o),
(0,670,c),
(65,648,l),
(259,277,l),
(259,52,l),
(154,30,l),
(154,23,o),
(154,0,o),
(169,0,cs),
(169,0,o),
(207,0,o),
(301,4,c),
(394,0,o),
(427,0,o),
(427,0,c),
(442,0,o),
(442,23,o),
(442,30,c),
(337,52,l),
(337,279,l),
(515,648,l),
(580,670,l),
(580,677,o),
(580,699,o),
(565,700,c),
(566,700,o),
(561,699,o),
(487,696,c),
(379,700,o),
(383,700,o),
(383,700,c),
(368,700,o),
(368,678,o),
(368,670,c),
(450,648,l),
(307,321,l),
(147,648,l),
(232,670,l,{
name = hr00;
})
);
},
{
closed = 1;
nodes = (
(404,753,l),
(430,770,l),
(386,833,o),
(353,886,o),
(330,929,c),
(285,929,l),
(262,886,o),
(229,833,o),
(185,770,c),
(211,753,l),
(308,855,l,{
name = hr00;
})
);
}
);
};
layerId = master01;
shapes = (
{
ref = Y;
},
{
pos = (132,0);
ref = circumflexcomb.case;
}
);
width = 580;
}
);
unicode = 374;
},
{
glyphname = Ydieresis;
kernLeft = V;
kernRight = V;
lastChange = "2023-02-24 13:31:45 +0000";
layers = (
{
background = {
shapes = (
{
closed = 1;
nodes = (
(222,678,o),
(222,700,o),
(207,700,cs),
(207,700,o),
(210,700,o),
(102,696,c),
(15,700,o),
(5,700,o),
(5,700,c),
(-10,700,o),
(-10,677,o),
(-10,670,c),
(55,648,l),
(249,277,l),
(249,52,l),
(144,30,l),
(144,23,o),
(144,0,o),
(159,0,cs),
(159,0,o),
(197,0,o),
(291,4,c),
(384,0,o),
(417,0,o),
(417,0,c),
(432,0,o),
(432,23,o),
(432,30,c),
(327,52,l),
(327,279,l),
(505,648,l),
(570,670,l),
(570,677,o),
(570,699,o),
(555,700,c),
(556,700,o),
(551,699,o),
(477,696,c),
(369,700,o),
(373,700,o),
(373,700,c),
(358,700,o),
(358,678,o),
(358,670,c),
(440,648,l),
(297,321,l),
(137,648,l),
(222,670,l,{
name = hr00;
})
);
},
{
closed = 1;
nodes = (
(261,903,o),
(269,877,o),
(269,850,cs),
(269,825,o),
(264,800,o),
(263,797,c),
(263,797,o),
(231,788,o),
(214,788,cs),
(188,788,o),
(182,814,o),
(182,840,cs),
(182,867,o),
(188,893,o),
(189,896,c),
(189,896,o),
(222,903,o),
(238,903,cs,{
name = hr00;
})
);
},
{
closed = 1;
nodes = (
(409,903,o),
(417,877,o),
(417,850,cs),
(417,825,o),
(412,800,o),
(411,797,c),
(411,797,o),
(379,788,o),
(362,788,cs),
(336,788,o),
(330,814,o),
(330,840,cs),
(330,867,o),
(336,893,o),
(337,896,c),
(337,896,o),
(370,903,o),
(386,903,cs)
);
}
);
};
layerId = master01;
shapes = (
{
ref = Y;
},
{
pos = (110,0);
ref = dieresiscomb.case;
}
);
width = 580;
}
);
unicode = 376;
},
{
glyphname = Ygrave;
kernLeft = V;
kernRight = V;
lastChange = "2023-02-24 13:31:45 +0000";
layers = (
{
background = {
shapes = (
{
closed = 1;
nodes = (
(232,678,o),
(232,700,o),
(217,700,cs),
(217,700,o),
(220,700,o),
(112,696,c),
(25,700,o),
(15,700,o),
(15,700,c),
(0,700,o),
(0,677,o),
(0,670,c),
(65,648,l),
(259,277,l),
(259,52,l),
(154,30,l),
(154,23,o),
(154,0,o),
(169,0,cs),
(169,0,o),
(207,0,o),
(301,4,c),
(394,0,o),
(427,0,o),
(427,0,c),
(442,0,o),
(442,23,o),
(442,30,c),
(337,52,l),
(337,279,l),
(515,648,l),
(580,670,l),
(580,677,o),
(580,699,o),
(565,700,c),
(566,700,o),
(561,699,o),
(487,696,c),
(379,700,o),
(383,700,o),
(383,700,c),
(368,700,o),
(368,678,o),
(368,670,c),
(450,648,l),
(307,321,l),
(147,648,l),
(232,670,l,{
name = hr00;
})
);
},
{
closed = 1;
nodes = (
(398,781,o),
(301,847,o),
(206,924,c),
(201,918,o),
(181,877,o),
(181,857,cs),
(181,852,o),
(182,847,o),
(186,845,cs),
(253,802,o),
(351,772,o),
(387,762,c),
(398,781,l,{
name = hr00;
})
);
}
);
};
layerId = master01;
shapes = (
{
ref = Y;
},
{
pos = (141,0);
ref = gravecomb.case;
}
);
width = 580;
}
);
unicode = 7922;
},
{
glyphname = Z;
lastChange = "2023-02-24 11:13:39 +0000";
layers = (
{
anchors = (
{
name = bottom;
pos = (306,0);
},
{
name = center;
pos = (306,350);
},
{
name = top;
pos = (318,700);
}
);
background = {
shapes = (
{
closed = 1;
nodes = (
(146,55,l),
(577,695,l),
(555,712,l),
(520,689,l),
(106,700,o),
(102,700,o),
(100,700,cs,{
name = hr01;
}),
(86,700,o),
(80,697,o),
(79,688,c),
(104,537,l),
(111,537,o),
(146,537,o),
(146,551,cs),
(146,642,l,{
name = hr02;
}),
(456,642,l),
(28,8,l),
(45,-12,l),
(77,5,l),
(527,0,ls,{
name = hr03;
}),
(547,0,o),
(555,1,o),
(556,12,c),
(531,165,l,{
name = hr04;
}),
(524,165,o),
(489,165,o),
(489,151,cs),
(489,55,l)
);
}
);
};
layerId = master01;
shapes = (
{
closed = 1;
nodes = (
(146,55,l),
(577,695,l),
(555,712,l),
(520,689,l),
(106,700,o),
(102,700,o),
(100,700,cs,{
name = hr01;
}),
(86,700,o),
(80,697,o),
(79,688,c),
(104,537,l),
(111,537,o),
(146,537,o),
(146,551,cs),
(146,642,l,{
name = hr02;
}),
(456,642,l),
(28,8,l),
(45,-12,l),
(77,5,l),
(527,0,ls,{
name = hr03;
}),
(547,0,o),
(555,1,o),
(556,12,c),
(531,165,l,{
name = hr04;
}),
(524,165,o),
(489,165,o),
(489,151,cs),
(489,55,l)
);
}
);
width = 611;
}
);
unicode = 90;
},
{
glyphname = Zacute;
lastChange = "2023-02-24 11:13:39 +0000";
layers = (
{
background = {
shapes = (
{
closed = 1;
nodes = (
(146,55,l),
(577,695,l),
(555,712,l),
(520,689,l),
(106,700,o),
(102,700,o),
(100,700,cs,{
name = hr01;
}),
(86,700,o),
(80,697,o),
(79,688,c),
(104,537,l),
(111,537,o),
(146,537,o),
(146,551,cs),
(146,642,l,{
name = hr02;
}),
(456,642,l),
(28,8,l),
(45,-12,l),
(77,5,l),
(527,0,ls,{
name = hr03;
}),
(547,0,o),
(555,1,o),
(556,12,c),
(531,165,l,{
name = hr04;
}),
(524,165,o),
(489,165,o),
(489,151,cs),
(489,55,l)
);
},
{
closed = 1;
nodes = (
(284,772,o),
(382,802,o),
(449,845,cs),
(453,847,o),
(454,852,o),
(454,857,cs),
(454,877,o),
(434,918,o),
(429,924,c),
(334,847,o),
(237,781,o),
(237,781,c),
(248,762,l,{
name = hr00;
})
);
}
);
};
layerId = master01;
shapes = (
{
ref = Z;
},
{
pos = (159,0);
ref = acutecomb.case;
}
);
width = 611;
}
);
unicode = 377;
},
{
glyphname = Zcaron;
lastChange = "2023-02-24 11:13:39 +0000";
layers = (
{
background = {
shapes = (
{
closed = 1;
nodes = (
(136,55,l),
(567,695,l),
(545,712,l),
(510,689,l),
(96,700,o),
(92,700,o),
(90,700,cs,{
name = hr01;
}),
(76,700,o),
(70,697,o),
(69,688,c),
(94,537,l),
(101,537,o),
(136,537,o),
(136,551,cs),
(136,642,l,{
name = hr02;
}),
(446,642,l),
(18,8,l),
(35,-12,l),
(67,5,l),
(517,0,ls,{
name = hr03;
}),
(537,0,o),
(545,1,o),
(546,12,c),
(521,165,l,{
name = hr04;
}),
(514,165,o),
(479,165,o),
(479,151,cs),
(479,55,l)
);
},
{
closed = 1;
nodes = (
(219,929,l),
(192,912,l),
(232,849,o),
(262,796,o),
(281,753,c),
(326,753,l),
(352,796,o),
(389,849,o),
(437,912,c),
(412,929,l),
(309,827,l,{
name = hr00;
})
);
}
);
};
layerId = master01;
shapes = (
{
ref = Z;
},
{
pos = (146,0);
ref = caroncomb.case;
}
);
width = 611;
}
);
unicode = 381;
},
{
glyphname = Zdotaccent;
lastChange = "2023-02-24 11:13:39 +0000";
layers = (
{
background = {
shapes = (
{
closed = 1;
nodes = (
(146,55,l),
(577,695,l),
(555,712,l),
(520,689,l),
(106,700,o),
(102,700,o),
(100,700,cs,{
name = hr01;
}),
(86,700,o),
(80,697,o),
(79,688,c),
(104,537,l),
(111,537,o),
(146,537,o),
(146,551,cs),
(146,642,l,{
name = hr02;
}),
(456,642,l),
(28,8,l),
(45,-12,l),
(77,5,l),
(527,0,ls,{
name = hr03;
}),
(547,0,o),
(555,1,o),
(556,12,c),
(531,165,l,{
name = hr04;
}),
(524,165,o),
(489,165,o),
(489,151,cs),
(489,55,l)
);
},
{
closed = 1;
nodes = (
(329,906,o),
(297,899,o),
(297,899,c),
(297,899,o),
(289,869,o),
(289,840,cs),
(289,813,o),
(296,785,o),
(324,785,cs),
(344,785,o),
(375,794,o),
(375,794,c),
(375,794,o),
(382,823,o),
(382,850,cs),
(382,879,o),
(373,906,o),
(348,906,cs,{
name = hr00;
})
);
}
);
};
layerId = master01;
shapes = (
{
ref = Z;
},
{
pos = (209,0);
ref = dotaccentcomb.case;
}
);
width = 611;
}
);
unicode = 379;
},
{
glyphname = a;
kernLeft = a;
kernRight = a;
lastChange = "2023-02-24 13:32:01 +0000";
layers = (
{
anchors = (
{
name = bottom;
pos = (261,0);
},
{
name = ogonek;
pos = (498,4);
},
{
name = top;
pos = (261,473);
}
);
background = {
shapes = (
{
closed = 1;
nodes = (
(160,146,l),
(346,156,l),
(386,45,l),
(318,31,l),
(318,22,o),
(318,0,o),
(336,0,cs),
(336,0,o),
(352,0,o),
(423,3,c),
(486,0,o),
(504,0,o),
(504,0,c),
(521,0,o),
(521,23,o),
(521,30,c),
(463,46,l),
(292,489,l),
(227,489,l),
(58,45,l),
(0,30,l),
(0,11,o),
(6,0,o),
(17,0,c),
(86,3,l),
(165,0,o),
(173,0,o),
(173,0,c),
(191,0,o),
(191,22,o),
(191,31,c),
(124,45,l,{
name = hr00;
})
);
},
{
closed = 1;
nodes = (
(330,198,l),
(177,198,l),
(253,412,l)
);
}
);
};
layerId = master01;
shapes = (
{
closed = 1;
nodes = (
(160,146,l),
(346,156,l),
(386,45,l),
(318,31,l),
(318,22,o),
(318,0,o),
(336,0,cs),
(336,0,o),
(352,0,o),
(423,3,c),
(486,0,o),
(504,0,o),
(504,0,c),
(521,0,o),
(521,23,o),
(521,30,c),
(463,46,l),
(292,489,l),
(227,489,l),
(58,45,l),
(0,30,l),
(0,11,o),
(6,0,o),
(17,0,c),
(86,3,l),
(165,0,o),
(173,0,o),
(173,0,c),
(191,0,o),
(191,22,o),
(191,31,c),
(124,45,l,{
name = hr00;
})
);
},
{
closed = 1;
nodes = (
(330,198,l),
(177,198,l),
(253,412,l)
);
}
);
width = 521;
}
);
unicode = 97;
},
{
glyphname = aacute;
kernLeft = a;
kernRight = a;
lastChange = "2023-02-24 13:32:01 +0000";
layers = (
{
background = {
shapes = (
{
closed = 1;
nodes = (
(199,558,o),
(297,588,o),
(364,631,cs),
(368,633,o),
(369,638,o),
(369,643,cs),
(369,663,o),
(349,704,o),
(344,710,c),
(249,633,o),
(152,567,o),
(152,567,c),
(163,548,l,{
name = hr00;
})
);
},
{
closed = 1;
nodes = (
(162,146,l),
(348,156,l),
(388,45,l),
(320,31,l),
(320,22,o),
(320,0,o),
(338,0,cs),
(338,0,o),
(354,0,o),
(425,3,c),
(488,0,o),
(506,0,o),
(506,0,c),
(523,0,o),
(523,23,o),
(523,30,c),
(465,46,l),
(294,489,l),
(229,489,l),
(60,45,l),
(2,30,l),
(2,11,o),
(8,0,o),
(19,0,c),
(88,3,l),
(167,0,o),
(175,0,o),
(175,0,c),
(193,0,o),
(193,22,o),
(193,31,c),
(126,45,l,{
name = hr00;
})
);
},
{
closed = 1;
nodes = (
(332,198,l),
(179,198,l),
(255,412,l)
);
}
);
};
layerId = master01;
shapes = (
{
ref = a;
},
{
pos = (102,0);
ref = acutecomb;
}
);
width = 521;
}
);
unicode = 225;
},
{
glyphname = abreve;
kernLeft = a;
kernRight = a;
lastChange = "2023-02-24 13:32:01 +0000";
layers = (
{
background = {
shapes = (
{
closed = 1;
nodes = (
(160,146,l),
(346,156,l),
(386,45,l),
(318,31,l),
(318,22,o),
(318,0,o),
(336,0,cs),
(336,0,o),
(352,0,o),
(423,3,c),
(486,0,o),
(504,0,o),
(504,0,c),
(521,0,o),
(521,23,o),
(521,30,c),
(463,46,l),
(292,489,l),
(227,489,l),
(58,45,l),
(0,30,l),
(0,11,o),
(6,0,o),
(17,0,c),
(86,3,l),
(165,0,o),
(173,0,o),
(173,0,c),
(191,0,o),
(191,22,o),
(191,31,c),
(124,45,l,{
name = hr00;
})
);
},
{
closed = 1;
nodes = (
(330,198,l),
(177,198,l),
(253,412,l)
);
},
{
closed = 1;
nodes = (
(222,607,o),
(193,643,o),
(171,699,c),
(137,691,l),
(169,594,o),
(200,540,o),
(260,540,cs),
(320,540,o),
(351,594,o),
(383,691,c),
(349,699,l),
(327,643,o),
(298,607,o),
(260,607,cs,{
name = hr00;
})
);
}
);
};
layerId = master01;
shapes = (
{
ref = a;
},
{
pos = (95,0);
ref = brevecomb;
}
);
width = 521;
}
);
unicode = 259;
},
{
glyphname = acircumflex;
kernLeft = a;
kernRight = a;
lastChange = "2023-02-24 13:32:01 +0000";
layers = (
{
background = {
shapes = (
{
closed = 1;
nodes = (
(160,146,l),
(346,156,l),
(386,45,l),
(318,31,l),
(318,22,o),
(318,0,o),
(336,0,cs),
(336,0,o),
(352,0,o),
(423,3,c),
(486,0,o),
(504,0,o),
(504,0,c),
(521,0,o),
(521,23,o),
(521,30,c),
(463,46,l),
(292,489,l),
(227,489,l),
(58,45,l),
(0,30,l),
(0,11,o),
(6,0,o),
(17,0,c),
(86,3,l),
(165,0,o),
(173,0,o),
(173,0,c),
(191,0,o),
(191,22,o),
(191,31,c),
(124,45,l,{
name = hr00;
})
);
},
{
closed = 1;
nodes = (
(330,198,l),
(177,198,l),
(253,412,l)
);
},
{
closed = 1;
nodes = (
(350,539,l),
(376,556,l),
(310,650,o),
(276,715,q),
(231,715,l),
(197,650,o),
(131,556,q),
(157,539,l),
(254,641,l,{
name = hr00;
})
);
}
);
};
layerId = master01;
shapes = (
{
ref = a;
},
{
pos = (93,0);
ref = circumflexcomb;
}
);
width = 521;
}
);
unicode = 226;
},
{
glyphname = adieresis;
kernLeft = a;
kernRight = a;
lastChange = "2023-02-24 13:32:01 +0000";
layers = (
{
background = {
shapes = (
{
closed = 1;
nodes = (
(160,146,l),
(346,156,l),
(386,45,l),
(318,31,l),
(318,22,o),
(318,0,o),
(336,0,cs),
(336,0,o),
(352,0,o),
(423,3,c),
(486,0,o),
(504,0,o),
(504,0,c),
(521,0,o),
(521,23,o),
(521,30,c),
(463,46,l),
(292,489,l),
(227,489,l),
(58,45,l),
(0,30,l),
(0,11,o),
(6,0,o),
(17,0,c),
(86,3,l),
(165,0,o),
(173,0,o),
(173,0,c),
(191,0,o),
(191,22,o),
(191,31,c),
(124,45,l,{
name = hr00;
})
);
},
{
closed = 1;
nodes = (
(330,198,l),
(177,198,l),
(253,412,l)
);
},
{
closed = 1;
nodes = (
(215,689,o),
(223,663,o),
(223,636,cs),
(223,611,o),
(218,586,o),
(217,583,c),
(217,583,o),
(185,574,o),
(168,574,cs),
(142,574,o),
(136,600,o),
(136,626,cs),
(136,653,o),
(142,679,o),
(143,682,c),
(143,682,o),
(176,689,o),
(192,689,c,{
name = hr00;
})
);
},
{
closed = 1;
nodes = (
(363,689,o),
(371,663,o),
(371,636,cs),
(371,611,o),
(366,586,o),
(365,583,c),
(365,583,o),
(333,574,o),
(316,574,cs),
(290,574,o),
(284,600,o),
(284,626,cs),
(284,653,o),
(290,679,o),
(291,682,c),
(291,682,o),
(324,689,o),
(340,689,c)
);
}
);
};
layerId = master01;
shapes = (
{
ref = a;
},
{
pos = (73,0);
ref = dieresiscomb;
}
);
width = 521;
}
);
unicode = 228;
},
{
glyphname = agrave;
kernLeft = a;
kernRight = a;
lastChange = "2023-02-24 13:32:01 +0000";
layers = (
{
background = {
shapes = (
{
closed = 1;
nodes = (
(160,146,l),
(346,156,l),
(386,45,l),
(318,31,l),
(318,22,o),
(318,0,o),
(336,0,cs),
(336,0,o),
(352,0,o),
(423,3,c),
(486,0,o),
(504,0,o),
(504,0,c),
(521,0,o),
(521,23,o),
(521,30,c),
(463,46,l),
(292,489,l),
(227,489,l),
(58,45,l),
(0,30,l),
(0,11,o),
(6,0,o),
(17,0,c),
(86,3,l),
(165,0,o),
(173,0,o),
(173,0,c),
(191,0,o),
(191,22,o),
(191,31,c),
(124,45,l,{
name = hr00;
})
);
},
{
closed = 1;
nodes = (
(330,198,l),
(177,198,l),
(253,412,l)
);
},
{
closed = 1;
nodes = (
(348,567,o),
(251,633,o),
(156,710,c),
(151,704,o),
(131,663,o),
(131,643,cs),
(131,638,o),
(132,633,o),
(136,631,cs),
(203,588,o),
(301,558,o),
(337,548,c),
(348,567,l,{
name = hr00;
})
);
}
);
};
layerId = master01;
shapes = (
{
ref = a;
},
{
pos = (102,0);
ref = gravecomb;
}
);
width = 521;
}
);
unicode = 224;
},
{
glyphname = amacron;
kernLeft = a;
kernRight = a;
lastChange = "2023-02-24 13:32:01 +0000";
layers = (
{
background = {
shapes = (
{
closed = 1;
nodes = (
(160,146,l),
(346,156,l),
(386,45,l),
(318,31,l),
(318,22,o),
(318,0,o),
(336,0,cs),
(336,0,o),
(352,0,o),
(423,3,c),
(486,0,o),
(504,0,o),
(504,0,c),
(521,0,o),
(521,23,o),
(521,30,c),
(463,46,l),
(292,489,l),
(227,489,l),
(58,45,l),
(0,30,l),
(0,11,o),
(6,0,o),
(17,0,c),
(86,3,l),
(165,0,o),
(173,0,o),
(173,0,c),
(191,0,o),
(191,22,o),
(191,31,c),
(124,45,l,{
name = hr00;
})
);
},
{
closed = 1;
nodes = (
(330,198,l),
(177,198,l),
(253,412,l)
);
},
{
closed = 1;
nodes = (
(401,600,l),
(401,663,l),
(120,663,l),
(120,600,l,{
name = hr00;
})
);
}
);
};
layerId = master01;
shapes = (
{
ref = a;
},
{
pos = (50,0);
ref = macroncomb;
}
);
width = 521;
}
);
unicode = 257;
},
{
glyphname = aogonek;
kernLeft = a;
kernRight = a;
lastChange = "2023-02-24 13:32:01 +0000";
layers = (
{
background = {
shapes = (
{
closed = 1;
nodes = (
(160,146,l),
(346,156,l),
(386,45,l),
(318,31,l),
(318,22,o),
(318,0,o),
(336,0,cs),
(336,0,o),
(352,0,o),
(423,3,c),
(486,0,o),
(504,0,o),
(504,0,c),
(521,0,o),
(521,23,o),
(521,30,c),
(463,46,l),
(292,489,l),
(227,489,l),
(58,45,l),
(0,30,l),
(0,11,o),
(6,0,o),
(17,0,c),
(86,3,l),
(165,0,o),
(173,0,o),
(173,0,c),
(191,0,o),
(191,22,o),
(191,31,c),
(124,45,l,{
name = hr00;
})
);
},
{
closed = 1;
nodes = (
(330,198,l),
(177,198,l),
(253,412,l)
);
},
{
closed = 1;
nodes = (
(435,15,l),
(347,-23,o),
(307,-87,o),
(307,-141,cs),
(307,-191,o),
(343,-233,o),
(410,-233,cs),
(449,-233,o),
(478,-218,o),
(496,-202,c),
(493,-188,o),
(488,-180,o),
(479,-172,c),
(463,-183,o),
(443,-189,o),
(424,-189,cs),
(394,-189,o),
(367,-173,o),
(367,-134,cs),
(367,-86,o),
(405,-22,o),
(493,9,c),
(493,15,l,{
name = hr00;
})
);
}
);
};
layerId = master01;
shapes = (
{
ref = a;
},
{
pos = (172,4);
ref = ogonekcomb;
}
);
width = 521;
}
);
unicode = 261;
},
{
glyphname = aring;
kernLeft = a;
kernRight = a;
lastChange = "2023-02-24 13:32:01 +0000";
layers = (
{
background = {
shapes = (
{
closed = 1;
nodes = (
(160,146,l),
(346,156,l),
(386,45,l),
(318,31,l),
(318,22,o),
(318,0,o),
(336,0,cs),
(336,0,o),
(352,0,o),
(423,3,c),
(486,0,o),
(504,0,o),
(504,0,c),
(521,0,o),
(521,23,o),
(521,30,c),
(463,46,l),
(292,489,l),
(227,489,l),
(58,45,l),
(0,30,l),
(0,11,o),
(6,0,o),
(17,0,c),
(86,3,l),
(165,0,o),
(173,0,o),
(173,0,c),
(191,0,o),
(191,22,o),
(191,31,c),
(124,45,l,{
name = hr00;
})
);
},
{
closed = 1;
nodes = (
(330,198,l),
(177,198,l),
(253,412,l)
);
},
{
closed = 1;
nodes = (
(346,693,o),
(305,721,o),
(255,721,cs),
(204,721,o),
(161,690,o),
(161,634,cs),
(161,574,o),
(200,545,o),
(251,545,cs),
(307,545,o),
(346,574,o),
(346,636,cs,{
name = hr00;
})
);
},
{
closed = 1;
nodes = (
(207,656,o),
(214,677,o),
(227,683,c),
(233,686,o),
(244,688,o),
(254,688,cs),
(280,688,o),
(300,669,o),
(300,634,cs),
(300,595,o),
(280,578,o),
(254,578,cs),
(229,578,o),
(207,595,o),
(207,634,cs)
);
}
);
};
layerId = master01;
shapes = (
{
ref = a;
},
{
pos = (118,0);
ref = ringcomb;
}
);
width = 521;
}
);
unicode = 229;
},
{
glyphname = aringacute;
kernLeft = a;
kernRight = a;
lastChange = "2023-02-24 13:32:01 +0000";
layers = (
{
background = {
shapes = (
{
closed = 1;
nodes = (
(160,146,l),
(346,156,l),
(386,45,l),
(318,31,l),
(318,22,o),
(318,0,o),
(336,0,cs),
(336,0,o),
(352,0,o),
(423,3,c),
(486,0,o),
(504,0,o),
(504,0,c),
(521,0,o),
(521,23,o),
(521,30,c),
(463,46,l),
(292,489,l),
(227,489,l),
(58,45,l),
(0,30,l),
(0,11,o),
(6,0,o),
(17,0,c),
(86,3,l),
(165,0,o),
(173,0,o),
(173,0,c),
(191,0,o),
(191,22,o),
(191,31,c),
(124,45,l,{
name = hr00;
})
);
},
{
closed = 1;
nodes = (
(330,198,l),
(177,198,l),
(253,412,l)
);
},
{
closed = 1;
nodes = (
(354,693,o),
(313,721,o),
(263,721,cs),
(212,721,o),
(169,690,o),
(169,634,cs),
(169,574,o),
(208,545,o),
(259,545,cs),
(315,545,o),
(354,574,o),
(354,636,cs,{
name = hr00;
})
);
},
{
closed = 1;
nodes = (
(215,656,o),
(222,677,o),
(235,683,c),
(241,686,o),
(252,688,o),
(262,688,cs),
(288,688,o),
(308,669,o),
(308,634,cs),
(308,595,o),
(288,578,o),
(262,578,cs),
(237,578,o),
(215,595,o),
(215,634,cs)
);
},
{
closed = 1;
nodes = (
(266,697,o),
(350,722,o),
(407,759,cs),
(410,761,o),
(411,765,o),
(411,769,cs),
(411,786,o),
(394,821,o),
(390,826,c),
(309,761,o),
(227,704,o),
(227,704,c),
(236,688,l,{
name = hr00;
})
);
}
);
};
layerId = master01;
shapes = (
{
closed = 1;
nodes = (
(315,545,o),
(354,574,o),
(354,636,cs,{
name = hr00;
}),
(354,693,o),
(313,721,o),
(263,721,cs),
(212,721,o),
(169,690,o),
(169,634,cs),
(169,574,o),
(208,545,o),
(259,545,cs)
);
},
{
ref = a;
},
{
closed = 1;
nodes = (
(237,578,o),
(215,595,o),
(215,634,cs),
(215,656,o),
(222,677,o),
(235,683,c),
(241,686,o),
(252,688,o),
(262,688,cs),
(288,688,o),
(308,669,o),
(308,634,cs),
(308,595,o),
(288,578,o),
(262,578,cs)
);
},
{
closed = 1;
nodes = (
(266,697,o),
(350,722,o),
(407,759,cs),
(410,761,o),
(411,765,o),
(411,769,cs),
(411,786,o),
(394,821,o),
(390,826,c),
(309,761,o),
(227,704,o),
(227,704,c),
(236,688,l,{
name = hr00;
})
);
}
);
width = 521;
}
);
unicode = 507;
},
{
glyphname = atilde;
kernLeft = a;
kernRight = a;
lastChange = "2023-02-24 13:32:01 +0000";
layers = (
{
background = {
shapes = (
{
closed = 1;
nodes = (
(160,146,l),
(346,156,l),
(386,45,l),
(318,31,l),
(318,22,o),
(318,0,o),
(336,0,cs),
(336,0,o),
(352,0,o),
(423,3,c),
(486,0,o),
(504,0,o),
(504,0,c),
(521,0,o),
(521,23,o),
(521,30,c),
(463,46,l),
(292,489,l),
(227,489,l),
(58,45,l),
(0,30,l),
(0,11,o),
(6,0,o),
(17,0,c),
(86,3,l),
(165,0,o),
(173,0,o),
(173,0,c),
(191,0,o),
(191,22,o),
(191,31,c),
(124,45,l,{
name = hr00;
})
);
},
{
closed = 1;
nodes = (
(330,198,l),
(177,198,l),
(253,412,l)
);
},
{
closed = 1;
nodes = (
(374,662,o),
(354,651,o),
(332,651,cs),
(285,651,o),
(244,678,o),
(196,678,cs,{
name = hr01;
}),
(163,678,o),
(129,662,o),
(95,603,c),
(112,584,l),
(132,603,o),
(152,614,o),
(174,614,cs),
(221,614,o),
(262,587,o),
(310,587,cs,{
name = hr02;
}),
(343,587,o),
(377,603,o),
(411,662,c),
(394,681,l)
);
}
);
};
layerId = master01;
shapes = (
{
ref = a;
},
{
pos = (53,0);
ref = tildecomb;
}
);
width = 521;
}
);
unicode = 227;
},
{
glyphname = ae;
kernLeft = a;
lastChange = "2023-02-24 13:31:52 +0000";
layers = (
{
anchors = (
{
name = bottom;
pos = (336,0);
},
{
name = top;
pos = (406,473);
}
);
background = {
shapes = (
{
closed = 1;
nodes = (
(604,0,o),
(607,0,o),
(609,0,cs,{
name = hr01;
}),
(622,0,o),
(627,3,o),
(629,12,c),
(635,123,l),
(607,123,o),
(597,121,o),
(593,106,cs),
(576,49,l,{
name = hr02;
}),
(423,49,l),
(382,223,l),
(544,233,l),
(544,274,l),
(370,274,l),
(331,440,l),
(533,442,l),
(533,384,ls),
(533,369,o),
(566,369,o),
(574,369,c),
(592,475,l),
(592,489,o),
(580,489,o),
(562,489,cs,{
name = hr03;
}),
(320,486,l),
(250,489,l),
(47,46,l),
(-10,31,l),
(-10,23,o),
(-10,0,o),
(7,0,cs),
(7,0,o),
(8,0,o),
(75,3,c),
(156,0,o),
(157,0,o),
(157,0,c),
(174,0,o),
(174,22,o),
(174,31,c),
(106,45,l),
(151,147,l),
(325,156,l),
(351,46,l),
(286,31,l,{
name = hr04;
}),
(286,22,o),
(286,0,o),
(303,0,c),
(391,6,l)
);
},
{
closed = 1;
nodes = (
(316,198,l),
(174,198,l),
(266,410,l)
);
}
);
};
layerId = master01;
shapes = (
{
closed = 1;
nodes = (
(604,0,o),
(607,0,o),
(609,0,cs,{
name = hr01;
}),
(622,0,o),
(627,3,o),
(629,12,c),
(635,123,l),
(607,123,o),
(597,121,o),
(593,106,cs),
(576,49,l,{
name = hr02;
}),
(423,49,l),
(382,223,l),
(544,233,l),
(544,274,l),
(370,274,l),
(331,440,l),
(533,442,l),
(533,384,ls),
(533,369,o),
(566,369,o),
(574,369,c),
(592,475,l),
(592,489,o),
(580,489,o),
(562,489,cs,{
name = hr03;
}),
(320,486,l),
(250,489,l),
(47,46,l),
(-10,31,l),
(-10,23,o),
(-10,0,o),
(7,0,cs),
(7,0,o),
(8,0,o),
(75,3,c),
(156,0,o),
(157,0,o),
(157,0,c),
(174,0,o),
(174,22,o),
(174,31,c),
(106,45,l),
(151,147,l),
(325,156,l),
(351,46,l),
(286,31,l,{
name = hr04;
}),
(286,22,o),
(286,0,o),
(303,0,c),
(391,6,l)
);
},
{
closed = 1;
nodes = (
(316,198,l),
(174,198,l),
(266,410,l)
);
}
);
width = 672;
}
);
unicode = 230;
},
{
glyphname = aeacute;
kernLeft = a;
lastChange = "2023-02-24 13:31:52 +0000";
layers = (
{
background = {
shapes = (
{
closed = 1;
nodes = (
(604,0,o),
(607,0,o),
(609,0,cs,{
name = hr01;
}),
(622,0,o),
(627,3,o),
(629,12,c),
(635,123,l),
(607,123,o),
(597,121,o),
(593,106,cs),
(576,49,l,{
name = hr02;
}),
(423,49,l),
(382,223,l),
(544,233,l),
(544,274,l),
(370,274,l),
(331,440,l),
(533,442,l),
(533,384,ls),
(533,369,o),
(566,369,o),
(574,369,c),
(592,475,l),
(592,489,o),
(580,489,o),
(562,489,cs,{
name = hr03;
}),
(320,486,l),
(250,489,l),
(47,46,l),
(-10,31,l),
(-10,23,o),
(-10,0,o),
(7,0,cs),
(7,0,o),
(8,0,o),
(75,3,c),
(156,0,o),
(157,0,o),
(157,0,c),
(174,0,o),
(174,22,o),
(174,31,c),
(106,45,l),
(151,147,l),
(325,156,l),
(351,46,l),
(286,31,l,{
name = hr04;
}),
(286,22,o),
(286,0,o),
(303,0,c),
(391,6,l)
);
},
{
closed = 1;
nodes = (
(316,198,l),
(174,198,l),
(266,410,l)
);
},
{
closed = 1;
nodes = (
(344,558,o),
(442,588,o),
(509,631,cs),
(513,633,o),
(514,638,o),
(514,643,cs),
(514,663,o),
(494,704,o),
(489,710,c),
(394,633,o),
(297,567,o),
(297,567,c),
(308,548,l,{
name = hr00;
})
);
}
);
};
layerId = master01;
shapes = (
{
ref = ae;
},
{
pos = (247,0);
ref = acutecomb;
}
);
width = 672;
}
);
unicode = 509;
},
{
glyphname = b;
lastChange = "2023-02-24 11:13:39 +0000";
layers = (
{
anchors = (
{
name = bottom;
pos = (245,0);
},
{
name = center;
pos = (245,237);
},
{
name = top;
pos = (245,473);
}
);
background = {
shapes = (
{
closed = 1;
nodes = (
(390,0,o),
(449,62,o),
(449,136,cs),
(449,188,o),
(415,240,o),
(341,262,c),
(384,285,o),
(408,326,o),
(408,366,cs,{
name = hr01;
}),
(408,428,o),
(354,489,o),
(245,489,c),
(156,486,l),
(88,489,o),
(73,489,o),
(73,489,c),
(55,489,o),
(55,466,o),
(55,458,c),
(119,444,l),
(119,45,l),
(55,31,l),
(55,23,o),
(55,0,o),
(73,0,c),
(156,6,l),
(290,0,l)
);
},
{
closed = 1;
nodes = (
(255,42,o),
(220,44,o),
(184,50,c),
(191,230,l),
(259,238,l),
(335,235,o),
(377,185,o),
(377,136,cs,{
name = hr02;
}),
(377,89,o),
(344,42,o),
(272,42,cs)
);
},
{
closed = 1;
nodes = (
(302,449,o),
(339,407,o),
(339,364,cs,{
name = hr03;
}),
(339,323,o),
(307,279,o),
(242,274,c),
(191,274,l),
(184,443,l),
(237,451,l)
);
}
);
};
layerId = master01;
shapes = (
{
closed = 1;
nodes = (
(390,0,o),
(449,62,o),
(449,136,cs),
(449,188,o),
(415,240,o),
(341,262,c),
(384,285,o),
(408,326,o),
(408,366,cs,{
name = hr01;
}),
(408,428,o),
(354,489,o),
(245,489,c),
(156,486,l),
(88,489,o),
(73,489,o),
(73,489,c),
(55,489,o),
(55,466,o),
(55,458,c),
(119,444,l),
(119,45,l),
(55,31,l),
(55,23,o),
(55,0,o),
(73,0,c),
(156,6,l),
(290,0,l)
);
},
{
closed = 1;
nodes = (
(255,42,o),
(220,44,o),
(184,50,c),
(191,230,l),
(259,238,l),
(335,235,o),
(377,185,o),
(377,136,cs,{
name = hr02;
}),
(377,89,o),
(344,42,o),
(272,42,cs)
);
},
{
closed = 1;
nodes = (
(302,449,o),
(339,407,o),
(339,364,cs,{
name = hr03;
}),
(339,323,o),
(307,279,o),
(242,274,c),
(191,274,l),
(184,443,l),
(237,451,l)
);
}
);
width = 489;
}
);
unicode = 98;
},
{
glyphname = c;
kernLeft = c;
lastChange = "2023-02-24 13:32:16 +0000";
layers = (
{
anchors = (
{
name = bottom;
pos = (249,0);
},
{
name = top;
pos = (279,473);
}
);
background = {
shapes = (
{
closed = 1;
nodes = (
(445,144,o),
(414,143,o),
(409,131,c),
(392,63,l),
(362,46,o),
(328,40,o),
(285,40,cs),
(188,40,o),
(112,107,o),
(112,246,cs),
(112,329,o),
(142,399,o),
(184,430,c),
(212,438,o),
(250,445,o),
(285,445,cs),
(317,445,o),
(360,439,o),
(384,431,c),
(384,359,l),
(384,343,o),
(419,343,o),
(427,343,c),
(448,453,l),
(403,482,o),
(349,497,o),
(290,497,cs),
(149,497,o),
(35,411,o),
(35,247,cs),
(35,76,o),
(139,-8,o),
(278,-8,cs),
(343,-8,o),
(402,7,o),
(446,38,c),
(452,144,l,{
name = hr00;
})
);
}
);
};
layerId = master01;
shapes = (
{
closed = 1;
nodes = (
(445,144,o),
(414,143,o),
(409,131,c),
(392,63,l),
(362,46,o),
(328,40,o),
(285,40,cs),
(188,40,o),
(112,107,o),
(112,246,cs),
(112,329,o),
(142,399,o),
(184,430,c),
(212,438,o),
(250,445,o),
(285,445,cs),
(317,445,o),
(360,439,o),
(384,431,c),
(384,359,l),
(384,343,o),
(419,343,o),
(427,343,c),
(448,453,l),
(403,482,o),
(349,497,o),
(290,497,cs),
(149,497,o),
(35,411,o),
(35,247,cs),
(35,76,o),
(139,-8,o),
(278,-8,cs),
(343,-8,o),
(402,7,o),
(446,38,c),
(452,144,l,{
name = hr00;
})
);
}
);
width = 497;
}
);
unicode = 99;
},
{
glyphname = cacute;
kernLeft = c;
lastChange = "2023-02-24 13:32:16 +0000";
layers = (
{
background = {
shapes = (
{
closed = 1;
nodes = (
(445,144,o),
(414,143,o),
(409,131,c),
(392,63,l),
(362,46,o),
(328,40,o),
(285,40,cs),
(188,40,o),
(112,107,o),
(112,246,cs),
(112,329,o),
(142,399,o),
(184,430,c),
(212,438,o),
(250,445,o),
(285,445,cs),
(317,445,o),
(360,439,o),
(384,431,c),
(384,359,l),
(384,343,o),
(419,343,o),
(427,343,c),
(448,453,l),
(403,482,o),
(349,497,o),
(290,497,cs),
(149,497,o),
(35,411,o),
(35,247,cs),
(35,76,o),
(139,-8,o),
(278,-8,cs),
(343,-8,o),
(402,7,o),
(446,38,c),
(452,144,l,{
name = hr00;
})
);
},
{
closed = 1;
nodes = (
(216,558,o),
(314,588,o),
(381,631,cs),
(385,633,o),
(386,638,o),
(386,643,cs),
(386,663,o),
(366,704,o),
(361,710,c),
(266,633,o),
(169,567,o),
(169,567,c),
(180,548,l,{
name = hr00;
})
);
}
);
};
layerId = master01;
shapes = (
{
ref = c;
},
{
pos = (120,0);
ref = acutecomb;
}
);
width = 497;
}
);
unicode = 263;
},
{
glyphname = ccaron;
kernLeft = c;
lastChange = "2023-02-24 13:32:16 +0000";
layers = (
{
background = {
shapes = (
{
closed = 1;
nodes = (
(445,144,o),
(414,143,o),
(409,131,c),
(392,63,l),
(362,46,o),
(328,40,o),
(285,40,cs),
(188,40,o),
(112,107,o),
(112,246,cs),
(112,329,o),
(142,399,o),
(184,430,c),
(212,438,o),
(250,445,o),
(285,445,cs),
(317,445,o),
(360,439,o),
(384,431,c),
(384,359,l),
(384,343,o),
(419,343,o),
(427,343,c),
(448,453,l),
(403,482,o),
(349,497,o),
(290,497,cs),
(149,497,o),
(35,411,o),
(35,247,cs),
(35,76,o),
(139,-8,o),
(278,-8,cs),
(343,-8,o),
(402,7,o),
(446,38,c),
(452,144,l,{
name = hr00;
})
);
},
{
closed = 1;
nodes = (
(182,715,l),
(155,698,l),
(215,604,o),
(244,539,q),
(289,539,l),
(328,604,o),
(400,698,q),
(375,715,l),
(272,613,l,{
name = hr00;
})
);
}
);
};
layerId = master01;
shapes = (
{
ref = c;
},
{
pos = (107,0);
ref = caroncomb;
}
);
width = 497;
}
);
unicode = 269;
},
{
glyphname = ccedilla;
kernLeft = c;
lastChange = "2023-02-24 13:32:16 +0000";
layers = (
{
background = {
shapes = (
{
closed = 1;
nodes = (
(445,144,o),
(414,143,o),
(409,131,c),
(392,63,l),
(362,46,o),
(328,40,o),
(285,40,cs),
(188,40,o),
(112,107,o),
(112,246,cs),
(112,329,o),
(142,399,o),
(184,430,c),
(212,438,o),
(250,445,o),
(285,445,cs),
(317,445,o),
(360,439,o),
(384,431,c),
(384,359,l),
(384,343,o),
(419,343,o),
(427,343,c),
(448,453,l),
(403,482,o),
(349,497,o),
(290,497,cs),
(149,497,o),
(35,411,o),
(35,247,cs),
(35,76,o),
(139,-8,o),
(278,-8,cs),
(343,-8,o),
(402,7,o),
(446,38,c),
(452,144,l,{
name = hr00;
})
);
},
{
closed = 1;
nodes = (
(259,-85,o),
(282,-114,o),
(282,-142,cs),
(282,-167,o),
(263,-191,o),
(230,-191,cs),
(211,-191,o),
(190,-184,o),
(175,-172,c),
(156,-202,l),
(174,-218,o),
(203,-233,o),
(242,-233,cs),
(305,-233,o),
(345,-186,o),
(345,-141,cs),
(345,-102,o),
(318,-64,o),
(255,-56,c),
(277,15,l),
(245,15,l),
(206,-83,l,{
name = hr00;
})
);
}
);
};
layerId = master01;
shapes = (
{
ref = c;
},
{
pos = (44,0);
ref = cedillacomb;
}
);
width = 497;
}
);
unicode = 231;
},
{
glyphname = ccircumflex;
kernLeft = c;
lastChange = "2023-02-24 13:32:16 +0000";
layers = (
{
background = {
shapes = (
{
closed = 1;
nodes = (
(445,144,o),
(414,143,o),
(409,131,c),
(392,63,l),
(362,46,o),
(328,40,o),
(285,40,cs),
(188,40,o),
(112,107,o),
(112,246,cs),
(112,329,o),
(142,399,o),
(184,430,c),
(212,438,o),
(250,445,o),
(285,445,cs),
(317,445,o),
(360,439,o),
(384,431,c),
(384,359,l),
(384,343,o),
(419,343,o),
(427,343,c),
(448,453,l),
(403,482,o),
(349,497,o),
(290,497,cs),
(149,497,o),
(35,411,o),
(35,247,cs),
(35,76,o),
(139,-8,o),
(278,-8,cs),
(343,-8,o),
(402,7,o),
(446,38,c),
(452,144,l,{
name = hr00;
})
);
},
{
closed = 1;
nodes = (
(374,539,l),
(400,556,l),
(334,650,o),
(300,715,q),
(255,715,l),
(221,650,o),
(155,556,q),
(181,539,l),
(278,641,l,{
name = hr00;
})
);
}
);
};
layerId = master01;
shapes = (
{
ref = c;
},
{
pos = (111,0);
ref = circumflexcomb;
}
);
width = 497;
}
);
unicode = 265;
},
{
glyphname = cdotaccent;
kernLeft = c;
lastChange = "2023-02-24 13:32:16 +0000";
layers = (
{
background = {
shapes = (
{
closed = 1;
nodes = (
(445,144,o),
(414,143,o),
(409,131,c),
(392,63,l),
(362,46,o),
(328,40,o),
(285,40,cs),
(188,40,o),
(112,107,o),
(112,246,cs),
(112,329,o),
(142,399,o),
(184,430,c),
(212,438,o),
(250,445,o),
(285,445,cs),
(317,445,o),
(360,439,o),
(384,431,c),
(384,359,l),
(384,343,o),
(419,343,o),
(427,343,c),
(448,453,l),
(403,482,o),
(349,497,o),
(290,497,cs),
(149,497,o),
(35,411,o),
(35,247,cs),
(35,76,o),
(139,-8,o),
(278,-8,cs),
(343,-8,o),
(402,7,o),
(446,38,c),
(452,144,l,{
name = hr00;
})
);
},
{
closed = 1;
nodes = (
(271,692,o),
(239,685,o),
(239,685,c),
(239,685,o),
(231,655,o),
(231,626,cs),
(231,599,o),
(238,571,o),
(266,571,cs),
(286,571,o),
(317,580,o),
(317,580,c),
(317,580,o),
(324,609,o),
(324,636,cs),
(324,665,o),
(315,692,o),
(290,692,cs,{
name = hr00;
})
);
}
);
};
layerId = master01;
shapes = (
{
ref = c;
},
{
pos = (170,0);
ref = dotaccentcomb;
}
);
width = 497;
}
);
unicode = 267;
},
{
glyphname = d;
lastChange = "2023-02-24 11:13:39 +0000";
layers = (
{
anchors = (
{
name = bottom;
pos = (291,0);
},
{
name = center;
pos = (291,237);
},
{
name = top;
pos = (298,473);
},
{
name = topright;
pos = (562,958);
}
);
background = {
shapes = (
{
closed = 1;
nodes = (
(119,45,l),
(55,31,l),
(55,23,o),
(55,0,o),
(73,0,c),
(157,6,l),
(294,-4,l,{
name = hr01;
}),
(444,-4,o),
(552,77,o),
(552,253,cs),
(552,438,o),
(419,497,o),
(283,497,c),
(242,494,o),
(197,489,o),
(156,486,c),
(88,489,o),
(73,489,o),
(73,489,c,{
name = hr02;
}),
(55,489,o),
(55,466,o),
(55,458,c),
(119,444,l)
);
},
{
closed = 1;
nodes = (
(186,440,l),
(219,446,o),
(256,450,o),
(285,450,cs,{
name = hr03;
}),
(394,450,o),
(474,399,o),
(474,246,cs),
(474,105,o),
(400,40,o),
(302,40,cs),
(265,40,o),
(223,43,o),
(186,50,c),
(196,251,l)
);
}
);
};
layerId = master01;
shapes = (
{
closed = 1;
nodes = (
(119,45,l),
(55,31,l),
(55,23,o),
(55,0,o),
(73,0,c),
(157,6,l),
(294,-4,l,{
name = hr01;
}),
(444,-4,o),
(552,77,o),
(552,253,cs),
(552,438,o),
(419,497,o),
(283,497,c),
(242,494,o),
(197,489,o),
(156,486,c),
(88,489,o),
(73,489,o),
(73,489,c,{
name = hr02;
}),
(55,489,o),
(55,466,o),
(55,458,c),
(119,444,l)
);
},
{
closed = 1;
nodes = (
(186,440,l),
(219,446,o),
(256,450,o),
(285,450,cs,{
name = hr03;
}),
(394,450,o),
(474,399,o),
(474,246,cs),
(474,105,o),
(400,40,o),
(302,40,cs),
(265,40,o),
(223,43,o),
(186,50,c),
(196,251,l)
);
}
);
width = 582;
}
);
unicode = 100;
},
{
glyphname = eth;
lastChange = "2023-02-24 11:13:39 +0000";
layers = (
{
background = {
shapes = (
{
closed = 1;
nodes = (
(361,234,l),
(361,273,l,{
name = hr01;
}),
(59,273,l),
(59,221,l)
);
},
{
closed = 1;
nodes = (
(119,45,l),
(55,31,l),
(55,23,o),
(55,0,o),
(73,0,c),
(157,6,l),
(294,-4,l,{
name = hr01;
}),
(444,-4,o),
(552,77,o),
(552,253,cs),
(552,438,o),
(419,497,o),
(283,497,c),
(242,494,o),
(197,489,o),
(156,486,c),
(88,489,o),
(73,489,o),
(73,489,c,{
name = hr02;
}),
(55,489,o),
(55,466,o),
(55,458,c),
(119,444,l)
);
},
{
closed = 1;
nodes = (
(186,440,l),
(219,446,o),
(256,450,o),
(285,450,cs,{
name = hr03;
}),
(394,450,o),
(474,399,o),
(474,246,cs),
(474,105,o),
(400,40,o),
(302,40,cs),
(265,40,o),
(223,43,o),
(186,50,c),
(196,251,l)
);
}
);
};
layerId = master01;
shapes = (
{
closed = 1;
nodes = (
(361,234,l),
(361,273,l,{
name = hr01;
}),
(59,273,l),
(59,221,l)
);
},
{
ref = d;
}
);
width = 582;
}
);
unicode = 240;
},
{
glyphname = dcaron;
lastChange = "2023-02-24 11:13:39 +0000";
layers = (
{
background = {
shapes = (
{
closed = 1;
nodes = (
(119,45,l),
(55,31,l),
(55,23,o),
(55,0,o),
(73,0,c),
(157,6,l),
(294,-4,l,{
name = hr01;
}),
(444,-4,o),
(552,77,o),
(552,253,cs),
(552,438,o),
(419,497,o),
(283,497,c),
(242,494,o),
(197,489,o),
(156,486,c),
(88,489,o),
(73,489,o),
(73,489,c,{
name = hr02;
}),
(55,489,o),
(55,466,o),
(55,458,c),
(119,444,l)
);
},
{
closed = 1;
nodes = (
(186,440,l),
(219,446,o),
(256,450,o),
(285,450,cs,{
name = hr03;
}),
(394,450,o),
(474,399,o),
(474,246,cs),
(474,105,o),
(400,40,o),
(302,40,cs),
(265,40,o),
(223,43,o),
(186,50,c),
(196,251,l)
);
},
{
closed = 1;
nodes = (
(203,715,l),
(176,698,l),
(236,604,o),
(265,539,q),
(310,539,l),
(349,604,o),
(421,698,q),
(396,715,l),
(293,613,l,{
name = hr00;
})
);
}
);
};
layerId = master01;
shapes = (
{
ref = d;
},
{
pos = (126,0);
ref = caroncomb;
}
);
width = 582;
}
);
unicode = 271;
},
{
glyphname = dcroat;
lastChange = "2023-02-24 11:13:39 +0000";
layers = (
{
background = {
shapes = (
{
closed = 1;
nodes = (
(119,45,l),
(55,31,l),
(55,23,o),
(55,0,o),
(73,0,c),
(157,6,l),
(294,-4,l,{
name = hr01;
}),
(444,-4,o),
(552,77,o),
(552,253,cs),
(552,438,o),
(419,497,o),
(283,497,c),
(242,494,o),
(197,489,o),
(156,486,c),
(88,489,o),
(73,489,o),
(73,489,c,{
name = hr02;
}),
(55,489,o),
(55,466,o),
(55,458,c),
(119,444,l)
);
},
{
closed = 1;
nodes = (
(186,440,l),
(219,446,o),
(256,450,o),
(285,450,cs,{
name = hr03;
}),
(394,450,o),
(474,399,o),
(474,246,cs),
(474,105,o),
(400,40,o),
(302,40,cs),
(265,40,o),
(223,43,o),
(186,50,c),
(196,251,l)
);
},
{
closed = 1;
nodes = (
(27,268,l),
(27,235,l),
(348,235,l),
(348,268,l,{
name = hr00;
})
);
}
);
};
layerId = master01;
shapes = (
{
alignment = -1;
ref = d;
},
{
closed = 1;
nodes = (
(27,268,l),
(27,235,l),
(348,235,l),
(348,268,l,{
name = hr00;
})
);
}
);
width = 582;
}
);
unicode = 273;
},
{
glyphname = e;
lastChange = "2023-02-24 11:13:39 +0000";
layers = (
{
anchors = (
{
name = bottom;
pos = (241,0);
},
{
name = ogonek;
pos = (411,4);
},
{
name = top;
pos = (261,473);
}
);
background = {
shapes = (
{
closed = 1;
nodes = (
(422,0,o),
(429,1,o),
(431,12,c),
(437,123,l),
(409,123,o),
(399,121,o),
(395,106,cs),
(378,49,l,{
name = hr01;
}),
(186,49,l),
(194,222,l),
(380,233,l),
(380,274,l),
(195,274,l),
(186,440,l),
(369,442,l),
(369,384,ls),
(369,369,o),
(402,369,o),
(410,369,c),
(428,475,l),
(428,489,o),
(416,489,o),
(398,489,cs,{
name = hr02;
}),
(156,486,l),
(88,489,o),
(73,489,o),
(73,489,c),
(55,489,o),
(55,466,o),
(55,458,c),
(119,444,l),
(119,45,l),
(55,31,l),
(55,23,o),
(55,0,o),
(73,0,c),
(156,6,l),
(403,0,ls)
);
}
);
};
layerId = master01;
shapes = (
{
closed = 1;
nodes = (
(422,0,o),
(429,1,o),
(431,12,c),
(437,123,l),
(409,123,o),
(399,121,o),
(395,106,cs),
(378,49,l,{
name = hr01;
}),
(186,49,l),
(194,222,l),
(380,233,l),
(380,274,l),
(195,274,l),
(186,440,l),
(369,442,l),
(369,384,ls),
(369,369,o),
(402,369,o),
(410,369,c),
(428,475,l),
(428,489,o),
(416,489,o),
(398,489,cs,{
name = hr02;
}),
(156,486,l),
(88,489,o),
(73,489,o),
(73,489,c),
(55,489,o),
(55,466,o),
(55,458,c),
(119,444,l),
(119,45,l),
(55,31,l),
(55,23,o),
(55,0,o),
(73,0,c),
(156,6,l),
(403,0,ls)
);
}
);
width = 482;
}
);
unicode = 101;
},
{
glyphname = eacute;
lastChange = "2023-02-24 11:13:39 +0000";
layers = (
{
background = {
shapes = (
{
closed = 1;
nodes = (
(422,0,o),
(429,1,o),
(431,12,c),
(437,123,l),
(409,123,o),
(399,121,o),
(395,106,cs),
(378,49,l,{
name = hr01;
}),
(186,49,l),
(194,222,l),
(380,233,l),
(380,274,l),
(195,274,l),
(186,440,l),
(369,442,l),
(369,384,ls),
(369,369,o),
(402,369,o),
(410,369,c),
(428,475,l),
(428,489,o),
(416,489,o),
(398,489,cs,{
name = hr02;
}),
(156,486,l),
(88,489,o),
(73,489,o),
(73,489,c),
(55,489,o),
(55,466,o),
(55,458,c),
(119,444,l),
(119,45,l),
(55,31,l),
(55,23,o),
(55,0,o),
(73,0,c),
(156,6,l),
(403,0,ls)
);
},
{
closed = 1;
nodes = (
(189,558,o),
(287,588,o),
(354,631,cs),
(358,633,o),
(359,638,o),
(359,643,cs),
(359,663,o),
(339,704,o),
(334,710,c),
(239,633,o),
(142,567,o),
(142,567,c),
(153,548,l,{
name = hr00;
})
);
}
);
};
layerId = master01;
shapes = (
{
ref = e;
},
{
pos = (102,0);
ref = acutecomb;
}
);
width = 482;
}
);
unicode = 233;
},
{
glyphname = ebreve;
lastChange = "2023-02-24 11:03:21 +0000";
layers = (
{
background = {
shapes = (
{
closed = 1;
nodes = (
(422,0,o),
(429,1,o),
(431,12,c),
(437,123,l),
(409,123,o),
(399,121,o),
(395,106,cs),
(378,49,l,{
name = hr01;
}),
(186,49,l),
(194,222,l),
(380,233,l),
(380,274,l),
(195,274,l),
(186,440,l),
(369,442,l),
(369,384,ls),
(369,369,o),
(402,369,o),
(410,369,c),
(428,475,l),
(428,489,o),
(416,489,o),
(398,489,cs,{
name = hr02;
}),
(156,486,l),
(88,489,o),
(73,489,o),
(73,489,c),
(55,489,o),
(55,466,o),
(55,458,c),
(119,444,l),
(119,45,l),
(55,31,l),
(55,23,o),
(55,0,o),
(73,0,c),
(156,6,l),
(403,0,ls)
);
},
{
closed = 1;
nodes = (
(226,607,o),
(197,643,o),
(175,699,c),
(141,691,l),
(173,594,o),
(204,540,o),
(264,540,cs),
(324,540,o),
(355,594,o),
(387,691,c),
(353,699,l),
(331,643,o),
(302,607,o),
(264,607,cs,{
name = hr00;
})
);
}
);
};
layerId = master01;
shapes = (
{
ref = e;
},
{
pos = (95,0);
ref = brevecomb;
}
);
width = 482;
}
);
unicode = 277;
},
{
glyphname = ecaron;
lastChange = "2023-02-24 11:13:39 +0000";
layers = (
{
background = {
shapes = (
{
closed = 1;
nodes = (
(422,0,o),
(429,1,o),
(431,12,c),
(437,123,l),
(409,123,o),
(399,121,o),
(395,106,cs),
(378,49,l,{
name = hr01;
}),
(186,49,l),
(194,222,l),
(380,233,l),
(380,274,l),
(195,274,l),
(186,440,l),
(369,442,l),
(369,384,ls),
(369,369,o),
(402,369,o),
(410,369,c),
(428,475,l),
(428,489,o),
(416,489,o),
(398,489,cs,{
name = hr02;
}),
(156,486,l),
(88,489,o),
(73,489,o),
(73,489,c),
(55,489,o),
(55,466,o),
(55,458,c),
(119,444,l),
(119,45,l),
(55,31,l),
(55,23,o),
(55,0,o),
(73,0,c),
(156,6,l),
(403,0,ls)
);
},
{
closed = 1;
nodes = (
(169,715,l),
(142,698,l),
(202,604,o),
(231,539,q),
(276,539,l),
(315,604,o),
(387,698,q),
(362,715,l),
(259,613,l,{
name = hr00;
})
);
}
);
};
layerId = master01;
shapes = (
{
ref = e;
},
{
pos = (89,0);
ref = caroncomb;
}
);
width = 482;
}
);
unicode = 283;
},
{
glyphname = ecircumflex;
lastChange = "2023-02-24 11:13:39 +0000";
layers = (
{
background = {
shapes = (
{
closed = 1;
nodes = (
(422,0,o),
(429,1,o),
(431,12,c),
(437,123,l),
(409,123,o),
(399,121,o),
(395,106,cs),
(378,49,l,{
name = hr01;
}),
(186,49,l),
(194,222,l),
(380,233,l),
(380,274,l),
(195,274,l),
(186,440,l),
(369,442,l),
(369,384,ls),
(369,369,o),
(402,369,o),
(410,369,c),
(428,475,l),
(428,489,o),
(416,489,o),
(398,489,cs,{
name = hr02;
}),
(156,486,l),
(88,489,o),
(73,489,o),
(73,489,c),
(55,489,o),
(55,466,o),
(55,458,c),
(119,444,l),
(119,45,l),
(55,31,l),
(55,23,o),
(55,0,o),
(73,0,c),
(156,6,l),
(403,0,ls)
);
},
{
closed = 1;
nodes = (
(347,539,l),
(373,556,l),
(307,650,o),
(273,715,q),
(228,715,l),
(194,650,o),
(128,556,q),
(154,539,l),
(251,641,l,{
name = hr00;
})
);
}
);
};
layerId = master01;
shapes = (
{
ref = e;
},
{
pos = (93,0);
ref = circumflexcomb;
}
);
width = 482;
}
);
unicode = 234;
},
{
glyphname = edieresis;
lastChange = "2023-02-24 11:13:39 +0000";
layers = (
{
background = {
shapes = (
{
closed = 1;
nodes = (
(422,0,o),
(429,1,o),
(431,12,c),
(437,123,l),
(409,123,o),
(399,121,o),
(395,106,cs),
(378,49,l,{
name = hr01;
}),
(186,49,l),
(194,222,l),
(380,233,l),
(380,274,l),
(195,274,l),
(186,440,l),
(369,442,l),
(369,384,ls),
(369,369,o),
(402,369,o),
(410,369,c),
(428,475,l),
(428,489,o),
(416,489,o),
(398,489,cs,{
name = hr02;
}),
(156,486,l),
(88,489,o),
(73,489,o),
(73,489,c),
(55,489,o),
(55,466,o),
(55,458,c),
(119,444,l),
(119,45,l),
(55,31,l),
(55,23,o),
(55,0,o),
(73,0,c),
(156,6,l),
(403,0,ls)
);
},
{
closed = 1;
nodes = (
(212,689,o),
(220,663,o),
(220,636,cs),
(220,611,o),
(215,586,o),
(214,583,c),
(214,583,o),
(182,574,o),
(165,574,cs),
(139,574,o),
(133,600,o),
(133,626,cs),
(133,653,o),
(139,679,o),
(140,682,c),
(140,682,o),
(173,689,o),
(189,689,c,{
name = hr00;
})
);
},
{
closed = 1;
nodes = (
(360,689,o),
(368,663,o),
(368,636,cs),
(368,611,o),
(363,586,o),
(362,583,c),
(362,583,o),
(330,574,o),
(313,574,cs),
(287,574,o),
(281,600,o),
(281,626,cs),
(281,653,o),
(287,679,o),
(288,682,c),
(288,682,o),
(321,689,o),
(337,689,c)
);
}
);
};
layerId = master01;
shapes = (
{
ref = e;
},
{
pos = (73,0);
ref = dieresiscomb;
}
);
width = 482;
}
);
unicode = 235;
},
{
glyphname = edotaccent;
lastChange = "2023-02-24 11:13:39 +0000";
layers = (
{
background = {
shapes = (
{
closed = 1;
nodes = (
(422,0,o),
(429,1,o),
(431,12,c),
(437,123,l),
(409,123,o),
(399,121,o),
(395,106,cs),
(378,49,l,{
name = hr01;
}),
(186,49,l),
(194,222,l),
(380,233,l),
(380,274,l),
(195,274,l),
(186,440,l),
(369,442,l),
(369,384,ls),
(369,369,o),
(402,369,o),
(410,369,c),
(428,475,l),
(428,489,o),
(416,489,o),
(398,489,cs,{
name = hr02;
}),
(156,486,l),
(88,489,o),
(73,489,o),
(73,489,c),
(55,489,o),
(55,466,o),
(55,458,c),
(119,444,l),
(119,45,l),
(55,31,l),
(55,23,o),
(55,0,o),
(73,0,c),
(156,6,l),
(403,0,ls)
);
},
{
closed = 1;
nodes = (
(258,692,o),
(226,685,o),
(226,685,c),
(226,685,o),
(218,655,o),
(218,626,cs),
(218,599,o),
(225,571,o),
(253,571,cs),
(273,571,o),
(304,580,o),
(304,580,c),
(304,580,o),
(311,609,o),
(311,636,cs),
(311,665,o),
(302,692,o),
(277,692,cs,{
name = hr00;
})
);
}
);
};
layerId = master01;
shapes = (
{
ref = e;
},
{
pos = (152,0);
ref = dotaccentcomb;
}
);
width = 482;
}
);
unicode = 279;
},
{
glyphname = egrave;
lastChange = "2023-02-24 11:13:39 +0000";
layers = (
{
background = {
shapes = (
{
closed = 1;
nodes = (
(422,0,o),
(429,1,o),
(431,12,c),
(437,123,l),
(409,123,o),
(399,121,o),
(395,106,cs),
(378,49,l,{
name = hr01;
}),
(186,49,l),
(194,222,l),
(380,233,l),
(380,274,l),
(195,274,l),
(186,440,l),
(369,442,l),
(369,384,ls),
(369,369,o),
(402,369,o),
(410,369,c),
(428,475,l),
(428,489,o),
(416,489,o),
(398,489,cs,{
name = hr02;
}),
(156,486,l),
(88,489,o),
(73,489,o),
(73,489,c),
(55,489,o),
(55,466,o),
(55,458,c),
(119,444,l),
(119,45,l),
(55,31,l),
(55,23,o),
(55,0,o),
(73,0,c),
(156,6,l),
(403,0,ls)
);
},
{
closed = 1;
nodes = (
(348,567,o),
(251,633,o),
(156,710,c),
(151,704,o),
(131,663,o),
(131,643,cs),
(131,638,o),
(132,633,o),
(136,631,cs),
(203,588,o),
(301,558,o),
(337,548,c),
(348,567,l,{
name = hr00;
})
);
}
);
};
layerId = master01;
shapes = (
{
ref = e;
},
{
pos = (102,0);
ref = gravecomb;
}
);
width = 482;
}
);
unicode = 232;
},
{
glyphname = emacron;
lastChange = "2023-02-24 11:13:39 +0000";
layers = (
{
background = {
shapes = (
{
closed = 1;
nodes = (
(422,0,o),
(429,1,o),
(431,12,c),
(437,123,l),
(409,123,o),
(399,121,o),
(395,106,cs),
(378,49,l,{
name = hr01;
}),
(186,49,l),
(194,222,l),
(380,233,l),
(380,274,l),
(195,274,l),
(186,440,l),
(369,442,l),
(369,384,ls),
(369,369,o),
(402,369,o),
(410,369,c),
(428,475,l),
(428,489,o),
(416,489,o),
(398,489,cs,{
name = hr02;
}),
(156,486,l),
(88,489,o),
(73,489,o),
(73,489,c),
(55,489,o),
(55,466,o),
(55,458,c),
(119,444,l),
(119,45,l),
(55,31,l),
(55,23,o),
(55,0,o),
(73,0,c),
(156,6,l),
(403,0,ls)
);
},
{
closed = 1;
nodes = (
(395,600,l),
(395,663,l),
(114,663,l),
(114,600,l,{
name = hr00;
})
);
}
);
};
layerId = master01;
shapes = (
{
ref = e;
},
{
pos = (50,0);
ref = macroncomb;
}
);
width = 482;
}
);
unicode = 275;
},
{
glyphname = eogonek;
lastChange = "2023-02-24 11:13:39 +0000";
layers = (
{
anchors = (
{
name = top;
pos = (241,473);
}
);
background = {
shapes = (
{
closed = 1;
nodes = (
(422,0,o),
(429,1,o),
(431,12,c),
(437,123,l),
(409,123,o),
(399,121,o),
(395,106,cs),
(378,49,l,{
name = hr01;
}),
(186,49,l),
(194,222,l),
(380,233,l),
(380,274,l),
(195,274,l),
(186,440,l),
(369,442,l),
(369,384,ls),
(369,369,o),
(402,369,o),
(410,369,c),
(428,475,l),
(428,489,o),
(416,489,o),
(398,489,cs,{
name = hr02;
}),
(156,486,l),
(88,489,o),
(73,489,o),
(73,489,c),
(55,489,o),
(55,466,o),
(55,458,c),
(119,444,l),
(119,45,l),
(55,31,l),
(55,23,o),
(55,0,o),
(73,0,c),
(156,6,l),
(403,0,ls)
);
},
{
closed = 1;
nodes = (
(349,15,l),
(261,-23,o),
(221,-87,o),
(221,-141,cs),
(221,-191,o),
(257,-233,o),
(324,-233,cs),
(363,-233,o),
(392,-218,o),
(410,-202,c),
(407,-188,o),
(402,-180,o),
(393,-172,c),
(377,-183,o),
(357,-189,o),
(338,-189,cs),
(308,-189,o),
(281,-173,o),
(281,-134,cs),
(281,-86,o),
(319,-22,o),
(407,9,c),
(407,15,l,{
name = hr00;
})
);
}
);
};
layerId = master01;
shapes = (
{
ref = e;
},
{
pos = (85,4);
ref = ogonekcomb;
}
);
width = 482;
}
);
unicode = 281;
},
{
glyphname = f;
kernRight = f;
lastChange = "2023-02-24 13:36:37 +0000";
layers = (
{
anchors = (
{
name = bottom;
pos = (221,0);
},
{
name = top;
pos = (221,958);
}
);
background = {
shapes = (
{
closed = 1;
nodes = (
(373,264,l),
(195,264,l),
(186,440,l),
(347,442,l),
(347,384,ls),
(347,369,o),
(380,369,o),
(388,369,c),
(406,475,l),
(406,489,o),
(394,489,o),
(376,489,cs,{
name = hr01;
}),
(156,486,l),
(88,489,o),
(73,489,o),
(73,489,c),
(55,489,o),
(55,466,o),
(55,458,c),
(119,444,l),
(119,45,l),
(55,31,l),
(55,23,o),
(55,0,o),
(73,0,c),
(156,6,l),
(255,0,l),
(272,0,o),
(272,23,o),
(272,31,c),
(187,45,l),
(194,212,l),
(373,223,l)
);
}
);
};
layerId = master01;
shapes = (
{
closed = 1;
nodes = (
(373,264,l),
(195,264,l),
(186,440,l),
(347,442,l),
(347,384,ls),
(347,369,o),
(380,369,o),
(388,369,c),
(406,475,l),
(406,489,o),
(394,489,o),
(376,489,cs,{
name = hr01;
}),
(156,486,l),
(88,489,o),
(73,489,o),
(73,489,c),
(55,489,o),
(55,466,o),
(55,458,c),
(119,444,l),
(119,45,l),
(55,31,l),
(55,23,o),
(55,0,o),
(73,0,c),
(156,6,l),
(255,0,l),
(272,0,o),
(272,23,o),
(272,31,c),
(187,45,l),
(194,212,l),
(373,223,l)
);
}
);
width = 441;
}
);
unicode = 102;
},
{
glyphname = g;
kernLeft = c;
lastChange = "2023-02-24 13:32:16 +0000";
layers = (
{
anchors = (
{
name = bottom;
pos = (260,-262);
},
{
name = top;
pos = (289,473);
}
);
background = {
shapes = (
{
closed = 1;
nodes = (
(461,257,l),
(257,257,l),
(257,216,l),
(393,209,l),
(404,74,l),
(374,51,o),
(325,40,o),
(285,40,cs),
(187,40,o),
(113,107,o),
(113,246,cs),
(113,329,o),
(141,399,o),
(184,430,c),
(212,438,o),
(250,445,o),
(285,445,cs),
(320,445,o),
(365,439,o),
(392,431,c),
(392,359,l),
(392,343,o),
(426,343,o),
(434,343,c),
(455,453,l),
(407,482,o),
(352,497,o),
(289,497,cs),
(149,497,o),
(35,411,o),
(35,248,cs),
(35,76,o),
(138,-8,o),
(277,-8,cs),
(341,-8,o),
(406,10,o),
(469,53,c),
(461,82,l,{
name = hr00;
})
);
}
);
};
layerId = master01;
shapes = (
{
closed = 1;
nodes = (
(461,257,l),
(257,257,l),
(257,216,l),
(393,209,l),
(404,74,l),
(374,51,o),
(325,40,o),
(285,40,cs),
(187,40,o),
(113,107,o),
(113,246,cs),
(113,329,o),
(141,399,o),
(184,430,c),
(212,438,o),
(250,445,o),
(285,445,cs),
(320,445,o),
(365,439,o),
(392,431,c),
(392,359,l),
(392,343,o),
(426,343,o),
(434,343,c),
(455,453,l),
(407,482,o),
(352,497,o),
(289,497,cs),
(149,497,o),
(35,411,o),
(35,248,cs),
(35,76,o),
(138,-8,o),
(277,-8,cs),
(341,-8,o),
(406,10,o),
(469,53,c),
(461,82,l,{
name = hr00;
})
);
}
);
width = 519;
}
);
unicode = 103;
},
{
glyphname = gbreve;
kernLeft = c;
lastChange = "2023-02-24 13:32:16 +0000";
layers = (
{
background = {
shapes = (
{
closed = 1;
nodes = (
(461,257,l),
(257,257,l),
(257,216,l),
(393,209,l),
(404,74,l),
(374,51,o),
(325,40,o),
(285,40,cs),
(187,40,o),
(113,107,o),
(113,246,cs),
(113,329,o),
(141,399,o),
(184,430,c),
(212,438,o),
(250,445,o),
(285,445,cs),
(320,445,o),
(365,439,o),
(392,431,c),
(392,359,l),
(392,343,o),
(426,343,o),
(434,343,c),
(455,453,l),
(407,482,o),
(352,497,o),
(289,497,cs),
(149,497,o),
(35,411,o),
(35,248,cs),
(35,76,o),
(138,-8,o),
(277,-8,cs),
(341,-8,o),
(406,10,o),
(469,53,c),
(461,82,l,{
name = hr00;
})
);
},
{
closed = 1;
nodes = (
(248,607,o),
(219,643,o),
(197,699,c),
(163,691,l),
(195,594,o),
(226,540,o),
(286,540,cs),
(346,540,o),
(377,594,o),
(409,691,c),
(375,699,l),
(353,643,o),
(324,607,o),
(286,607,cs,{
name = hr00;
})
);
}
);
};
layerId = master01;
shapes = (
{
ref = g;
},
{
pos = (123,0);
ref = brevecomb;
}
);
width = 519;
}
);
unicode = 287;
},
{
glyphname = gcircumflex;
kernLeft = c;
lastChange = "2023-02-24 13:32:16 +0000";
layers = (
{
background = {
shapes = (
{
closed = 1;
nodes = (
(461,257,l),
(257,257,l),
(257,216,l),
(393,209,l),
(404,74,l),
(374,51,o),
(325,40,o),
(285,40,cs),
(187,40,o),
(113,107,o),
(113,246,cs),
(113,329,o),
(141,399,o),
(184,430,c),
(212,438,o),
(250,445,o),
(285,445,cs),
(320,445,o),
(365,439,o),
(392,431,c),
(392,359,l),
(392,343,o),
(426,343,o),
(434,343,c),
(455,453,l),
(407,482,o),
(352,497,o),
(289,497,cs),
(149,497,o),
(35,411,o),
(35,248,cs),
(35,76,o),
(138,-8,o),
(277,-8,cs),
(341,-8,o),
(406,10,o),
(469,53,c),
(461,82,l,{
name = hr00;
})
);
},
{
closed = 1;
nodes = (
(384,539,l),
(410,556,l),
(344,650,o),
(310,715,q),
(265,715,l),
(231,650,o),
(165,556,q),
(191,539,l),
(288,641,l,{
name = hr00;
})
);
}
);
};
layerId = master01;
shapes = (
{
ref = g;
},
{
pos = (121,0);
ref = circumflexcomb;
}
);
width = 519;
}
);
unicode = 285;
},
{
glyphname = gcommaaccent;
kernLeft = c;
lastChange = "2023-02-24 13:32:16 +0000";
layers = (
{
background = {
shapes = (
{
closed = 1;
nodes = (
(461,257,l),
(257,257,l),
(257,216,l),
(393,209,l),
(404,74,l),
(374,51,o),
(325,40,o),
(285,40,cs),
(187,40,o),
(113,107,o),
(113,246,cs),
(113,329,o),
(141,399,o),
(184,430,c),
(212,438,o),
(250,445,o),
(285,445,cs),
(320,445,o),
(365,439,o),
(392,431,c),
(392,359,l),
(392,343,o),
(426,343,o),
(434,343,c),
(455,453,l),
(407,482,o),
(352,497,o),
(289,497,cs),
(149,497,o),
(35,411,o),
(35,248,cs),
(35,76,o),
(138,-8,o),
(277,-8,cs),
(341,-8,o),
(406,10,o),
(469,53,c),
(461,82,l,{
name = hr00;
})
);
},
{
closed = 1;
nodes = (
(292,-285,o),
(339,-226,o),
(339,-159,cs),
(339,-95,o),
(320,-50,o),
(293,-50,cs),
(275,-50,o),
(252,-53,o),
(234,-57,c),
(229,-81,o),
(226,-103,o),
(226,-122,cs),
(226,-162,o),
(238,-182,o),
(263,-182,cs),
(269,-182,o),
(272,-182,o),
(279,-181,c),
(279,-186,ls),
(279,-226,o),
(255,-259,o),
(215,-277,c),
(227,-307,l,{
name = hr00;
})
);
}
);
};
layerId = master01;
shapes = (
{
ref = g;
},
{
alignment = -1;
pos = (137,-1);
ref = commaaccentcomb;
}
);
width = 519;
}
);
unicode = 291;
},
{
glyphname = gdotaccent;
kernLeft = c;
lastChange = "2023-02-24 13:32:16 +0000";
layers = (
{
background = {
shapes = (
{
closed = 1;
nodes = (
(461,257,l),
(257,257,l),
(257,216,l),
(393,209,l),
(404,74,l),
(374,51,o),
(325,40,o),
(285,40,cs),
(187,40,o),
(113,107,o),
(113,246,cs),
(113,329,o),
(141,399,o),
(184,430,c),
(212,438,o),
(250,445,o),
(285,445,cs),
(320,445,o),
(365,439,o),
(392,431,c),
(392,359,l),
(392,343,o),
(426,343,o),
(434,343,c),
(455,453,l),
(407,482,o),
(352,497,o),
(289,497,cs),
(149,497,o),
(35,411,o),
(35,248,cs),
(35,76,o),
(138,-8,o),
(277,-8,cs),
(341,-8,o),
(406,10,o),
(469,53,c),
(461,82,l,{
name = hr00;
})
);
},
{
closed = 1;
nodes = (
(280,692,o),
(248,685,o),
(248,685,c),
(248,685,o),
(240,655,o),
(240,626,cs),
(240,599,o),
(247,571,o),
(275,571,cs),
(295,571,o),
(326,580,o),
(326,580,c),
(326,580,o),
(333,609,o),
(333,636,cs),
(333,665,o),
(324,692,o),
(299,692,cs,{
name = hr00;
})
);
}
);
};
layerId = master01;
shapes = (
{
ref = g;
},
{
pos = (180,0);
ref = dotaccentcomb;
}
);
width = 519;
}
);
unicode = 289;
},
{
glyphname = h;
lastChange = "2023-02-24 11:13:39 +0000";
layers = (
{
anchors = (
{
name = bottom;
pos = (317,0);
},
{
name = center;
pos = (317,479);
},
{
name = top;
pos = (317,486);
}
);
background = {
shapes = (
{
closed = 1;
nodes = (
(438,274,l),
(195,274,l),
(187,444,l),
(254,459,l),
(254,466,o),
(254,489,o),
(237,489,cs),
(237,489,o),
(218,489,o),
(156,486,c),
(88,489,o),
(73,489,o),
(73,489,c),
(55,489,o),
(55,466,o),
(55,458,c),
(119,444,l),
(119,45,l),
(55,31,l),
(55,23,o),
(55,0,o),
(73,0,c),
(156,6,l),
(237,0,l),
(254,0,o),
(254,23,o),
(254,31,c),
(187,45,l),
(194,222,l),
(438,232,l),
(446,45,l),
(379,31,l),
(379,23,o),
(379,0,o),
(397,0,c),
(480,6,l),
(561,0,l),
(578,0,o),
(578,23,o),
(578,31,c),
(514,45,l),
(514,444,l),
(578,459,l),
(578,466,o),
(578,489,o),
(561,489,cs),
(561,489,o),
(542,489,o),
(480,486,c),
(412,489,o),
(397,489,o),
(397,489,c),
(379,489,o),
(379,466,o),
(379,458,c),
(446,444,l,{
name = hr00;
})
);
}
);
};
layerId = master01;
shapes = (
{
closed = 1;
nodes = (
(438,274,l),
(195,274,l),
(187,444,l),
(254,459,l),
(254,466,o),
(254,489,o),
(237,489,cs),
(237,489,o),
(218,489,o),
(156,486,c),
(88,489,o),
(73,489,o),
(73,489,c),
(55,489,o),
(55,466,o),
(55,458,c),
(119,444,l),
(119,45,l),
(55,31,l),
(55,23,o),
(55,0,o),
(73,0,c),
(156,6,l),
(237,0,l),
(254,0,o),
(254,23,o),
(254,31,c),
(187,45,l),
(194,222,l),
(438,232,l),
(446,45,l),
(379,31,l),
(379,23,o),
(379,0,o),
(397,0,c),
(480,6,l),
(561,0,l),
(578,0,o),
(578,23,o),
(578,31,c),
(514,45,l),
(514,444,l),
(578,459,l),
(578,466,o),
(578,489,o),
(561,489,cs),
(561,489,o),
(542,489,o),
(480,486,c),
(412,489,o),
(397,489,o),
(397,489,c),
(379,489,o),
(379,466,o),
(379,458,c),
(446,444,l,{
name = hr00;
})
);
}
);
width = 633;
}
);
unicode = 104;
},
{
glyphname = hbar;
lastChange = "2023-02-24 11:13:39 +0000";
layers = (
{
background = {
shapes = (
{
closed = 1;
nodes = (
(438,274,l),
(195,274,l),
(187,444,l),
(254,459,l),
(254,466,o),
(254,489,o),
(237,489,cs),
(237,489,o),
(218,489,o),
(156,486,c),
(88,489,o),
(73,489,o),
(73,489,c),
(55,489,o),
(55,466,o),
(55,458,c),
(119,444,l),
(119,45,l),
(55,31,l),
(55,23,o),
(55,0,o),
(73,0,c),
(156,6,l),
(237,0,l),
(254,0,o),
(254,23,o),
(254,31,c),
(187,45,l),
(194,222,l),
(438,232,l),
(446,45,l),
(379,31,l),
(379,23,o),
(379,0,o),
(397,0,c),
(480,6,l),
(561,0,l),
(578,0,o),
(578,23,o),
(578,31,c),
(514,45,l),
(514,444,l),
(578,459,l),
(578,466,o),
(578,489,o),
(561,489,cs),
(561,489,o),
(542,489,o),
(480,486,c),
(412,489,o),
(397,489,o),
(397,489,c),
(379,489,o),
(379,466,o),
(379,458,c),
(446,444,l,{
name = hr00;
})
);
},
{
closed = 1;
nodes = (
(51,376,l),
(51,343,l),
(580,343,l),
(580,376,l,{
name = hr00;
})
);
}
);
};
layerId = master01;
shapes = (
{
alignment = -1;
ref = h;
},
{
closed = 1;
nodes = (
(51,376,l),
(51,343,l),
(580,343,l),
(580,376,l,{
name = hr00;
})
);
}
);
width = 633;
}
);
unicode = 295;
},
{
glyphname = hcircumflex;
lastChange = "2023-02-24 11:03:48 +0000";
layers = (
{
background = {
shapes = (
{
closed = 1;
nodes = (
(438,274,l),
(195,274,l),
(187,444,l),
(254,459,l),
(254,466,o),
(254,489,o),
(237,489,cs),
(237,489,o),
(218,489,o),
(156,486,c),
(88,489,o),
(73,489,o),
(73,489,c),
(55,489,o),
(55,466,o),
(55,458,c),
(119,444,l),
(119,45,l),
(55,31,l),
(55,23,o),
(55,0,o),
(73,0,c),
(156,6,l),
(237,0,l),
(254,0,o),
(254,23,o),
(254,31,c),
(187,45,l),
(194,222,l),
(438,232,l),
(446,45,l),
(379,31,l),
(379,23,o),
(379,0,o),
(397,0,c),
(480,6,l),
(561,0,l),
(578,0,o),
(578,23,o),
(578,31,c),
(514,45,l),
(514,444,l),
(578,459,l),
(578,466,o),
(578,489,o),
(561,489,cs),
(561,489,o),
(542,489,o),
(480,486,c),
(412,489,o),
(397,489,o),
(397,489,c),
(379,489,o),
(379,466,o),
(379,458,c),
(446,444,l,{
name = hr00;
})
);
},
{
closed = 1;
nodes = (
(413,539,l),
(439,556,l),
(373,650,o),
(339,715,q),
(294,715,l),
(260,650,o),
(194,556,q),
(220,539,l),
(317,641,l,{
name = hr00;
})
);
}
);
};
layerId = master01;
shapes = (
{
ref = h;
},
{
pos = (149,-214);
ref = circumflexcomb.case;
}
);
width = 633;
}
);
unicode = 293;
},
{
glyphname = i;
lastChange = "2023-02-24 13:53:52 +0000";
layers = (
{
background = {
shapes = (
{
closed = 1;
nodes = (
(119,45,l),
(55,31,l),
(55,23,o),
(55,0,o),
(73,0,c),
(156,6,l),
(237,0,l),
(254,0,o),
(254,23,o),
(254,31,c),
(190,45,l),
(190,444,l),
(254,459,l),
(254,466,o),
(254,489,o),
(237,489,cs),
(237,489,o),
(218,489,o),
(156,486,c),
(88,489,o),
(73,489,o),
(73,489,c),
(55,489,o),
(55,466,o),
(55,458,c),
(119,444,l,{
name = hr00;
})
);
}
);
};
layerId = master01;
shapes = (
{
ref = idotless;
}
);
width = 309;
}
);
unicode = 105;
},
